<ttFont>
    <TTGlyph name="A" xMin="-76" yMin="0" xMax="1372" yMax="1452">
      <contour>
        <pt x="399" y="104" on="1"/>
        <pt x="346" y="74" on="0"/>
        <pt x="249" y="34" on="0"/>
        <pt x="165" y="10" on="0"/>
        <pt x="98" y="0" on="0"/>
        <pt x="74" y="0" on="1"/>
        <pt x="-76" y="0" on="1"/>
        <pt x="33" y="61" on="1"/>
        <pt x="50" y="83" on="0"/>
        <pt x="82" y="127" on="0"/>
        <pt x="93" y="146" on="1"/>
        <pt x="106" y="167" on="0"/>
        <pt x="117" y="188" on="1"/>
        <pt x="148" y="251" on="0"/>
        <pt x="209" y="392" on="1"/>
        <pt x="234" y="452" on="0"/>
        <pt x="303" y="618" on="0"/>
        <pt x="393" y="838" on="0"/>
        <pt x="503" y="1118" on="0"/>
        <pt x="571" y="1292" on="1"/>
        <pt x="745" y="1452" on="1"/>
        <pt x="1137" y="123" on="1"/>
        <pt x="1179" y="112" on="0"/>
        <pt x="1256" y="106" on="0"/>
        <pt x="1290" y="106" on="1"/>
        <pt x="1308" y="106" on="0"/>
        <pt x="1338" y="107" on="0"/>
        <pt x="1349" y="108" on="1"/>
        <pt x="1361" y="109" on="0"/>
        <pt x="1372" y="111" on="1"/>
        <pt x="1314" y="83" on="0"/>
        <pt x="1228" y="42" on="0"/>
        <pt x="1161" y="14" on="0"/>
        <pt x="1104" y="0" on="0"/>
        <pt x="1075" y="0" on="1"/>
        <pt x="915" y="0" on="1"/>
        <pt x="967" y="33" on="1"/>
        <pt x="807" y="563" on="1"/>
        <pt x="778" y="555" on="0"/>
        <pt x="702" y="540" on="0"/>
        <pt x="597" y="528" on="0"/>
        <pt x="458" y="518" on="0"/>
        <pt x="367" y="514" on="1"/>
        <pt x="325" y="425" on="0"/>
        <pt x="255" y="287" on="0"/>
        <pt x="199" y="185" on="0"/>
        <pt x="156" y="115" on="0"/>
        <pt x="141" y="94" on="1"/>
        <pt x="158" y="91" on="0"/>
        <pt x="200" y="88" on="0"/>
        <pt x="221" y="88" on="1"/>
        <pt x="253" y="88" on="0"/>
        <pt x="316" y="93" on="0"/>
        <pt x="342" y="96" on="1"/>
        <pt x="372" y="100" on="0"/>
      </contour>
      <contour>
        <pt x="539" y="633" on="1"/>
        <pt x="674" y="633" on="0"/>
        <pt x="784" y="639" on="1"/>
        <pt x="631" y="1147" on="1"/>
        <pt x="569" y="988" on="0"/>
        <pt x="466" y="738" on="0"/>
        <pt x="420" y="633" on="1"/>
      </contour>
    </TTGlyph>
    <TTGlyph name="AE" xMin="-111" yMin="-25" xMax="1752" yMax="1446">
      <contour>
        <pt x="365" y="104" on="1"/>
        <pt x="312" y="74" on="0"/>
        <pt x="214" y="34" on="0"/>
        <pt x="130" y="10" on="0"/>
        <pt x="63" y="0" on="0"/>
        <pt x="39" y="0" on="1"/>
        <pt x="-111" y="0" on="1"/>
        <pt x="72" y="104" on="1"/>
        <pt x="80" y="101" on="0"/>
        <pt x="95" y="96" on="0"/>
        <pt x="104" y="94" on="1"/>
        <pt x="119" y="111" on="0"/>
        <pt x="146" y="145" on="0"/>
        <pt x="157" y="159" on="1"/>
        <pt x="169" y="175" on="0"/>
        <pt x="180" y="188" on="1"/>
        <pt x="240" y="271" on="0"/>
        <pt x="333" y="423" on="1"/>
        <pt x="373" y="488" on="0"/>
        <pt x="474" y="661" on="0"/>
        <pt x="599" y="884" on="0"/>
        <pt x="748" y="1160" on="0"/>
        <pt x="836" y="1327" on="1"/>
        <pt x="794" y="1327" on="0"/>
        <pt x="719" y="1329" on="0"/>
        <pt x="690" y="1331" on="1"/>
        <pt x="877" y="1430" on="1"/>
        <pt x="1066" y="1430" on="0"/>
        <pt x="1368" y="1435" on="0"/>
        <pt x="1475" y="1438" on="1"/>
        <pt x="1600" y="1442" on="0"/>
        <pt x="1696" y="1446" on="1"/>
        <pt x="1730" y="1446" on="0"/>
        <pt x="1752" y="1435" on="0"/>
        <pt x="1748" y="1422" on="0"/>
        <pt x="1728" y="1408" on="0"/>
        <pt x="1720" y="1405" on="1"/>
        <pt x="1712" y="1401" on="0"/>
        <pt x="1690" y="1388" on="1"/>
        <pt x="1671" y="1377" on="0"/>
        <pt x="1602" y="1330" on="0"/>
        <pt x="1542" y="1290" on="1"/>
        <pt x="1562" y="1312" on="0"/>
        <pt x="1556" y="1333" on="0"/>
        <pt x="1545" y="1338" on="1"/>
        <pt x="1532" y="1343" on="0"/>
        <pt x="1509" y="1343" on="1"/>
        <pt x="1492" y="1341" on="0"/>
        <pt x="1419" y="1338" on="0"/>
        <pt x="1318" y="1334" on="0"/>
        <pt x="1197" y="1330" on="0"/>
        <pt x="1133" y="1329" on="1"/>
        <pt x="1134" y="1277" on="0"/>
        <pt x="1135" y="1154" on="0"/>
        <pt x="1135" y="1021" on="0"/>
        <pt x="1135" y="879" on="0"/>
        <pt x="1135" y="809" on="1"/>
        <pt x="1237" y="810" on="0"/>
        <pt x="1400" y="815" on="0"/>
        <pt x="1458" y="818" on="1"/>
        <pt x="1526" y="822" on="0"/>
        <pt x="1579" y="825" on="1"/>
        <pt x="1612" y="826" on="0"/>
        <pt x="1634" y="816" on="0"/>
        <pt x="1630" y="802" on="0"/>
        <pt x="1611" y="787" on="0"/>
        <pt x="1604" y="784" on="1"/>
        <pt x="1595" y="780" on="0"/>
        <pt x="1577" y="769" on="1"/>
        <pt x="1561" y="759" on="0"/>
        <pt x="1502" y="720" on="0"/>
        <pt x="1454" y="686" on="1"/>
        <pt x="1462" y="701" on="0"/>
        <pt x="1445" y="717" on="0"/>
        <pt x="1431" y="720" on="1"/>
        <pt x="1414" y="724" on="0"/>
        <pt x="1391" y="723" on="1"/>
        <pt x="1346" y="720" on="0"/>
        <pt x="1221" y="707" on="0"/>
        <pt x="1135" y="705" on="1"/>
        <pt x="1134" y="613" on="0"/>
        <pt x="1132" y="444" on="0"/>
        <pt x="1130" y="307" on="0"/>
        <pt x="1127" y="213" on="0"/>
        <pt x="1126" y="195" on="1"/>
        <pt x="1124" y="175" on="0"/>
        <pt x="1114" y="156" on="1"/>
        <pt x="1106" y="139" on="0"/>
        <pt x="1071" y="101" on="0"/>
        <pt x="1040" y="86" on="1"/>
        <pt x="1493" y="86" on="1"/>
        <pt x="1525" y="86" on="0"/>
        <pt x="1558" y="90" on="1"/>
        <pt x="1586" y="93" on="0"/>
        <pt x="1650" y="107" on="0"/>
        <pt x="1679" y="121" on="1"/>
        <pt x="1629" y="74" on="0"/>
        <pt x="1531" y="24" on="0"/>
        <pt x="1490" y="13" on="1"/>
        <pt x="1442" y="0" on="0"/>
        <pt x="1399" y="-2" on="1"/>
        <pt x="1301" y="-2" on="0"/>
        <pt x="1127" y="-4" on="0"/>
        <pt x="987" y="-10" on="0"/>
        <pt x="888" y="-19" on="0"/>
        <pt x="866" y="-25" on="1"/>
        <pt x="897" y="6" on="0"/>
        <pt x="932" y="66" on="0"/>
        <pt x="950" y="140" on="0"/>
        <pt x="955" y="233" on="0"/>
        <pt x="954" y="297" on="1"/>
        <pt x="954" y="571" on="1"/>
        <pt x="926" y="561" on="0"/>
        <pt x="850" y="544" on="0"/>
        <pt x="744" y="530" on="0"/>
        <pt x="600" y="518" on="0"/>
        <pt x="504" y="514" on="1"/>
        <pt x="387" y="339" on="0"/>
        <pt x="224" y="134" on="0"/>
        <pt x="182" y="88" on="1"/>
        <pt x="186" y="88" on="1"/>
        <pt x="218" y="88" on="0"/>
        <pt x="282" y="93" on="0"/>
        <pt x="308" y="96" on="1"/>
        <pt x="338" y="100" on="0"/>
      </contour>
      <contour>
        <pt x="676" y="633" on="1"/>
        <pt x="753" y="633" on="0"/>
        <pt x="896" y="636" on="0"/>
        <pt x="954" y="639" on="1"/>
        <pt x="954" y="748" on="0"/>
        <pt x="952" y="1058" on="0"/>
        <pt x="952" y="1270" on="1"/>
        <pt x="846" y="1074" on="0"/>
        <pt x="660" y="760" on="0"/>
        <pt x="580" y="633" on="1"/>
        <pt x="603" y="631" on="0"/>
        <pt x="651" y="633" on="0"/>
      </contour>
    </TTGlyph>
    <TTGlyph name="AEacute" xMin="-111" yMin="-25" xMax="1752" yMax="1935">
      <component glyphName="AE" x="0" y="0" flags="0x204"/>
      <component glyphName="acute" x="1032" y="254" flags="0x4"/>
    </TTGlyph>
    <TTGlyph name="Aacute" xMin="-76" yMin="0" xMax="1372" yMax="1894">
      <component glyphName="A" x="0" y="0" flags="0x204"/>
      <component glyphName="acute" x="631" y="213" flags="0x4"/>
    </TTGlyph>
    <TTGlyph name="Abreve" xMin="-76" yMin="0" xMax="1372" yMax="1800">
      <component glyphName="A" x="0" y="0" flags="0x204"/>
      <component glyphName="breve" x="410" y="225" flags="0x4"/>
    </TTGlyph>
    <TTGlyph name="Acircumflex" xMin="-74" yMin="0" xMax="1374" yMax="1809">
      <component glyphName="A" x="2" y="0" flags="0x4"/>
      <component glyphName="circumflex" x="373" y="193" flags="0x4"/>
    </TTGlyph>
    <TTGlyph name="Adieresis" xMin="-76" yMin="0" xMax="1372" yMax="1665">
      <component glyphName="A" x="0" y="0" flags="0x4"/>
      <component glyphName="dieresis" x="387" y="172" flags="0x4"/>
    </TTGlyph>
    <TTGlyph name="Agrave" xMin="-76" yMin="0" xMax="1372" yMax="1847">
      <component glyphName="A" x="0" y="0" flags="0x204"/>
      <component glyphName="grave" x="262" y="182" flags="0x4"/>
    </TTGlyph>
    <TTGlyph name="Amacron" xMin="-76" yMin="0" xMax="1372" yMax="1667">
      <component glyphName="A" x="0" y="0" flags="0x204"/>
      <component glyphName="macron" x="365" y="205" flags="0x4"/>
    </TTGlyph>
    <TTGlyph name="Aogonek" xMin="-76" yMin="-373" xMax="1372" yMax="1452">
      <contour>
        <pt x="1366" y="-223" on="1"/>
        <pt x="1324" y="-265" on="0"/>
        <pt x="1255" y="-322" on="0"/>
        <pt x="1192" y="-357" on="0"/>
        <pt x="1132" y="-373" on="0"/>
        <pt x="1100" y="-373" on="1"/>
        <pt x="1065" y="-373" on="0"/>
        <pt x="1006" y="-346" on="0"/>
        <pt x="964" y="-301" on="0"/>
        <pt x="940" y="-241" on="0"/>
        <pt x="940" y="-207" on="1"/>
        <pt x="940" y="-136" on="0"/>
        <pt x="997" y="-35" on="0"/>
        <pt x="1040" y="0" on="1"/>
        <pt x="915" y="0" on="1"/>
        <pt x="967" y="33" on="1"/>
        <pt x="807" y="563" on="1"/>
        <pt x="778" y="555" on="0"/>
        <pt x="702" y="540" on="0"/>
        <pt x="597" y="528" on="0"/>
        <pt x="458" y="518" on="0"/>
        <pt x="367" y="514" on="1"/>
        <pt x="325" y="425" on="0"/>
        <pt x="255" y="287" on="0"/>
        <pt x="199" y="185" on="0"/>
        <pt x="156" y="115" on="0"/>
        <pt x="141" y="94" on="1"/>
        <pt x="158" y="91" on="0"/>
        <pt x="200" y="88" on="0"/>
        <pt x="221" y="88" on="1"/>
        <pt x="253" y="88" on="0"/>
        <pt x="316" y="93" on="0"/>
        <pt x="342" y="96" on="1"/>
        <pt x="372" y="100" on="0"/>
        <pt x="399" y="104" on="1"/>
        <pt x="346" y="74" on="0"/>
        <pt x="249" y="34" on="0"/>
        <pt x="165" y="10" on="0"/>
        <pt x="98" y="0" on="0"/>
        <pt x="74" y="0" on="1"/>
        <pt x="-76" y="0" on="1"/>
        <pt x="33" y="61" on="1"/>
        <pt x="50" y="83" on="0"/>
        <pt x="82" y="127" on="0"/>
        <pt x="93" y="146" on="1"/>
        <pt x="106" y="167" on="0"/>
        <pt x="117" y="188" on="1"/>
        <pt x="148" y="251" on="0"/>
        <pt x="209" y="392" on="1"/>
        <pt x="234" y="452" on="0"/>
        <pt x="303" y="618" on="0"/>
        <pt x="393" y="838" on="0"/>
        <pt x="503" y="1118" on="0"/>
        <pt x="571" y="1292" on="1"/>
        <pt x="745" y="1452" on="1"/>
        <pt x="1137" y="123" on="1"/>
        <pt x="1179" y="112" on="0"/>
        <pt x="1256" y="106" on="0"/>
        <pt x="1290" y="106" on="1"/>
        <pt x="1308" y="106" on="0"/>
        <pt x="1338" y="107" on="0"/>
        <pt x="1349" y="108" on="1"/>
        <pt x="1361" y="109" on="0"/>
        <pt x="1372" y="111" on="1"/>
        <pt x="1321" y="87" on="0"/>
        <pt x="1244" y="49" on="0"/>
        <pt x="1182" y="22" on="0"/>
        <pt x="1130" y="5" on="0"/>
        <pt x="1106" y="2" on="1"/>
        <pt x="1087" y="-26" on="0"/>
        <pt x="1065" y="-91" on="0"/>
        <pt x="1065" y="-125" on="1"/>
        <pt x="1065" y="-196" on="0"/>
        <pt x="1139" y="-272" on="0"/>
        <pt x="1210" y="-272" on="1"/>
        <pt x="1234" y="-272" on="0"/>
        <pt x="1270" y="-269" on="0"/>
        <pt x="1304" y="-259" on="0"/>
        <pt x="1341" y="-240" on="0"/>
      </contour>
      <contour>
        <pt x="539" y="633" on="1"/>
        <pt x="674" y="633" on="0"/>
        <pt x="784" y="639" on="1"/>
        <pt x="631" y="1147" on="1"/>
        <pt x="569" y="988" on="0"/>
        <pt x="466" y="738" on="0"/>
        <pt x="420" y="633" on="1"/>
      </contour>
    </TTGlyph>
    <TTGlyph name="Aring" xMin="-76" yMin="0" xMax="1372" yMax="1837">
      <component glyphName="A" x="0" y="0" flags="0x204"/>
      <component glyphName="ring" x="541" y="254" flags="0x4"/>
    </TTGlyph>
    <TTGlyph name="Atilde" xMin="-76" yMin="0" xMax="1372" yMax="1775">
      <component glyphName="A" x="0" y="0" flags="0x204"/>
      <component glyphName="tilde" x="406" y="262" flags="0x4"/>
    </TTGlyph>
    <TTGlyph name="B" xMin="57" yMin="0" xMax="1090" yMax="1434">
      <contour>
        <pt x="1090" y="483" on="1"/>
        <pt x="1090" y="388" on="0"/>
        <pt x="1013" y="243" on="0"/>
        <pt x="890" y="136" on="0"/>
        <pt x="736" y="63" on="0"/>
        <pt x="582" y="19" on="0"/>
        <pt x="442" y="0" on="0"/>
        <pt x="395" y="0" on="1"/>
        <pt x="121" y="0" on="1"/>
        <pt x="136" y="1" on="0"/>
        <pt x="160" y="17" on="0"/>
        <pt x="178" y="44" on="0"/>
        <pt x="191" y="77" on="0"/>
        <pt x="196" y="95" on="1"/>
        <pt x="207" y="135" on="0"/>
        <pt x="209" y="188" on="1"/>
        <pt x="212" y="253" on="0"/>
        <pt x="217" y="399" on="1"/>
        <pt x="219" y="461" on="0"/>
        <pt x="225" y="633" on="0"/>
        <pt x="232" y="861" on="0"/>
        <pt x="242" y="1151" on="0"/>
        <pt x="248" y="1331" on="1"/>
        <pt x="211" y="1329" on="0"/>
        <pt x="116" y="1327" on="0"/>
        <pt x="57" y="1329" on="1"/>
        <pt x="244" y="1434" on="1"/>
        <pt x="278" y="1431" on="0"/>
        <pt x="354" y="1427" on="0"/>
        <pt x="391" y="1427" on="1"/>
        <pt x="428" y="1427" on="0"/>
        <pt x="494" y="1428" on="0"/>
        <pt x="519" y="1430" on="1"/>
        <pt x="548" y="1432" on="0"/>
        <pt x="573" y="1434" on="1"/>
        <pt x="646" y="1434" on="0"/>
        <pt x="797" y="1410" on="0"/>
        <pt x="919" y="1345" on="0"/>
        <pt x="997" y="1229" on="0"/>
        <pt x="997" y="1137" on="1"/>
        <pt x="992" y="1067" on="0"/>
        <pt x="958" y="1005" on="1"/>
        <pt x="943" y="978" on="0"/>
        <pt x="899" y="923" on="0"/>
        <pt x="834" y="873" on="0"/>
        <pt x="746" y="831" on="0"/>
        <pt x="688" y="817" on="1"/>
        <pt x="705" y="819" on="0"/>
        <pt x="736" y="821" on="0"/>
        <pt x="752" y="821" on="1"/>
        <pt x="815" y="821" on="0"/>
        <pt x="912" y="792" on="0"/>
        <pt x="983" y="744" on="0"/>
        <pt x="1032" y="683" on="0"/>
        <pt x="1048" y="652" on="1"/>
        <pt x="1085" y="577" on="0"/>
      </contour>
      <contour>
        <pt x="387" y="246" on="1"/>
        <pt x="383" y="213" on="0"/>
        <pt x="372" y="183" on="1"/>
        <pt x="363" y="157" on="0"/>
        <pt x="332" y="107" on="0"/>
        <pt x="307" y="96" on="1"/>
        <pt x="407" y="87" on="0"/>
        <pt x="549" y="80" on="0"/>
        <pt x="594" y="80" on="1"/>
        <pt x="617" y="80" on="0"/>
        <pt x="652" y="81" on="0"/>
        <pt x="663" y="82" on="1"/>
        <pt x="676" y="83" on="0"/>
        <pt x="684" y="84" on="1"/>
        <pt x="715" y="88" on="0"/>
        <pt x="785" y="134" on="0"/>
        <pt x="847" y="211" on="0"/>
        <pt x="892" y="313" on="0"/>
        <pt x="899" y="375" on="1"/>
        <pt x="908" y="458" on="0"/>
        <pt x="873" y="590" on="0"/>
        <pt x="785" y="682" on="0"/>
        <pt x="644" y="731" on="0"/>
        <pt x="547" y="731" on="1"/>
        <pt x="530" y="731" on="0"/>
        <pt x="492" y="729" on="0"/>
        <pt x="473" y="727" on="1"/>
        <pt x="538" y="758" on="0"/>
        <pt x="656" y="814" on="0"/>
        <pt x="745" y="893" on="0"/>
        <pt x="797" y="1009" on="0"/>
        <pt x="797" y="1100" on="1"/>
        <pt x="797" y="1152" on="0"/>
        <pt x="761" y="1228" on="0"/>
        <pt x="701" y="1280" on="0"/>
        <pt x="624" y="1312" on="0"/>
        <pt x="541" y="1330" on="0"/>
        <pt x="459" y="1336" on="0"/>
        <pt x="424" y="1337" on="1"/>
        <pt x="420" y="1154" on="0"/>
        <pt x="413" y="866" on="0"/>
        <pt x="406" y="644" on="0"/>
        <pt x="401" y="483" on="0"/>
        <pt x="398" y="426" on="1"/>
        <pt x="392" y="293" on="0"/>
      </contour>
    </TTGlyph>
    <TTGlyph name="C" xMin="76" yMin="-18" xMax="1326" yMax="1462">
      <contour>
        <pt x="1319" y="1374" on="1"/>
        <pt x="1301" y="1351" on="0"/>
        <pt x="1275" y="1329" on="1"/>
        <pt x="1253" y="1310" on="0"/>
        <pt x="1188" y="1268" on="0"/>
        <pt x="1145" y="1251" on="1"/>
        <pt x="1159" y="1269" on="0"/>
        <pt x="1136" y="1310" on="0"/>
        <pt x="1058" y="1344" on="0"/>
        <pt x="925" y="1366" on="0"/>
        <pt x="829" y="1366" on="1"/>
        <pt x="773" y="1366" on="0"/>
        <pt x="644" y="1343" on="0"/>
        <pt x="518" y="1287" on="0"/>
        <pt x="401" y="1194" on="0"/>
        <pt x="311" y="1055" on="0"/>
        <pt x="258" y="864" on="0"/>
        <pt x="258" y="739" on="1"/>
        <pt x="258" y="614" on="0"/>
        <pt x="319" y="424" on="0"/>
        <pt x="420" y="287" on="0"/>
        <pt x="550" y="196" on="0"/>
        <pt x="686" y="141" on="0"/>
        <pt x="817" y="119" on="0"/>
        <pt x="870" y="119" on="1"/>
        <pt x="931" y="120" on="0"/>
        <pt x="997" y="128" on="1"/>
        <pt x="1054" y="135" on="0"/>
        <pt x="1191" y="162" on="0"/>
        <pt x="1257" y="188" on="1"/>
        <pt x="1160" y="110" on="0"/>
        <pt x="994" y="28" on="0"/>
        <pt x="931" y="8" on="1"/>
        <pt x="858" y="-15" on="0"/>
        <pt x="797" y="-18" on="1"/>
        <pt x="649" y="-18" on="0"/>
        <pt x="387" y="69" on="0"/>
        <pt x="190" y="234" on="0"/>
        <pt x="76" y="474" on="0"/>
        <pt x="76" y="627" on="1"/>
        <pt x="76" y="722" on="0"/>
        <pt x="112" y="885" on="0"/>
        <pt x="171" y="1021" on="0"/>
        <pt x="245" y="1130" on="0"/>
        <pt x="322" y="1213" on="0"/>
        <pt x="395" y="1269" on="0"/>
        <pt x="422" y="1284" on="1"/>
        <pt x="448" y="1299" on="0"/>
        <pt x="529" y="1337" on="0"/>
        <pt x="626" y="1376" on="0"/>
        <pt x="734" y="1414" on="0"/>
        <pt x="846" y="1444" on="0"/>
        <pt x="953" y="1462" on="0"/>
        <pt x="1001" y="1462" on="1"/>
        <pt x="1108" y="1462" on="0"/>
        <pt x="1240" y="1442" on="0"/>
        <pt x="1309" y="1413" on="0"/>
        <pt x="1326" y="1383" on="0"/>
      </contour>
    </TTGlyph>
    <TTGlyph name="Cacute" xMin="76" yMin="-18" xMax="1326" yMax="1900">
      <component glyphName="C" x="0" y="0" flags="0x204"/>
      <component glyphName="acute" x="686" y="219" flags="0x4"/>
    </TTGlyph>
    <TTGlyph name="Ccaron" xMin="76" yMin="-18" xMax="1326" yMax="1882">
      <component glyphName="C" x="0" y="0" flags="0x204"/>
      <component glyphName="caron" x="479" y="266" flags="0x4"/>
    </TTGlyph>
    <TTGlyph name="Ccedilla" xMin="76" yMin="-434" xMax="1326" yMax="1462">
      <contour>
        <pt x="1319" y="1374" on="1"/>
        <pt x="1301" y="1351" on="0"/>
        <pt x="1275" y="1329" on="1"/>
        <pt x="1253" y="1310" on="0"/>
        <pt x="1188" y="1268" on="0"/>
        <pt x="1145" y="1251" on="1"/>
        <pt x="1159" y="1269" on="0"/>
        <pt x="1136" y="1310" on="0"/>
        <pt x="1058" y="1344" on="0"/>
        <pt x="925" y="1366" on="0"/>
        <pt x="829" y="1366" on="1"/>
        <pt x="773" y="1366" on="0"/>
        <pt x="644" y="1343" on="0"/>
        <pt x="518" y="1287" on="0"/>
        <pt x="401" y="1194" on="0"/>
        <pt x="311" y="1055" on="0"/>
        <pt x="258" y="864" on="0"/>
        <pt x="258" y="739" on="1"/>
        <pt x="258" y="614" on="0"/>
        <pt x="319" y="424" on="0"/>
        <pt x="420" y="287" on="0"/>
        <pt x="550" y="196" on="0"/>
        <pt x="686" y="141" on="0"/>
        <pt x="817" y="119" on="0"/>
        <pt x="870" y="119" on="1"/>
        <pt x="931" y="120" on="0"/>
        <pt x="997" y="128" on="1"/>
        <pt x="1054" y="135" on="0"/>
        <pt x="1191" y="162" on="0"/>
        <pt x="1257" y="188" on="1"/>
        <pt x="1160" y="110" on="0"/>
        <pt x="994" y="28" on="0"/>
        <pt x="931" y="8" on="1"/>
        <pt x="858" y="-15" on="0"/>
        <pt x="797" y="-18" on="1"/>
        <pt x="744" y="-18" on="0"/>
        <pt x="698" y="-12" on="1"/>
        <pt x="602" y="-129" on="1"/>
        <pt x="608" y="-123" on="0"/>
        <pt x="640" y="-117" on="0"/>
        <pt x="651" y="-115" on="1"/>
        <pt x="680" y="-111" on="0"/>
        <pt x="737" y="-117" on="0"/>
        <pt x="782" y="-137" on="0"/>
        <pt x="812" y="-171" on="0"/>
        <pt x="815" y="-195" on="1"/>
        <pt x="820" y="-232" on="0"/>
        <pt x="786" y="-299" on="0"/>
        <pt x="724" y="-355" on="0"/>
        <pt x="642" y="-397" on="0"/>
        <pt x="555" y="-424" on="0"/>
        <pt x="472" y="-434" on="0"/>
        <pt x="440" y="-428" on="1"/>
        <pt x="489" y="-338" on="1"/>
        <pt x="506" y="-350" on="0"/>
        <pt x="546" y="-363" on="0"/>
        <pt x="583" y="-367" on="0"/>
        <pt x="612" y="-365" on="0"/>
        <pt x="618" y="-362" on="1"/>
        <pt x="646" y="-351" on="0"/>
        <pt x="682" y="-324" on="0"/>
        <pt x="676" y="-293" on="1"/>
        <pt x="673" y="-265" on="0"/>
        <pt x="648" y="-231" on="0"/>
        <pt x="612" y="-213" on="0"/>
        <pt x="568" y="-207" on="0"/>
        <pt x="547" y="-207" on="1"/>
        <pt x="527" y="-207" on="0"/>
        <pt x="485" y="-211" on="0"/>
        <pt x="465" y="-217" on="1"/>
        <pt x="504" y="-169" on="0"/>
        <pt x="564" y="-99" on="0"/>
        <pt x="609" y="-49" on="0"/>
        <pt x="642" y="-17" on="0"/>
        <pt x="655" y="-6" on="1"/>
        <pt x="532" y="12" on="0"/>
        <pt x="321" y="114" on="0"/>
        <pt x="165" y="275" on="0"/>
        <pt x="76" y="492" on="0"/>
        <pt x="76" y="627" on="1"/>
        <pt x="76" y="722" on="0"/>
        <pt x="112" y="885" on="0"/>
        <pt x="171" y="1021" on="0"/>
        <pt x="245" y="1130" on="0"/>
        <pt x="322" y="1213" on="0"/>
        <pt x="395" y="1269" on="0"/>
        <pt x="422" y="1284" on="1"/>
        <pt x="448" y="1299" on="0"/>
        <pt x="529" y="1337" on="0"/>
        <pt x="626" y="1376" on="0"/>
        <pt x="734" y="1414" on="0"/>
        <pt x="846" y="1444" on="0"/>
        <pt x="953" y="1462" on="0"/>
        <pt x="1001" y="1462" on="1"/>
        <pt x="1108" y="1462" on="0"/>
        <pt x="1240" y="1442" on="0"/>
        <pt x="1309" y="1413" on="0"/>
        <pt x="1326" y="1383" on="0"/>
      </contour>
    </TTGlyph>
    <TTGlyph name="Ccircumflex" xMin="76" yMin="-18" xMax="1326" yMax="1925">
      <component glyphName="C" x="0" y="0" flags="0x204"/>
      <component glyphName="circumflex" x="504" y="309" flags="0x4"/>
    </TTGlyph>
    <TTGlyph name="Cdotaccent" xMin="76" yMin="-18" xMax="1326" yMax="1757">
      <component glyphName="C" x="0" y="0" flags="0x204"/>
      <component glyphName="dotaccent" x="674" y="264" flags="0x4"/>
    </TTGlyph>
    <TTGlyph name="D" xMin="59" yMin="-2" xMax="1460" yMax="1446">
      <contour>
        <pt x="1460" y="803" on="1"/>
        <pt x="1460" y="679" on="0"/>
        <pt x="1377" y="464" on="0"/>
        <pt x="1236" y="285" on="0"/>
        <pt x="1048" y="146" on="0"/>
        <pt x="837" y="50" on="0"/>
        <pt x="616" y="0" on="0"/>
        <pt x="512" y="0" on="1"/>
        <pt x="502" y="-1" on="0"/>
        <pt x="449" y="-1" on="0"/>
        <pt x="379" y="-2" on="0"/>
        <pt x="297" y="-2" on="0"/>
        <pt x="219" y="-2" on="0"/>
        <pt x="151" y="-1" on="0"/>
        <pt x="129" y="0" on="1"/>
        <pt x="146" y="0" on="0"/>
        <pt x="172" y="18" on="0"/>
        <pt x="191" y="48" on="0"/>
        <pt x="204" y="87" on="0"/>
        <pt x="209" y="107" on="1"/>
        <pt x="219" y="155" on="0"/>
        <pt x="221" y="215" on="1"/>
        <pt x="221" y="289" on="0"/>
        <pt x="223" y="435" on="1"/>
        <pt x="224" y="497" on="0"/>
        <pt x="226" y="666" on="0"/>
        <pt x="230" y="885" on="0"/>
        <pt x="235" y="1159" on="0"/>
        <pt x="238" y="1327" on="1"/>
        <pt x="194" y="1322" on="0"/>
        <pt x="107" y="1317" on="0"/>
        <pt x="59" y="1319" on="1"/>
        <pt x="246" y="1442" on="1"/>
        <pt x="292" y="1436" on="0"/>
        <pt x="390" y="1432" on="0"/>
        <pt x="438" y="1432" on="1"/>
        <pt x="526" y="1432" on="0"/>
        <pt x="675" y="1446" on="0"/>
        <pt x="748" y="1446" on="1"/>
        <pt x="814" y="1446" on="0"/>
        <pt x="971" y="1425" on="0"/>
        <pt x="1129" y="1370" on="0"/>
        <pt x="1277" y="1278" on="0"/>
        <pt x="1391" y="1135" on="0"/>
        <pt x="1460" y="936" on="0"/>
      </contour>
      <contour>
        <pt x="389" y="276" on="1"/>
        <pt x="386" y="245" on="0"/>
        <pt x="376" y="216" on="1"/>
        <pt x="368" y="191" on="0"/>
        <pt x="337" y="135" on="0"/>
        <pt x="311" y="115" on="1"/>
        <pt x="450" y="108" on="0"/>
        <pt x="630" y="104" on="0"/>
        <pt x="684" y="104" on="1"/>
        <pt x="822" y="104" on="0"/>
        <pt x="1042" y="203" on="0"/>
        <pt x="1195" y="372" on="0"/>
        <pt x="1276" y="596" on="0"/>
        <pt x="1276" y="721" on="1"/>
        <pt x="1276" y="844" on="0"/>
        <pt x="1211" y="1035" on="0"/>
        <pt x="1103" y="1178" on="0"/>
        <pt x="965" y="1276" on="0"/>
        <pt x="820" y="1337" on="0"/>
        <pt x="678" y="1364" on="0"/>
        <pt x="621" y="1364" on="1"/>
        <pt x="562" y="1364" on="0"/>
        <pt x="460" y="1356" on="0"/>
        <pt x="412" y="1350" on="1"/>
        <pt x="409" y="1168" on="0"/>
        <pt x="404" y="883" on="0"/>
        <pt x="400" y="664" on="0"/>
        <pt x="396" y="505" on="0"/>
        <pt x="395" y="450" on="1"/>
        <pt x="391" y="321" on="0"/>
      </contour>
    </TTGlyph>
    <TTGlyph name="Dcaron" xMin="59" yMin="-2" xMax="1460" yMax="1903">
      <component glyphName="D" x="0" y="0" flags="0x204"/>
      <component glyphName="caron" x="446" y="287" flags="0x4"/>
    </TTGlyph>
    <TTGlyph name="Dcroat" xMin="-18" yMin="-2" xMax="1464" yMax="1446">
      <contour>
        <pt x="1464" y="803" on="1"/>
        <pt x="1464" y="679" on="0"/>
        <pt x="1381" y="464" on="0"/>
        <pt x="1240" y="285" on="0"/>
        <pt x="1052" y="146" on="0"/>
        <pt x="841" y="50" on="0"/>
        <pt x="620" y="0" on="0"/>
        <pt x="516" y="0" on="1"/>
        <pt x="506" y="-1" on="0"/>
        <pt x="453" y="-1" on="0"/>
        <pt x="383" y="-2" on="0"/>
        <pt x="301" y="-2" on="0"/>
        <pt x="223" y="-2" on="0"/>
        <pt x="155" y="-1" on="0"/>
        <pt x="133" y="0" on="1"/>
        <pt x="150" y="0" on="0"/>
        <pt x="176" y="18" on="0"/>
        <pt x="195" y="48" on="0"/>
        <pt x="208" y="87" on="0"/>
        <pt x="213" y="107" on="1"/>
        <pt x="223" y="155" on="0"/>
        <pt x="225" y="215" on="1"/>
        <pt x="225" y="302" on="1"/>
        <pt x="225" y="350" on="0"/>
        <pt x="227" y="510" on="0"/>
        <pt x="229" y="633" on="1"/>
        <pt x="-18" y="633" on="1"/>
        <pt x="-1" y="636" on="0"/>
        <pt x="34" y="660" on="0"/>
        <pt x="70" y="691" on="0"/>
        <pt x="107" y="727" on="0"/>
        <pt x="145" y="756" on="0"/>
        <pt x="183" y="776" on="0"/>
        <pt x="201" y="776" on="1"/>
        <pt x="231" y="776" on="1"/>
        <pt x="242" y="1327" on="1"/>
        <pt x="198" y="1322" on="0"/>
        <pt x="111" y="1317" on="0"/>
        <pt x="63" y="1319" on="1"/>
        <pt x="250" y="1442" on="1"/>
        <pt x="296" y="1436" on="0"/>
        <pt x="394" y="1432" on="0"/>
        <pt x="442" y="1432" on="1"/>
        <pt x="530" y="1432" on="0"/>
        <pt x="679" y="1446" on="0"/>
        <pt x="752" y="1446" on="1"/>
        <pt x="818" y="1446" on="0"/>
        <pt x="975" y="1425" on="0"/>
        <pt x="1133" y="1370" on="0"/>
        <pt x="1281" y="1278" on="0"/>
        <pt x="1395" y="1135" on="0"/>
        <pt x="1464" y="936" on="0"/>
      </contour>
      <contour>
        <pt x="408" y="776" on="1"/>
        <pt x="795" y="776" on="1"/>
        <pt x="776" y="773" on="0"/>
        <pt x="728" y="728" on="0"/>
        <pt x="672" y="675" on="0"/>
        <pt x="611" y="633" on="0"/>
        <pt x="580" y="633" on="1"/>
        <pt x="403" y="633" on="1"/>
        <pt x="400" y="519" on="0"/>
        <pt x="396" y="381" on="0"/>
        <pt x="395" y="342" on="1"/>
        <pt x="393" y="296" on="0"/>
        <pt x="393" y="276" on="1"/>
        <pt x="390" y="245" on="0"/>
        <pt x="380" y="216" on="1"/>
        <pt x="372" y="191" on="0"/>
        <pt x="341" y="135" on="0"/>
        <pt x="315" y="115" on="1"/>
        <pt x="454" y="108" on="0"/>
        <pt x="634" y="104" on="0"/>
        <pt x="688" y="104" on="1"/>
        <pt x="826" y="104" on="0"/>
        <pt x="1046" y="203" on="0"/>
        <pt x="1199" y="372" on="0"/>
        <pt x="1280" y="596" on="0"/>
        <pt x="1280" y="721" on="1"/>
        <pt x="1280" y="844" on="0"/>
        <pt x="1215" y="1035" on="0"/>
        <pt x="1107" y="1178" on="0"/>
        <pt x="969" y="1276" on="0"/>
        <pt x="824" y="1337" on="0"/>
        <pt x="682" y="1364" on="0"/>
        <pt x="625" y="1364" on="1"/>
        <pt x="566" y="1364" on="0"/>
        <pt x="464" y="1356" on="0"/>
        <pt x="416" y="1350" on="1"/>
      </contour>
    </TTGlyph>
    <TTGlyph name="E" xMin="68" yMin="-25" xMax="1027" yMax="1446">
      <contour>
        <pt x="879" y="784" on="1"/>
        <pt x="870" y="780" on="0"/>
        <pt x="852" y="769" on="1"/>
        <pt x="836" y="759" on="0"/>
        <pt x="777" y="720" on="0"/>
        <pt x="729" y="686" on="1"/>
        <pt x="737" y="701" on="0"/>
        <pt x="720" y="717" on="0"/>
        <pt x="706" y="720" on="1"/>
        <pt x="689" y="724" on="0"/>
        <pt x="666" y="723" on="1"/>
        <pt x="630" y="720" on="0"/>
        <pt x="495" y="712" on="0"/>
        <pt x="410" y="709" on="1"/>
        <pt x="410" y="549" on="0"/>
        <pt x="406" y="348" on="0"/>
        <pt x="405" y="292" on="1"/>
        <pt x="403" y="226" on="0"/>
        <pt x="401" y="195" on="1"/>
        <pt x="399" y="175" on="0"/>
        <pt x="389" y="156" on="1"/>
        <pt x="381" y="139" on="0"/>
        <pt x="346" y="101" on="0"/>
        <pt x="315" y="86" on="1"/>
        <pt x="768" y="86" on="1"/>
        <pt x="800" y="86" on="0"/>
        <pt x="833" y="90" on="1"/>
        <pt x="861" y="93" on="0"/>
        <pt x="925" y="107" on="0"/>
        <pt x="954" y="121" on="1"/>
        <pt x="904" y="74" on="0"/>
        <pt x="806" y="24" on="0"/>
        <pt x="765" y="13" on="1"/>
        <pt x="717" y="0" on="0"/>
        <pt x="674" y="-2" on="1"/>
        <pt x="576" y="-2" on="0"/>
        <pt x="402" y="-4" on="0"/>
        <pt x="262" y="-10" on="0"/>
        <pt x="163" y="-19" on="0"/>
        <pt x="141" y="-25" on="1"/>
        <pt x="172" y="6" on="0"/>
        <pt x="207" y="66" on="0"/>
        <pt x="225" y="140" on="0"/>
        <pt x="230" y="233" on="0"/>
        <pt x="229" y="297" on="1"/>
        <pt x="229" y="707" on="1"/>
        <pt x="200" y="707" on="0"/>
        <pt x="145" y="709" on="0"/>
        <pt x="119" y="711" on="1"/>
        <pt x="229" y="768" on="1"/>
        <pt x="229" y="822" on="0"/>
        <pt x="228" y="941" on="0"/>
        <pt x="228" y="1077" on="0"/>
        <pt x="227" y="1234" on="0"/>
        <pt x="227" y="1327" on="1"/>
        <pt x="182" y="1327" on="0"/>
        <pt x="102" y="1329" on="0"/>
        <pt x="68" y="1331" on="1"/>
        <pt x="254" y="1430" on="1"/>
        <pt x="444" y="1430" on="0"/>
        <pt x="713" y="1435" on="0"/>
        <pt x="801" y="1438" on="1"/>
        <pt x="903" y="1442" on="0"/>
        <pt x="971" y="1446" on="1"/>
        <pt x="1005" y="1446" on="0"/>
        <pt x="1027" y="1435" on="0"/>
        <pt x="1023" y="1422" on="0"/>
        <pt x="1003" y="1408" on="0"/>
        <pt x="995" y="1405" on="1"/>
        <pt x="987" y="1401" on="0"/>
        <pt x="965" y="1388" on="1"/>
        <pt x="946" y="1377" on="0"/>
        <pt x="877" y="1330" on="0"/>
        <pt x="817" y="1290" on="1"/>
        <pt x="837" y="1312" on="0"/>
        <pt x="831" y="1333" on="0"/>
        <pt x="820" y="1338" on="1"/>
        <pt x="807" y="1343" on="0"/>
        <pt x="784" y="1343" on="1"/>
        <pt x="765" y="1341" on="0"/>
        <pt x="689" y="1338" on="0"/>
        <pt x="588" y="1334" on="0"/>
        <pt x="470" y="1330" on="0"/>
        <pt x="408" y="1329" on="1"/>
        <pt x="409" y="1169" on="0"/>
        <pt x="410" y="915" on="0"/>
        <pt x="410" y="809" on="1"/>
        <pt x="512" y="810" on="0"/>
        <pt x="675" y="815" on="0"/>
        <pt x="733" y="818" on="1"/>
        <pt x="801" y="822" on="0"/>
        <pt x="854" y="825" on="1"/>
        <pt x="887" y="826" on="0"/>
        <pt x="909" y="816" on="0"/>
        <pt x="905" y="802" on="0"/>
        <pt x="886" y="787" on="0"/>
      </contour>
    </TTGlyph>
    <TTGlyph name="Eacute" xMin="68" yMin="-25" xMax="1046" yMax="1914">
      <component glyphName="E" x="0" y="0" flags="0x204"/>
      <component glyphName="acute" x="528" y="233" flags="0x4"/>
    </TTGlyph>
    <TTGlyph name="Ebreve" xMin="68" yMin="-25" xMax="1027" yMax="1780">
      <component glyphName="E" x="0" y="0" flags="0x204"/>
      <component glyphName="breve" x="309" y="205" flags="0x4"/>
    </TTGlyph>
    <TTGlyph name="Ecaron" xMin="68" yMin="-25" xMax="1027" yMax="1886">
      <component glyphName="E" x="0" y="0" flags="0x204"/>
      <component glyphName="caron" x="272" y="270" flags="0x4"/>
    </TTGlyph>
    <TTGlyph name="Ecircumflex" xMin="68" yMin="-25" xMax="1027" yMax="1895">
      <component glyphName="E" x="0" y="0" flags="0x204"/>
      <component glyphName="circumflex" x="244" y="279" flags="0x4"/>
    </TTGlyph>
    <TTGlyph name="Edieresis" xMin="68" yMin="-25" xMax="1027" yMax="1710">
      <component glyphName="E" x="0" y="0" flags="0x204"/>
      <component glyphName="dieresis" x="244" y="217" flags="0x4"/>
    </TTGlyph>
    <TTGlyph name="Edotaccent" xMin="68" yMin="-25" xMax="1027" yMax="1729">
      <component glyphName="E" x="0" y="0" flags="0x204"/>
      <component glyphName="dotaccent" x="446" y="236" flags="0x4"/>
    </TTGlyph>
    <TTGlyph name="Egrave" xMin="68" yMin="-25" xMax="1027" yMax="1903">
      <component glyphName="E" x="0" y="0" flags="0x204"/>
      <component glyphName="grave" x="250" y="238" flags="0x4"/>
    </TTGlyph>
    <TTGlyph name="Emacron" xMin="68" yMin="-25" xMax="1027" yMax="1657">
      <component glyphName="E" x="0" y="0" flags="0x204"/>
      <component glyphName="macron" x="256" y="195" flags="0x4"/>
    </TTGlyph>
    <TTGlyph name="Eng" xMin="74" yMin="-643" xMax="1466" yMax="1522">
      <contour>
        <pt x="1343" y="78" on="1"/>
        <pt x="1340" y="-40" on="0"/>
        <pt x="1271" y="-259" on="0"/>
        <pt x="1145" y="-446" on="0"/>
        <pt x="966" y="-595" on="0"/>
        <pt x="854" y="-643" on="1"/>
        <pt x="911" y="-585" on="0"/>
        <pt x="1004" y="-488" on="0"/>
        <pt x="1077" y="-397" on="0"/>
        <pt x="1131" y="-305" on="0"/>
        <pt x="1168" y="-199" on="0"/>
        <pt x="1190" y="-72" on="0"/>
        <pt x="1194" y="8" on="1"/>
        <pt x="1184" y="28" on="0"/>
        <pt x="1158" y="72" on="0"/>
        <pt x="1145" y="89" on="1"/>
        <pt x="1130" y="109" on="0"/>
        <pt x="1114" y="129" on="1"/>
        <pt x="1090" y="156" on="0"/>
        <pt x="998" y="257" on="0"/>
        <pt x="880" y="384" on="0"/>
        <pt x="746" y="524" on="0"/>
        <pt x="618" y="658" on="0"/>
        <pt x="505" y="773" on="0"/>
        <pt x="467" y="811" on="1"/>
        <pt x="444" y="834" on="0"/>
        <pt x="419" y="862" on="1"/>
        <pt x="398" y="886" on="0"/>
        <pt x="346" y="951" on="0"/>
        <pt x="322" y="989" on="1"/>
        <pt x="321" y="904" on="0"/>
        <pt x="318" y="726" on="0"/>
        <pt x="313" y="556" on="0"/>
        <pt x="307" y="402" on="0"/>
        <pt x="300" y="280" on="0"/>
        <pt x="292" y="197" on="0"/>
        <pt x="289" y="184" on="1"/>
        <pt x="287" y="175" on="0"/>
        <pt x="280" y="163" on="1"/>
        <pt x="274" y="152" on="0"/>
        <pt x="252" y="119" on="0"/>
        <pt x="233" y="96" on="1"/>
        <pt x="262" y="90" on="0"/>
        <pt x="321" y="86" on="0"/>
        <pt x="346" y="86" on="1"/>
        <pt x="396" y="86" on="0"/>
        <pt x="459" y="94" on="0"/>
        <pt x="465" y="96" on="1"/>
        <pt x="418" y="74" on="0"/>
        <pt x="356" y="36" on="0"/>
        <pt x="291" y="8" on="0"/>
        <pt x="208" y="-11" on="0"/>
        <pt x="139" y="-14" on="1"/>
        <pt x="142" y="-12" on="0"/>
        <pt x="144" y="-8" on="0"/>
        <pt x="133" y="-14" on="1"/>
        <pt x="119" y="-16" on="0"/>
        <pt x="89" y="-16" on="0"/>
        <pt x="74" y="-16" on="1"/>
        <pt x="166" y="53" on="1"/>
        <pt x="170" y="77" on="0"/>
        <pt x="178" y="138" on="0"/>
        <pt x="184" y="204" on="0"/>
        <pt x="190" y="271" on="0"/>
        <pt x="192" y="303" on="1"/>
        <pt x="197" y="377" on="0"/>
        <pt x="201" y="455" on="1"/>
        <pt x="203" y="565" on="0"/>
        <pt x="206" y="686" on="1"/>
        <pt x="208" y="790" on="0"/>
        <pt x="211" y="1053" on="0"/>
        <pt x="211" y="1190" on="1"/>
        <pt x="211" y="1343" on="1"/>
        <pt x="322" y="1522" on="1"/>
        <pt x="327" y="1450" on="0"/>
        <pt x="362" y="1324" on="0"/>
        <pt x="382" y="1276" on="1"/>
        <pt x="405" y="1220" on="0"/>
        <pt x="432" y="1171" on="1"/>
        <pt x="474" y="1099" on="0"/>
        <pt x="583" y="968" on="0"/>
        <pt x="705" y="842" on="0"/>
        <pt x="834" y="718" on="0"/>
        <pt x="897" y="653" on="1"/>
        <pt x="946" y="602" on="0"/>
        <pt x="1042" y="501" on="0"/>
        <pt x="1129" y="407" on="0"/>
        <pt x="1203" y="321" on="0"/>
        <pt x="1229" y="287" on="1"/>
        <pt x="1233" y="408" on="0"/>
        <pt x="1240" y="584" on="0"/>
        <pt x="1245" y="720" on="0"/>
        <pt x="1249" y="829" on="0"/>
        <pt x="1252" y="935" on="0"/>
        <pt x="1253" y="1051" on="0"/>
        <pt x="1253" y="1126" on="1"/>
        <pt x="1253" y="1171" on="0"/>
        <pt x="1250" y="1241" on="0"/>
        <pt x="1245" y="1296" on="0"/>
        <pt x="1237" y="1338" on="0"/>
        <pt x="1233" y="1356" on="1"/>
        <pt x="1180" y="1356" on="1"/>
        <pt x="1145" y="1356" on="0"/>
        <pt x="1080" y="1353" on="0"/>
        <pt x="1059" y="1343" on="1"/>
        <pt x="1108" y="1378" on="0"/>
        <pt x="1183" y="1422" on="0"/>
        <pt x="1209" y="1434" on="1"/>
        <pt x="1239" y="1448" on="0"/>
        <pt x="1260" y="1454" on="1"/>
        <pt x="1270" y="1456" on="0"/>
        <pt x="1283" y="1458" on="1"/>
        <pt x="1294" y="1460" on="0"/>
        <pt x="1329" y="1462" on="0"/>
        <pt x="1352" y="1462" on="1"/>
        <pt x="1375" y="1462" on="0"/>
        <pt x="1432" y="1459" on="0"/>
        <pt x="1466" y="1454" on="1"/>
        <pt x="1435" y="1434" on="0"/>
        <pt x="1388" y="1408" on="0"/>
        <pt x="1368" y="1397" on="1"/>
      </contour>
      <contour>
        <pt x="139" y="-14" on="1"/>
        <pt x="137" y="-16" on="0"/>
        <pt x="133" y="-16" on="1"/>
        <pt x="133" y="-14" on="1"/>
      </contour>
    </TTGlyph>
    <TTGlyph name="Eogonek" xMin="68" yMin="-399" xMax="1027" yMax="1446">
      <contour>
        <pt x="938" y="-250" on="1"/>
        <pt x="896" y="-291" on="0"/>
        <pt x="827" y="-348" on="0"/>
        <pt x="764" y="-383" on="0"/>
        <pt x="704" y="-399" on="0"/>
        <pt x="672" y="-399" on="1"/>
        <pt x="637" y="-399" on="0"/>
        <pt x="578" y="-373" on="0"/>
        <pt x="536" y="-328" on="0"/>
        <pt x="512" y="-267" on="0"/>
        <pt x="512" y="-233" on="1"/>
        <pt x="512" y="-192" on="0"/>
        <pt x="533" y="-123" on="0"/>
        <pt x="568" y="-66" on="0"/>
        <pt x="616" y="-20" on="0"/>
        <pt x="643" y="-2" on="1"/>
        <pt x="551" y="-2" on="0"/>
        <pt x="387" y="-4" on="0"/>
        <pt x="255" y="-10" on="0"/>
        <pt x="162" y="-19" on="0"/>
        <pt x="141" y="-25" on="1"/>
        <pt x="172" y="6" on="0"/>
        <pt x="207" y="66" on="0"/>
        <pt x="225" y="140" on="0"/>
        <pt x="230" y="233" on="0"/>
        <pt x="229" y="297" on="1"/>
        <pt x="229" y="707" on="1"/>
        <pt x="200" y="707" on="0"/>
        <pt x="145" y="709" on="0"/>
        <pt x="119" y="711" on="1"/>
        <pt x="229" y="768" on="1"/>
        <pt x="229" y="822" on="0"/>
        <pt x="228" y="941" on="0"/>
        <pt x="228" y="1077" on="0"/>
        <pt x="227" y="1234" on="0"/>
        <pt x="227" y="1327" on="1"/>
        <pt x="182" y="1327" on="0"/>
        <pt x="102" y="1329" on="0"/>
        <pt x="68" y="1331" on="1"/>
        <pt x="254" y="1430" on="1"/>
        <pt x="444" y="1430" on="0"/>
        <pt x="713" y="1435" on="0"/>
        <pt x="801" y="1438" on="1"/>
        <pt x="903" y="1442" on="0"/>
        <pt x="971" y="1446" on="1"/>
        <pt x="1005" y="1446" on="0"/>
        <pt x="1027" y="1435" on="0"/>
        <pt x="1023" y="1422" on="0"/>
        <pt x="1003" y="1408" on="0"/>
        <pt x="995" y="1405" on="1"/>
        <pt x="987" y="1401" on="0"/>
        <pt x="965" y="1388" on="1"/>
        <pt x="946" y="1377" on="0"/>
        <pt x="877" y="1330" on="0"/>
        <pt x="817" y="1290" on="1"/>
        <pt x="837" y="1312" on="0"/>
        <pt x="831" y="1333" on="0"/>
        <pt x="820" y="1338" on="1"/>
        <pt x="807" y="1343" on="0"/>
        <pt x="784" y="1343" on="1"/>
        <pt x="765" y="1341" on="0"/>
        <pt x="689" y="1338" on="0"/>
        <pt x="588" y="1334" on="0"/>
        <pt x="470" y="1330" on="0"/>
        <pt x="408" y="1329" on="1"/>
        <pt x="409" y="1169" on="0"/>
        <pt x="410" y="915" on="0"/>
        <pt x="410" y="809" on="1"/>
        <pt x="512" y="810" on="0"/>
        <pt x="675" y="815" on="0"/>
        <pt x="733" y="818" on="1"/>
        <pt x="801" y="822" on="0"/>
        <pt x="854" y="825" on="1"/>
        <pt x="887" y="826" on="0"/>
        <pt x="909" y="816" on="0"/>
        <pt x="905" y="802" on="0"/>
        <pt x="886" y="787" on="0"/>
        <pt x="879" y="784" on="1"/>
        <pt x="870" y="780" on="0"/>
        <pt x="852" y="769" on="1"/>
        <pt x="836" y="759" on="0"/>
        <pt x="777" y="720" on="0"/>
        <pt x="729" y="686" on="1"/>
        <pt x="737" y="701" on="0"/>
        <pt x="720" y="717" on="0"/>
        <pt x="706" y="720" on="1"/>
        <pt x="689" y="724" on="0"/>
        <pt x="666" y="723" on="1"/>
        <pt x="630" y="720" on="0"/>
        <pt x="495" y="712" on="0"/>
        <pt x="410" y="709" on="1"/>
        <pt x="410" y="549" on="0"/>
        <pt x="406" y="348" on="0"/>
        <pt x="405" y="292" on="1"/>
        <pt x="403" y="226" on="0"/>
        <pt x="401" y="195" on="1"/>
        <pt x="399" y="175" on="0"/>
        <pt x="389" y="156" on="1"/>
        <pt x="381" y="139" on="0"/>
        <pt x="346" y="101" on="0"/>
        <pt x="315" y="86" on="1"/>
        <pt x="768" y="86" on="1"/>
        <pt x="800" y="86" on="0"/>
        <pt x="833" y="90" on="1"/>
        <pt x="861" y="93" on="0"/>
        <pt x="925" y="107" on="0"/>
        <pt x="954" y="121" on="1"/>
        <pt x="915" y="84" on="0"/>
        <pt x="837" y="38" on="0"/>
        <pt x="767" y="11" on="0"/>
        <pt x="711" y="1" on="0"/>
        <pt x="694" y="0" on="1"/>
        <pt x="670" y="-34" on="0"/>
        <pt x="637" y="-110" on="0"/>
        <pt x="637" y="-152" on="1"/>
        <pt x="637" y="-223" on="0"/>
        <pt x="711" y="-299" on="0"/>
        <pt x="782" y="-299" on="1"/>
        <pt x="806" y="-299" on="0"/>
        <pt x="842" y="-296" on="0"/>
        <pt x="876" y="-286" on="0"/>
        <pt x="913" y="-267" on="0"/>
      </contour>
    </TTGlyph>
    <TTGlyph name="Eth" xMin="-18" yMin="-2" xMax="1464" yMax="1446">
      <contour>
        <pt x="1464" y="803" on="1"/>
        <pt x="1464" y="679" on="0"/>
        <pt x="1381" y="464" on="0"/>
        <pt x="1240" y="285" on="0"/>
        <pt x="1052" y="146" on="0"/>
        <pt x="841" y="50" on="0"/>
        <pt x="620" y="0" on="0"/>
        <pt x="516" y="0" on="1"/>
        <pt x="506" y="-1" on="0"/>
        <pt x="453" y="-1" on="0"/>
        <pt x="383" y="-2" on="0"/>
        <pt x="301" y="-2" on="0"/>
        <pt x="223" y="-2" on="0"/>
        <pt x="155" y="-1" on="0"/>
        <pt x="133" y="0" on="1"/>
        <pt x="150" y="0" on="0"/>
        <pt x="176" y="18" on="0"/>
        <pt x="195" y="48" on="0"/>
        <pt x="208" y="87" on="0"/>
        <pt x="213" y="107" on="1"/>
        <pt x="223" y="155" on="0"/>
        <pt x="225" y="215" on="1"/>
        <pt x="225" y="302" on="1"/>
        <pt x="225" y="350" on="0"/>
        <pt x="227" y="510" on="0"/>
        <pt x="229" y="633" on="1"/>
        <pt x="-18" y="633" on="1"/>
        <pt x="-1" y="636" on="0"/>
        <pt x="34" y="660" on="0"/>
        <pt x="70" y="691" on="0"/>
        <pt x="107" y="727" on="0"/>
        <pt x="145" y="756" on="0"/>
        <pt x="183" y="776" on="0"/>
        <pt x="201" y="776" on="1"/>
        <pt x="231" y="776" on="1"/>
        <pt x="242" y="1327" on="1"/>
        <pt x="198" y="1322" on="0"/>
        <pt x="111" y="1317" on="0"/>
        <pt x="63" y="1319" on="1"/>
        <pt x="250" y="1442" on="1"/>
        <pt x="296" y="1436" on="0"/>
        <pt x="394" y="1432" on="0"/>
        <pt x="442" y="1432" on="1"/>
        <pt x="530" y="1432" on="0"/>
        <pt x="679" y="1446" on="0"/>
        <pt x="752" y="1446" on="1"/>
        <pt x="818" y="1446" on="0"/>
        <pt x="975" y="1425" on="0"/>
        <pt x="1133" y="1370" on="0"/>
        <pt x="1281" y="1278" on="0"/>
        <pt x="1395" y="1135" on="0"/>
        <pt x="1464" y="936" on="0"/>
      </contour>
      <contour>
        <pt x="408" y="776" on="1"/>
        <pt x="795" y="776" on="1"/>
        <pt x="776" y="773" on="0"/>
        <pt x="728" y="728" on="0"/>
        <pt x="672" y="675" on="0"/>
        <pt x="611" y="633" on="0"/>
        <pt x="580" y="633" on="1"/>
        <pt x="403" y="633" on="1"/>
        <pt x="400" y="519" on="0"/>
        <pt x="396" y="381" on="0"/>
        <pt x="395" y="342" on="1"/>
        <pt x="393" y="296" on="0"/>
        <pt x="393" y="276" on="1"/>
        <pt x="390" y="245" on="0"/>
        <pt x="380" y="216" on="1"/>
        <pt x="372" y="191" on="0"/>
        <pt x="341" y="135" on="0"/>
        <pt x="315" y="115" on="1"/>
        <pt x="454" y="108" on="0"/>
        <pt x="634" y="104" on="0"/>
        <pt x="688" y="104" on="1"/>
        <pt x="826" y="104" on="0"/>
        <pt x="1046" y="203" on="0"/>
        <pt x="1199" y="372" on="0"/>
        <pt x="1280" y="596" on="0"/>
        <pt x="1280" y="721" on="1"/>
        <pt x="1280" y="844" on="0"/>
        <pt x="1215" y="1035" on="0"/>
        <pt x="1107" y="1178" on="0"/>
        <pt x="969" y="1276" on="0"/>
        <pt x="824" y="1337" on="0"/>
        <pt x="682" y="1364" on="0"/>
        <pt x="625" y="1364" on="1"/>
        <pt x="566" y="1364" on="0"/>
        <pt x="464" y="1356" on="0"/>
        <pt x="416" y="1350" on="1"/>
      </contour>
    </TTGlyph>
    <TTGlyph name="Euro" xMin="53" yMin="-18" xMax="1527" yMax="1462">
      <contour>
        <pt x="842" y="922" on="1"/>
        <pt x="780" y="873" on="0"/>
        <pt x="667" y="809" on="0"/>
        <pt x="569" y="770" on="0"/>
        <pt x="488" y="752" on="0"/>
        <pt x="459" y="748" on="1"/>
        <pt x="459" y="739" on="1"/>
        <pt x="459" y="701" on="0"/>
        <pt x="464" y="630" on="0"/>
        <pt x="469" y="598" on="1"/>
        <pt x="549" y="600" on="0"/>
        <pt x="688" y="631" on="0"/>
        <pt x="754" y="655" on="1"/>
        <pt x="679" y="597" on="0"/>
        <pt x="549" y="529" on="0"/>
        <pt x="492" y="510" on="1"/>
        <pt x="517" y="432" on="0"/>
        <pt x="598" y="314" on="0"/>
        <pt x="698" y="227" on="0"/>
        <pt x="810" y="169" on="0"/>
        <pt x="922" y="134" on="0"/>
        <pt x="1027" y="119" on="0"/>
        <pt x="1071" y="119" on="1"/>
        <pt x="1132" y="120" on="0"/>
        <pt x="1198" y="128" on="1"/>
        <pt x="1255" y="135" on="0"/>
        <pt x="1392" y="162" on="0"/>
        <pt x="1458" y="188" on="1"/>
        <pt x="1361" y="110" on="0"/>
        <pt x="1194" y="28" on="0"/>
        <pt x="1131" y="8" on="1"/>
        <pt x="1058" y="-15" on="0"/>
        <pt x="997" y="-18" on="1"/>
        <pt x="868" y="-18" on="0"/>
        <pt x="635" y="48" on="0"/>
        <pt x="447" y="175" on="0"/>
        <pt x="317" y="360" on="0"/>
        <pt x="291" y="479" on="1"/>
        <pt x="274" y="480" on="0"/>
        <pt x="210" y="480" on="0"/>
        <pt x="140" y="474" on="0"/>
        <pt x="73" y="460" on="0"/>
        <pt x="53" y="446" on="1"/>
        <pt x="144" y="524" on="0"/>
        <pt x="254" y="650" on="0"/>
        <pt x="279" y="684" on="1"/>
        <pt x="279" y="715" on="0"/>
        <pt x="285" y="745" on="1"/>
        <pt x="244" y="742" on="0"/>
        <pt x="164" y="728" on="0"/>
        <pt x="141" y="713" on="1"/>
        <pt x="201" y="764" on="0"/>
        <pt x="286" y="852" on="0"/>
        <pt x="317" y="889" on="1"/>
        <pt x="345" y="971" on="0"/>
        <pt x="424" y="1102" on="0"/>
        <pt x="510" y="1201" on="0"/>
        <pt x="592" y="1267" on="0"/>
        <pt x="623" y="1284" on="1"/>
        <pt x="649" y="1299" on="0"/>
        <pt x="730" y="1337" on="0"/>
        <pt x="826" y="1376" on="0"/>
        <pt x="935" y="1414" on="0"/>
        <pt x="1047" y="1444" on="0"/>
        <pt x="1154" y="1462" on="0"/>
        <pt x="1202" y="1462" on="1"/>
        <pt x="1309" y="1462" on="0"/>
        <pt x="1441" y="1442" on="0"/>
        <pt x="1510" y="1413" on="0"/>
        <pt x="1527" y="1383" on="0"/>
        <pt x="1520" y="1374" on="1"/>
        <pt x="1502" y="1351" on="0"/>
        <pt x="1476" y="1329" on="1"/>
        <pt x="1454" y="1310" on="0"/>
        <pt x="1389" y="1268" on="0"/>
        <pt x="1346" y="1251" on="1"/>
        <pt x="1359" y="1269" on="0"/>
        <pt x="1336" y="1310" on="0"/>
        <pt x="1259" y="1344" on="0"/>
        <pt x="1126" y="1366" on="0"/>
        <pt x="1030" y="1366" on="1"/>
        <pt x="979" y="1366" on="0"/>
        <pt x="863" y="1347" on="0"/>
        <pt x="747" y="1302" on="0"/>
        <pt x="636" y="1227" on="0"/>
        <pt x="545" y="1116" on="0"/>
        <pt x="480" y="965" on="0"/>
        <pt x="467" y="866" on="1"/>
        <pt x="486" y="864" on="0"/>
        <pt x="521" y="864" on="0"/>
        <pt x="537" y="864" on="1"/>
        <pt x="623" y="864" on="0"/>
        <pt x="773" y="896" on="0"/>
      </contour>
    </TTGlyph>
    <TTGlyph name="F" xMin="68" yMin="-25" xMax="1027" yMax="1446">
      <contour>
        <pt x="844" y="752" on="1"/>
        <pt x="836" y="747" on="0"/>
        <pt x="818" y="736" on="1"/>
        <pt x="802" y="725" on="0"/>
        <pt x="744" y="687" on="0"/>
        <pt x="696" y="653" on="1"/>
        <pt x="704" y="668" on="0"/>
        <pt x="687" y="684" on="0"/>
        <pt x="673" y="687" on="1"/>
        <pt x="656" y="691" on="0"/>
        <pt x="633" y="690" on="1"/>
        <pt x="598" y="687" on="0"/>
        <pt x="482" y="679" on="0"/>
        <pt x="410" y="676" on="1"/>
        <pt x="409" y="528" on="0"/>
        <pt x="406" y="341" on="0"/>
        <pt x="405" y="288" on="1"/>
        <pt x="403" y="226" on="0"/>
        <pt x="401" y="195" on="1"/>
        <pt x="399" y="175" on="0"/>
        <pt x="389" y="156" on="1"/>
        <pt x="381" y="139" on="0"/>
        <pt x="346" y="101" on="0"/>
        <pt x="315" y="86" on="1"/>
        <pt x="376" y="86" on="0"/>
        <pt x="436" y="90" on="1"/>
        <pt x="487" y="93" on="0"/>
        <pt x="602" y="107" on="0"/>
        <pt x="649" y="121" on="1"/>
        <pt x="602" y="79" on="0"/>
        <pt x="505" y="29" on="0"/>
        <pt x="408" y="1" on="0"/>
        <pt x="315" y="-11" on="0"/>
        <pt x="234" y="-15" on="0"/>
        <pt x="165" y="-19" on="0"/>
        <pt x="141" y="-25" on="1"/>
        <pt x="172" y="6" on="0"/>
        <pt x="207" y="66" on="0"/>
        <pt x="225" y="140" on="0"/>
        <pt x="230" y="233" on="0"/>
        <pt x="229" y="297" on="1"/>
        <pt x="229" y="674" on="1"/>
        <pt x="202" y="674" on="0"/>
        <pt x="147" y="676" on="0"/>
        <pt x="119" y="678" on="1"/>
        <pt x="229" y="735" on="1"/>
        <pt x="229" y="790" on="0"/>
        <pt x="228" y="915" on="0"/>
        <pt x="228" y="1060" on="0"/>
        <pt x="227" y="1228" on="0"/>
        <pt x="227" y="1327" on="1"/>
        <pt x="182" y="1327" on="0"/>
        <pt x="102" y="1329" on="0"/>
        <pt x="68" y="1331" on="1"/>
        <pt x="254" y="1430" on="1"/>
        <pt x="444" y="1430" on="0"/>
        <pt x="713" y="1435" on="0"/>
        <pt x="801" y="1438" on="1"/>
        <pt x="903" y="1442" on="0"/>
        <pt x="971" y="1446" on="1"/>
        <pt x="1005" y="1446" on="0"/>
        <pt x="1027" y="1435" on="0"/>
        <pt x="1023" y="1422" on="0"/>
        <pt x="1003" y="1408" on="0"/>
        <pt x="995" y="1405" on="1"/>
        <pt x="987" y="1401" on="0"/>
        <pt x="965" y="1388" on="1"/>
        <pt x="946" y="1377" on="0"/>
        <pt x="877" y="1330" on="0"/>
        <pt x="817" y="1290" on="1"/>
        <pt x="837" y="1312" on="0"/>
        <pt x="831" y="1333" on="0"/>
        <pt x="820" y="1338" on="1"/>
        <pt x="807" y="1343" on="0"/>
        <pt x="784" y="1343" on="1"/>
        <pt x="765" y="1341" on="0"/>
        <pt x="689" y="1338" on="0"/>
        <pt x="588" y="1334" on="0"/>
        <pt x="470" y="1330" on="0"/>
        <pt x="408" y="1329" on="1"/>
        <pt x="410" y="1156" on="0"/>
        <pt x="410" y="886" on="0"/>
        <pt x="410" y="774" on="1"/>
        <pt x="501" y="775" on="0"/>
        <pt x="651" y="780" on="0"/>
        <pt x="705" y="783" on="1"/>
        <pt x="768" y="787" on="0"/>
        <pt x="819" y="791" on="1"/>
        <pt x="853" y="792" on="0"/>
        <pt x="875" y="783" on="0"/>
        <pt x="871" y="769" on="0"/>
        <pt x="851" y="755" on="0"/>
      </contour>
    </TTGlyph>
    <TTGlyph name="G" xMin="76" yMin="-18" xMax="1452" yMax="1462">
      <contour>
        <pt x="1319" y="1374" on="1"/>
        <pt x="1301" y="1351" on="0"/>
        <pt x="1275" y="1329" on="1"/>
        <pt x="1253" y="1310" on="0"/>
        <pt x="1188" y="1268" on="0"/>
        <pt x="1145" y="1251" on="1"/>
        <pt x="1159" y="1269" on="0"/>
        <pt x="1136" y="1310" on="0"/>
        <pt x="1058" y="1344" on="0"/>
        <pt x="925" y="1366" on="0"/>
        <pt x="829" y="1366" on="1"/>
        <pt x="773" y="1366" on="0"/>
        <pt x="644" y="1343" on="0"/>
        <pt x="518" y="1287" on="0"/>
        <pt x="401" y="1194" on="0"/>
        <pt x="311" y="1055" on="0"/>
        <pt x="258" y="864" on="0"/>
        <pt x="258" y="739" on="1"/>
        <pt x="258" y="614" on="0"/>
        <pt x="319" y="424" on="0"/>
        <pt x="420" y="287" on="0"/>
        <pt x="550" y="196" on="0"/>
        <pt x="686" y="141" on="0"/>
        <pt x="817" y="119" on="0"/>
        <pt x="870" y="119" on="1"/>
        <pt x="910" y="119" on="0"/>
        <pt x="956" y="123" on="1"/>
        <pt x="995" y="126" on="0"/>
        <pt x="1095" y="140" on="0"/>
        <pt x="1149" y="154" on="1"/>
        <pt x="1163" y="169" on="0"/>
        <pt x="1179" y="202" on="0"/>
        <pt x="1184" y="216" on="1"/>
        <pt x="1189" y="232" on="0"/>
        <pt x="1192" y="248" on="1"/>
        <pt x="1198" y="351" on="0"/>
        <pt x="1196" y="553" on="0"/>
        <pt x="1196" y="655" on="1"/>
        <pt x="1168" y="658" on="0"/>
        <pt x="1104" y="664" on="0"/>
        <pt x="1073" y="664" on="1"/>
        <pt x="1048" y="664" on="0"/>
        <pt x="1007" y="660" on="0"/>
        <pt x="991" y="653" on="1"/>
        <pt x="1048" y="688" on="0"/>
        <pt x="1128" y="727" on="0"/>
        <pt x="1154" y="738" on="1"/>
        <pt x="1184" y="750" on="0"/>
        <pt x="1204" y="754" on="1"/>
        <pt x="1226" y="757" on="0"/>
        <pt x="1291" y="761" on="0"/>
        <pt x="1360" y="764" on="0"/>
        <pt x="1427" y="769" on="0"/>
        <pt x="1452" y="774" on="1"/>
        <pt x="1382" y="725" on="1"/>
        <pt x="1380" y="621" on="0"/>
        <pt x="1375" y="482" on="0"/>
        <pt x="1373" y="440" on="1"/>
        <pt x="1370" y="391" on="0"/>
        <pt x="1368" y="362" on="1"/>
        <pt x="1367" y="329" on="0"/>
        <pt x="1346" y="269" on="0"/>
        <pt x="1301" y="212" on="0"/>
        <pt x="1228" y="156" on="0"/>
        <pt x="1176" y="127" on="1"/>
        <pt x="1095" y="73" on="0"/>
        <pt x="957" y="15" on="0"/>
        <pt x="906" y="1" on="1"/>
        <pt x="846" y="-15" on="0"/>
        <pt x="797" y="-18" on="1"/>
        <pt x="649" y="-18" on="0"/>
        <pt x="387" y="69" on="0"/>
        <pt x="190" y="234" on="0"/>
        <pt x="76" y="474" on="0"/>
        <pt x="76" y="627" on="1"/>
        <pt x="76" y="722" on="0"/>
        <pt x="112" y="885" on="0"/>
        <pt x="171" y="1021" on="0"/>
        <pt x="245" y="1130" on="0"/>
        <pt x="322" y="1213" on="0"/>
        <pt x="395" y="1269" on="0"/>
        <pt x="422" y="1284" on="1"/>
        <pt x="448" y="1299" on="0"/>
        <pt x="529" y="1337" on="0"/>
        <pt x="626" y="1376" on="0"/>
        <pt x="734" y="1414" on="0"/>
        <pt x="846" y="1444" on="0"/>
        <pt x="953" y="1462" on="0"/>
        <pt x="1001" y="1462" on="1"/>
        <pt x="1108" y="1462" on="0"/>
        <pt x="1240" y="1442" on="0"/>
        <pt x="1309" y="1413" on="0"/>
        <pt x="1326" y="1383" on="0"/>
      </contour>
    </TTGlyph>
    <TTGlyph name="Gbreve" xMin="76" yMin="-18" xMax="1452" yMax="1800">
      <component glyphName="G" x="0" y="0" flags="0x204"/>
      <component glyphName="breve" x="524" y="225" flags="0x4"/>
    </TTGlyph>
    <TTGlyph name="Gcircumflex" xMin="76" yMin="-18" xMax="1452" yMax="1925">
      <component glyphName="G" x="0" y="0" flags="0x204"/>
      <component glyphName="circumflex" x="510" y="309" flags="0x4"/>
    </TTGlyph>
    <TTGlyph name="Gcommaaccent" xMin="76" yMin="-489" xMax="1452" yMax="1462">
      <component glyphName="G" x="0" y="0" flags="0x204"/>
      <component glyphName="uni0326" x="555" y="76" flags="0x4"/>
    </TTGlyph>
    <TTGlyph name="Gdotaccent" xMin="76" yMin="-18" xMax="1452" yMax="1743">
      <component glyphName="G" x="0" y="0" flags="0x204"/>
      <component glyphName="dotaccent" x="686" y="250" flags="0x4"/>
    </TTGlyph>
    <TTGlyph name="H" xMin="61" yMin="0" xMax="1516" yMax="1489">
      <contour>
        <pt x="578" y="1489" on="1"/>
        <pt x="531" y="1458" on="0"/>
        <pt x="456" y="1417" on="0"/>
        <pt x="422" y="1403" on="1"/>
        <pt x="420" y="1317" on="0"/>
        <pt x="416" y="1170" on="0"/>
        <pt x="413" y="1040" on="0"/>
        <pt x="411" y="924" on="0"/>
        <pt x="410" y="870" on="1"/>
        <pt x="463" y="881" on="0"/>
        <pt x="520" y="881" on="1"/>
        <pt x="575" y="881" on="0"/>
        <pt x="720" y="878" on="0"/>
        <pt x="876" y="873" on="0"/>
        <pt x="1034" y="870" on="0"/>
        <pt x="1102" y="870" on="1"/>
        <pt x="1149" y="870" on="1"/>
        <pt x="1149" y="1368" on="1"/>
        <pt x="1118" y="1365" on="0"/>
        <pt x="1029" y="1356" on="0"/>
        <pt x="973" y="1348" on="1"/>
        <pt x="1027" y="1392" on="0"/>
        <pt x="1113" y="1437" on="0"/>
        <pt x="1144" y="1448" on="1"/>
        <pt x="1180" y="1460" on="0"/>
        <pt x="1208" y="1462" on="1"/>
        <pt x="1244" y="1462" on="0"/>
        <pt x="1328" y="1466" on="0"/>
        <pt x="1408" y="1473" on="0"/>
        <pt x="1473" y="1483" on="0"/>
        <pt x="1489" y="1489" on="1"/>
        <pt x="1442" y="1458" on="0"/>
        <pt x="1367" y="1417" on="0"/>
        <pt x="1333" y="1403" on="1"/>
        <pt x="1328" y="1221" on="0"/>
        <pt x="1322" y="935" on="0"/>
        <pt x="1317" y="714" on="0"/>
        <pt x="1314" y="552" on="0"/>
        <pt x="1313" y="495" on="1"/>
        <pt x="1310" y="361" on="0"/>
        <pt x="1311" y="313" on="1"/>
        <pt x="1310" y="276" on="0"/>
        <pt x="1301" y="240" on="1"/>
        <pt x="1293" y="209" on="0"/>
        <pt x="1261" y="138" on="0"/>
        <pt x="1231" y="109" on="1"/>
        <pt x="1249" y="107" on="0"/>
        <pt x="1283" y="106" on="0"/>
        <pt x="1300" y="106" on="1"/>
        <pt x="1347" y="106" on="0"/>
        <pt x="1422" y="115" on="0"/>
        <pt x="1477" y="125" on="0"/>
        <pt x="1509" y="135" on="0"/>
        <pt x="1513" y="137" on="1"/>
        <pt x="1460" y="101" on="0"/>
        <pt x="1390" y="49" on="0"/>
        <pt x="1334" y="16" on="0"/>
        <pt x="1281" y="0" on="0"/>
        <pt x="1245" y="0" on="1"/>
        <pt x="1197" y="0" on="0"/>
        <pt x="1130" y="8" on="0"/>
        <pt x="1096" y="8" on="1"/>
        <pt x="1079" y="8" on="0"/>
        <pt x="1044" y="5" on="0"/>
        <pt x="1022" y="0" on="1"/>
        <pt x="1054" y="15" on="0"/>
        <pt x="1102" y="48" on="0"/>
        <pt x="1133" y="107" on="0"/>
        <pt x="1149" y="204" on="0"/>
        <pt x="1149" y="285" on="1"/>
        <pt x="1149" y="805" on="1"/>
        <pt x="1120" y="799" on="0"/>
        <pt x="1048" y="791" on="0"/>
        <pt x="1001" y="791" on="1"/>
        <pt x="936" y="791" on="0"/>
        <pt x="762" y="799" on="0"/>
        <pt x="659" y="799" on="1"/>
        <pt x="598" y="799" on="0"/>
        <pt x="473" y="793" on="0"/>
        <pt x="408" y="786" on="1"/>
        <pt x="404" y="639" on="0"/>
        <pt x="401" y="455" on="0"/>
        <pt x="400" y="403" on="1"/>
        <pt x="399" y="342" on="0"/>
        <pt x="399" y="313" on="1"/>
        <pt x="398" y="276" on="0"/>
        <pt x="389" y="240" on="1"/>
        <pt x="381" y="209" on="0"/>
        <pt x="349" y="138" on="0"/>
        <pt x="319" y="109" on="1"/>
        <pt x="338" y="107" on="0"/>
        <pt x="372" y="106" on="0"/>
        <pt x="389" y="106" on="1"/>
        <pt x="436" y="106" on="0"/>
        <pt x="511" y="115" on="0"/>
        <pt x="566" y="125" on="0"/>
        <pt x="598" y="135" on="0"/>
        <pt x="602" y="137" on="1"/>
        <pt x="549" y="101" on="0"/>
        <pt x="479" y="49" on="0"/>
        <pt x="423" y="16" on="0"/>
        <pt x="370" y="0" on="0"/>
        <pt x="334" y="0" on="1"/>
        <pt x="286" y="0" on="0"/>
        <pt x="218" y="8" on="0"/>
        <pt x="184" y="8" on="1"/>
        <pt x="167" y="8" on="0"/>
        <pt x="132" y="5" on="0"/>
        <pt x="111" y="0" on="1"/>
        <pt x="139" y="24" on="0"/>
        <pt x="185" y="81" on="0"/>
        <pt x="218" y="163" on="0"/>
        <pt x="236" y="277" on="0"/>
        <pt x="236" y="358" on="1"/>
        <pt x="236" y="756" on="1"/>
        <pt x="213" y="751" on="0"/>
        <pt x="169" y="739" on="0"/>
        <pt x="147" y="731" on="1"/>
        <pt x="169" y="751" on="0"/>
        <pt x="213" y="785" on="0"/>
        <pt x="236" y="801" on="1"/>
        <pt x="236" y="1368" on="1"/>
        <pt x="205" y="1365" on="0"/>
        <pt x="117" y="1356" on="0"/>
        <pt x="61" y="1348" on="1"/>
        <pt x="115" y="1392" on="0"/>
        <pt x="202" y="1437" on="0"/>
        <pt x="233" y="1448" on="1"/>
        <pt x="269" y="1460" on="0"/>
        <pt x="297" y="1462" on="1"/>
        <pt x="332" y="1462" on="0"/>
        <pt x="417" y="1466" on="0"/>
        <pt x="496" y="1473" on="0"/>
        <pt x="562" y="1483" on="0"/>
      </contour>
      <contour>
        <pt x="602" y="137" on="1"/>
        <pt x="602" y="138" on="1"/>
        <pt x="603" y="139" on="0"/>
        <pt x="604" y="139" on="1"/>
      </contour>
      <contour>
        <pt x="1513" y="137" on="1"/>
        <pt x="1513" y="138" on="1"/>
        <pt x="1514" y="138" on="1"/>
        <pt x="1515" y="139" on="0"/>
        <pt x="1516" y="139" on="1"/>
      </contour>
    </TTGlyph>
    <TTGlyph name="Hbar" xMin="35" yMin="0" xMax="1516" yMax="1489">
      <contour>
        <pt x="578" y="1489" on="1"/>
        <pt x="531" y="1458" on="0"/>
        <pt x="456" y="1417" on="0"/>
        <pt x="422" y="1403" on="1"/>
        <pt x="420" y="1317" on="0"/>
        <pt x="416" y="1170" on="0"/>
        <pt x="413" y="1040" on="0"/>
        <pt x="411" y="924" on="0"/>
        <pt x="410" y="870" on="1"/>
        <pt x="463" y="881" on="0"/>
        <pt x="520" y="881" on="1"/>
        <pt x="575" y="881" on="0"/>
        <pt x="720" y="878" on="0"/>
        <pt x="876" y="873" on="0"/>
        <pt x="1034" y="870" on="0"/>
        <pt x="1102" y="870" on="1"/>
        <pt x="1149" y="870" on="1"/>
        <pt x="1149" y="1368" on="1"/>
        <pt x="1118" y="1365" on="0"/>
        <pt x="1029" y="1356" on="0"/>
        <pt x="973" y="1348" on="1"/>
        <pt x="1027" y="1392" on="0"/>
        <pt x="1113" y="1437" on="0"/>
        <pt x="1144" y="1448" on="1"/>
        <pt x="1180" y="1460" on="0"/>
        <pt x="1208" y="1462" on="1"/>
        <pt x="1244" y="1462" on="0"/>
        <pt x="1328" y="1466" on="0"/>
        <pt x="1408" y="1473" on="0"/>
        <pt x="1473" y="1483" on="0"/>
        <pt x="1489" y="1489" on="1"/>
        <pt x="1442" y="1458" on="0"/>
        <pt x="1367" y="1417" on="0"/>
        <pt x="1333" y="1403" on="1"/>
        <pt x="1329" y="1261" on="0"/>
        <pt x="1323" y="1028" on="0"/>
        <pt x="1319" y="838" on="0"/>
        <pt x="1316" y="687" on="0"/>
        <pt x="1315" y="627" on="1"/>
        <pt x="1507" y="627" on="1"/>
        <pt x="1488" y="625" on="0"/>
        <pt x="1454" y="600" on="0"/>
        <pt x="1417" y="571" on="0"/>
        <pt x="1372" y="547" on="0"/>
        <pt x="1341" y="547" on="1"/>
        <pt x="1313" y="547" on="1"/>
        <pt x="1312" y="477" on="0"/>
        <pt x="1311" y="387" on="0"/>
        <pt x="1311" y="361" on="1"/>
        <pt x="1311" y="313" on="1"/>
        <pt x="1310" y="276" on="0"/>
        <pt x="1301" y="240" on="1"/>
        <pt x="1293" y="209" on="0"/>
        <pt x="1261" y="138" on="0"/>
        <pt x="1231" y="109" on="1"/>
        <pt x="1249" y="107" on="0"/>
        <pt x="1283" y="106" on="0"/>
        <pt x="1300" y="106" on="1"/>
        <pt x="1347" y="106" on="0"/>
        <pt x="1422" y="115" on="0"/>
        <pt x="1477" y="125" on="0"/>
        <pt x="1509" y="135" on="0"/>
        <pt x="1513" y="137" on="1"/>
        <pt x="1460" y="101" on="0"/>
        <pt x="1390" y="49" on="0"/>
        <pt x="1334" y="16" on="0"/>
        <pt x="1281" y="0" on="0"/>
        <pt x="1245" y="0" on="1"/>
        <pt x="1197" y="0" on="0"/>
        <pt x="1130" y="8" on="0"/>
        <pt x="1096" y="8" on="1"/>
        <pt x="1079" y="8" on="0"/>
        <pt x="1044" y="5" on="0"/>
        <pt x="1022" y="0" on="1"/>
        <pt x="1054" y="15" on="0"/>
        <pt x="1102" y="48" on="0"/>
        <pt x="1133" y="107" on="0"/>
        <pt x="1149" y="204" on="0"/>
        <pt x="1149" y="285" on="1"/>
        <pt x="1149" y="547" on="1"/>
        <pt x="401" y="547" on="1"/>
        <pt x="400" y="477" on="0"/>
        <pt x="399" y="387" on="0"/>
        <pt x="399" y="361" on="1"/>
        <pt x="399" y="313" on="1"/>
        <pt x="398" y="276" on="0"/>
        <pt x="389" y="240" on="1"/>
        <pt x="381" y="209" on="0"/>
        <pt x="349" y="138" on="0"/>
        <pt x="319" y="109" on="1"/>
        <pt x="338" y="107" on="0"/>
        <pt x="372" y="106" on="0"/>
        <pt x="389" y="106" on="1"/>
        <pt x="436" y="106" on="0"/>
        <pt x="511" y="115" on="0"/>
        <pt x="566" y="125" on="0"/>
        <pt x="598" y="135" on="0"/>
        <pt x="602" y="137" on="1"/>
        <pt x="549" y="101" on="0"/>
        <pt x="479" y="49" on="0"/>
        <pt x="423" y="16" on="0"/>
        <pt x="370" y="0" on="0"/>
        <pt x="334" y="0" on="1"/>
        <pt x="286" y="0" on="0"/>
        <pt x="218" y="8" on="0"/>
        <pt x="184" y="8" on="1"/>
        <pt x="167" y="8" on="0"/>
        <pt x="132" y="5" on="0"/>
        <pt x="111" y="0" on="1"/>
        <pt x="139" y="24" on="0"/>
        <pt x="185" y="81" on="0"/>
        <pt x="218" y="163" on="0"/>
        <pt x="236" y="277" on="0"/>
        <pt x="236" y="358" on="1"/>
        <pt x="236" y="547" on="1"/>
        <pt x="35" y="547" on="1"/>
        <pt x="59" y="549" on="0"/>
        <pt x="99" y="575" on="0"/>
        <pt x="138" y="604" on="0"/>
        <pt x="180" y="627" on="0"/>
        <pt x="207" y="627" on="1"/>
        <pt x="236" y="627" on="1"/>
        <pt x="236" y="756" on="1"/>
        <pt x="213" y="751" on="0"/>
        <pt x="169" y="739" on="0"/>
        <pt x="147" y="731" on="1"/>
        <pt x="169" y="751" on="0"/>
        <pt x="213" y="785" on="0"/>
        <pt x="236" y="801" on="1"/>
        <pt x="236" y="1368" on="1"/>
        <pt x="205" y="1365" on="0"/>
        <pt x="117" y="1356" on="0"/>
        <pt x="61" y="1348" on="1"/>
        <pt x="115" y="1392" on="0"/>
        <pt x="202" y="1437" on="0"/>
        <pt x="233" y="1448" on="1"/>
        <pt x="269" y="1460" on="0"/>
        <pt x="297" y="1462" on="1"/>
        <pt x="332" y="1462" on="0"/>
        <pt x="417" y="1466" on="0"/>
        <pt x="496" y="1473" on="0"/>
        <pt x="562" y="1483" on="0"/>
      </contour>
      <contour>
        <pt x="1149" y="805" on="1"/>
        <pt x="1120" y="799" on="0"/>
        <pt x="1048" y="791" on="0"/>
        <pt x="1001" y="791" on="1"/>
        <pt x="936" y="791" on="0"/>
        <pt x="762" y="799" on="0"/>
        <pt x="659" y="799" on="1"/>
        <pt x="598" y="799" on="0"/>
        <pt x="473" y="793" on="0"/>
        <pt x="408" y="786" on="1"/>
        <pt x="406" y="738" on="0"/>
        <pt x="403" y="662" on="0"/>
        <pt x="403" y="627" on="1"/>
        <pt x="1149" y="627" on="1"/>
      </contour>
      <contour>
        <pt x="1513" y="137" on="1"/>
        <pt x="1513" y="138" on="1"/>
        <pt x="1514" y="138" on="1"/>
        <pt x="1515" y="139" on="0"/>
        <pt x="1516" y="139" on="1"/>
      </contour>
      <contour>
        <pt x="602" y="137" on="1"/>
        <pt x="602" y="138" on="1"/>
        <pt x="603" y="139" on="0"/>
        <pt x="604" y="139" on="1"/>
      </contour>
    </TTGlyph>
    <TTGlyph name="Hcircumflex" xMin="61" yMin="0" xMax="1516" yMax="1935">
      <component glyphName="H" x="0" y="0" flags="0x204"/>
      <component glyphName="circumflex" x="504" y="319" flags="0x4"/>
    </TTGlyph>
    <TTGlyph name="I" xMin="61" yMin="-8" xMax="604" yMax="1481">
      <contour>
        <pt x="604" y="129" on="1"/>
        <pt x="550" y="93" on="0"/>
        <pt x="480" y="41" on="0"/>
        <pt x="423" y="8" on="0"/>
        <pt x="370" y="-8" on="0"/>
        <pt x="334" y="-8" on="1"/>
        <pt x="286" y="-8" on="0"/>
        <pt x="218" y="0" on="0"/>
        <pt x="184" y="0" on="1"/>
        <pt x="167" y="0" on="0"/>
        <pt x="132" y="-3" on="0"/>
        <pt x="111" y="-8" on="1"/>
        <pt x="139" y="16" on="0"/>
        <pt x="185" y="72" on="0"/>
        <pt x="218" y="154" on="0"/>
        <pt x="236" y="269" on="0"/>
        <pt x="236" y="350" on="1"/>
        <pt x="236" y="1360" on="1"/>
        <pt x="205" y="1357" on="0"/>
        <pt x="117" y="1347" on="0"/>
        <pt x="61" y="1339" on="1"/>
        <pt x="115" y="1383" on="0"/>
        <pt x="202" y="1429" on="0"/>
        <pt x="233" y="1440" on="1"/>
        <pt x="269" y="1452" on="0"/>
        <pt x="297" y="1454" on="1"/>
        <pt x="332" y="1453" on="0"/>
        <pt x="417" y="1457" on="0"/>
        <pt x="496" y="1464" on="0"/>
        <pt x="562" y="1475" on="0"/>
        <pt x="578" y="1481" on="1"/>
        <pt x="531" y="1450" on="0"/>
        <pt x="456" y="1407" on="0"/>
        <pt x="422" y="1393" on="1"/>
        <pt x="417" y="1212" on="0"/>
        <pt x="410" y="926" on="0"/>
        <pt x="405" y="705" on="0"/>
        <pt x="402" y="544" on="0"/>
        <pt x="401" y="487" on="1"/>
        <pt x="398" y="354" on="0"/>
        <pt x="399" y="305" on="1"/>
        <pt x="398" y="268" on="0"/>
        <pt x="389" y="232" on="1"/>
        <pt x="381" y="200" on="0"/>
        <pt x="349" y="129" on="0"/>
        <pt x="319" y="100" on="1"/>
        <pt x="338" y="98" on="0"/>
        <pt x="374" y="98" on="0"/>
        <pt x="391" y="98" on="1"/>
        <pt x="442" y="98" on="0"/>
        <pt x="521" y="107" on="0"/>
        <pt x="548" y="113" on="1"/>
        <pt x="580" y="120" on="0"/>
      </contour>
    </TTGlyph>
    <TTGlyph name="IJ" xMin="61" yMin="-393" xMax="1210" yMax="1481">
      <component glyphName="I" x="0" y="0" flags="0x4"/>
      <component glyphName="J" x="641" y="0" flags="0x4"/>
    </TTGlyph>
    <TTGlyph name="Iacute" xMin="61" yMin="-8" xMax="837" yMax="1949">
      <component glyphName="I" x="0" y="0" flags="0x204"/>
      <component glyphName="acute" x="319" y="268" flags="0x4"/>
    </TTGlyph>
    <TTGlyph name="Ibreve" xMin="55" yMin="-8" xMax="614" yMax="1804">
      <component glyphName="I" x="0" y="0" flags="0x204"/>
      <component glyphName="breve" x="55" y="229" flags="0x4"/>
    </TTGlyph>
    <TTGlyph name="Icircumflex" xMin="61" yMin="-8" xMax="704" yMax="1921">
      <component glyphName="I" x="0" y="0" flags="0x204"/>
      <component glyphName="circumflex" x="61" y="305" flags="0x4"/>
    </TTGlyph>
    <TTGlyph name="Idieresis" xMin="41" yMin="-8" xMax="684" yMax="1761">
      <component glyphName="I" x="0" y="0" flags="0x204"/>
      <component glyphName="dieresis" x="41" y="268" flags="0x4"/>
    </TTGlyph>
    <TTGlyph name="Idotaccent" xMin="61" yMin="-8" xMax="604" yMax="1743">
      <component glyphName="I" x="0" y="0" flags="0x204"/>
      <component glyphName="dotaccent" x="182" y="250" flags="0x4"/>
    </TTGlyph>
    <TTGlyph name="Igrave" xMin="0" yMin="-8" xMax="604" yMax="1933">
      <component glyphName="I" x="0" y="0" flags="0x204"/>
      <component glyphName="grave" x="0" y="268" flags="0x4"/>
    </TTGlyph>
    <TTGlyph name="Imacron" xMin="-3" yMin="-8" xMax="708" yMax="1675">
      <component glyphName="I" x="0" y="0" flags="0x204"/>
      <component glyphName="macron" x="-3" y="213" flags="0x4"/>
    </TTGlyph>
    <TTGlyph name="Iogonek" xMin="61" yMin="-403" xMax="604" yMax="1481">
      <contour>
        <pt x="522" y="-254" on="1"/>
        <pt x="481" y="-296" on="0"/>
        <pt x="411" y="-353" on="0"/>
        <pt x="348" y="-388" on="0"/>
        <pt x="288" y="-403" on="0"/>
        <pt x="256" y="-403" on="1"/>
        <pt x="221" y="-403" on="0"/>
        <pt x="162" y="-377" on="0"/>
        <pt x="120" y="-332" on="0"/>
        <pt x="96" y="-272" on="0"/>
        <pt x="96" y="-238" on="1"/>
        <pt x="96" y="-195" on="0"/>
        <pt x="118" y="-125" on="0"/>
        <pt x="155" y="-67" on="0"/>
        <pt x="205" y="-21" on="0"/>
        <pt x="233" y="-2" on="1"/>
        <pt x="221" y="0" on="0"/>
        <pt x="197" y="0" on="0"/>
        <pt x="184" y="0" on="1"/>
        <pt x="167" y="0" on="0"/>
        <pt x="132" y="-3" on="0"/>
        <pt x="111" y="-8" on="1"/>
        <pt x="139" y="16" on="0"/>
        <pt x="185" y="72" on="0"/>
        <pt x="218" y="154" on="0"/>
        <pt x="236" y="269" on="0"/>
        <pt x="236" y="350" on="1"/>
        <pt x="236" y="1360" on="1"/>
        <pt x="205" y="1357" on="0"/>
        <pt x="117" y="1347" on="0"/>
        <pt x="61" y="1339" on="1"/>
        <pt x="115" y="1383" on="0"/>
        <pt x="202" y="1429" on="0"/>
        <pt x="233" y="1440" on="1"/>
        <pt x="269" y="1452" on="0"/>
        <pt x="297" y="1454" on="1"/>
        <pt x="332" y="1453" on="0"/>
        <pt x="417" y="1457" on="0"/>
        <pt x="496" y="1464" on="0"/>
        <pt x="562" y="1475" on="0"/>
        <pt x="578" y="1481" on="1"/>
        <pt x="531" y="1450" on="0"/>
        <pt x="456" y="1407" on="0"/>
        <pt x="422" y="1393" on="1"/>
        <pt x="417" y="1212" on="0"/>
        <pt x="410" y="926" on="0"/>
        <pt x="405" y="705" on="0"/>
        <pt x="402" y="544" on="0"/>
        <pt x="401" y="487" on="1"/>
        <pt x="398" y="354" on="0"/>
        <pt x="399" y="305" on="1"/>
        <pt x="398" y="268" on="0"/>
        <pt x="389" y="232" on="1"/>
        <pt x="381" y="200" on="0"/>
        <pt x="349" y="129" on="0"/>
        <pt x="319" y="100" on="1"/>
        <pt x="338" y="98" on="0"/>
        <pt x="374" y="98" on="0"/>
        <pt x="391" y="98" on="1"/>
        <pt x="442" y="98" on="0"/>
        <pt x="521" y="107" on="0"/>
        <pt x="548" y="113" on="1"/>
        <pt x="580" y="120" on="0"/>
        <pt x="604" y="129" on="1"/>
        <pt x="550" y="93" on="0"/>
        <pt x="480" y="41" on="0"/>
        <pt x="423" y="8" on="0"/>
        <pt x="370" y="-8" on="0"/>
        <pt x="334" y="-8" on="1"/>
        <pt x="318" y="-8" on="0"/>
        <pt x="291" y="-6" on="0"/>
        <pt x="279" y="-6" on="1"/>
        <pt x="254" y="-38" on="0"/>
        <pt x="221" y="-114" on="0"/>
        <pt x="221" y="-156" on="1"/>
        <pt x="221" y="-227" on="0"/>
        <pt x="295" y="-303" on="0"/>
        <pt x="367" y="-303" on="1"/>
        <pt x="391" y="-303" on="0"/>
        <pt x="427" y="-300" on="0"/>
        <pt x="461" y="-290" on="0"/>
        <pt x="498" y="-271" on="0"/>
      </contour>
    </TTGlyph>
    <TTGlyph name="Itilde" xMin="6" yMin="-8" xMax="633" yMax="1810">
      <component glyphName="I" x="0" y="0" flags="0x204"/>
      <component glyphName="tilde" x="6" y="297" flags="0x4"/>
    </TTGlyph>
    <TTGlyph name="J" xMin="-104" yMin="-393" xMax="569" yMax="1481">
      <contour>
        <pt x="569" y="1481" on="1"/>
        <pt x="523" y="1450" on="0"/>
        <pt x="446" y="1407" on="0"/>
        <pt x="412" y="1393" on="1"/>
        <pt x="407" y="1212" on="0"/>
        <pt x="400" y="926" on="0"/>
        <pt x="395" y="705" on="0"/>
        <pt x="392" y="544" on="0"/>
        <pt x="391" y="487" on="1"/>
        <pt x="388" y="354" on="0"/>
        <pt x="389" y="305" on="1"/>
        <pt x="388" y="273" on="0"/>
        <pt x="375" y="170" on="0"/>
        <pt x="337" y="44" on="0"/>
        <pt x="269" y="-95" on="0"/>
        <pt x="160" y="-229" on="0"/>
        <pt x="3" y="-349" on="0"/>
        <pt x="-104" y="-393" on="1"/>
        <pt x="-29" y="-353" on="0"/>
        <pt x="78" y="-242" on="0"/>
        <pt x="151" y="-113" on="0"/>
        <pt x="196" y="27" on="0"/>
        <pt x="219" y="166" on="0"/>
        <pt x="227" y="296" on="0"/>
        <pt x="227" y="350" on="1"/>
        <pt x="227" y="1360" on="1"/>
        <pt x="196" y="1357" on="0"/>
        <pt x="107" y="1347" on="0"/>
        <pt x="51" y="1339" on="1"/>
        <pt x="105" y="1383" on="0"/>
        <pt x="192" y="1429" on="0"/>
        <pt x="223" y="1440" on="1"/>
        <pt x="259" y="1452" on="0"/>
        <pt x="287" y="1454" on="1"/>
        <pt x="322" y="1453" on="0"/>
        <pt x="407" y="1457" on="0"/>
        <pt x="486" y="1464" on="0"/>
        <pt x="552" y="1475" on="0"/>
      </contour>
    </TTGlyph>
    <TTGlyph name="Jcircumflex" xMin="-104" yMin="-393" xMax="632" yMax="1931">
      <component glyphName="J" x="0" y="0" flags="0x204"/>
      <component glyphName="circumflex" x="-11" y="315" flags="0x4"/>
    </TTGlyph>
    <TTGlyph name="K" xMin="61" yMin="-11" xMax="1495" yMax="1481">
      <contour>
        <pt x="1294" y="1481" on="1"/>
        <pt x="1234" y="1439" on="0"/>
        <pt x="1142" y="1391" on="0"/>
        <pt x="1098" y="1378" on="1"/>
        <pt x="1047" y="1297" on="0"/>
        <pt x="926" y="1152" on="0"/>
        <pt x="795" y="1016" on="0"/>
        <pt x="660" y="887" on="0"/>
        <pt x="596" y="823" on="1"/>
        <pt x="638" y="763" on="0"/>
        <pt x="746" y="615" on="0"/>
        <pt x="871" y="465" on="0"/>
        <pt x="1010" y="322" on="0"/>
        <pt x="1155" y="212" on="0"/>
        <pt x="1306" y="145" on="0"/>
        <pt x="1380" y="145" on="1"/>
        <pt x="1406" y="145" on="0"/>
        <pt x="1464" y="157" on="0"/>
        <pt x="1495" y="172" on="1"/>
        <pt x="1435" y="107" on="0"/>
        <pt x="1344" y="34" on="0"/>
        <pt x="1313" y="17" on="1"/>
        <pt x="1277" y="-4" on="0"/>
        <pt x="1251" y="-8" on="1"/>
        <pt x="1219" y="-11" on="0"/>
        <pt x="1127" y="25" on="0"/>
        <pt x="1019" y="90" on="0"/>
        <pt x="903" y="178" on="0"/>
        <pt x="848" y="227" on="1"/>
        <pt x="787" y="284" on="0"/>
        <pt x="718" y="359" on="1"/>
        <pt x="659" y="423" on="0"/>
        <pt x="510" y="606" on="0"/>
        <pt x="432" y="723" on="1"/>
        <pt x="518" y="831" on="1"/>
        <pt x="548" y="856" on="0"/>
        <pt x="630" y="931" on="0"/>
        <pt x="720" y="1020" on="0"/>
        <pt x="813" y="1120" on="0"/>
        <pt x="895" y="1221" on="0"/>
        <pt x="959" y="1319" on="0"/>
        <pt x="977" y="1362" on="1"/>
        <pt x="948" y="1359" on="0"/>
        <pt x="844" y="1349" on="0"/>
        <pt x="778" y="1339" on="1"/>
        <pt x="832" y="1383" on="0"/>
        <pt x="918" y="1429" on="0"/>
        <pt x="949" y="1440" on="1"/>
        <pt x="985" y="1452" on="0"/>
        <pt x="1014" y="1454" on="1"/>
        <pt x="1049" y="1453" on="0"/>
        <pt x="1133" y="1457" on="0"/>
        <pt x="1212" y="1464" on="0"/>
        <pt x="1277" y="1475" on="0"/>
      </contour>
      <contour>
        <pt x="604" y="129" on="1"/>
        <pt x="550" y="93" on="0"/>
        <pt x="480" y="41" on="0"/>
        <pt x="423" y="8" on="0"/>
        <pt x="370" y="-8" on="0"/>
        <pt x="334" y="-8" on="1"/>
        <pt x="286" y="-8" on="0"/>
        <pt x="218" y="0" on="0"/>
        <pt x="184" y="0" on="1"/>
        <pt x="167" y="0" on="0"/>
        <pt x="132" y="-3" on="0"/>
        <pt x="111" y="-8" on="1"/>
        <pt x="139" y="16" on="0"/>
        <pt x="185" y="72" on="0"/>
        <pt x="218" y="154" on="0"/>
        <pt x="236" y="269" on="0"/>
        <pt x="236" y="350" on="1"/>
        <pt x="236" y="1360" on="1"/>
        <pt x="205" y="1357" on="0"/>
        <pt x="117" y="1347" on="0"/>
        <pt x="61" y="1339" on="1"/>
        <pt x="115" y="1383" on="0"/>
        <pt x="202" y="1429" on="0"/>
        <pt x="233" y="1440" on="1"/>
        <pt x="269" y="1452" on="0"/>
        <pt x="297" y="1454" on="1"/>
        <pt x="332" y="1453" on="0"/>
        <pt x="417" y="1457" on="0"/>
        <pt x="496" y="1464" on="0"/>
        <pt x="562" y="1475" on="0"/>
        <pt x="578" y="1481" on="1"/>
        <pt x="531" y="1450" on="0"/>
        <pt x="456" y="1407" on="0"/>
        <pt x="422" y="1393" on="1"/>
        <pt x="417" y="1212" on="0"/>
        <pt x="410" y="926" on="0"/>
        <pt x="405" y="705" on="0"/>
        <pt x="402" y="544" on="0"/>
        <pt x="401" y="487" on="1"/>
        <pt x="398" y="354" on="0"/>
        <pt x="399" y="305" on="1"/>
        <pt x="398" y="268" on="0"/>
        <pt x="389" y="232" on="1"/>
        <pt x="381" y="200" on="0"/>
        <pt x="349" y="129" on="0"/>
        <pt x="319" y="100" on="1"/>
        <pt x="338" y="98" on="0"/>
        <pt x="374" y="98" on="0"/>
        <pt x="391" y="98" on="1"/>
        <pt x="442" y="98" on="0"/>
        <pt x="521" y="107" on="0"/>
        <pt x="548" y="113" on="1"/>
        <pt x="580" y="120" on="0"/>
      </contour>
    </TTGlyph>
    <TTGlyph name="Kcommaaccent" xMin="61" yMin="-428" xMax="1495" yMax="1481">
      <component glyphName="K" x="0" y="0" flags="0x204"/>
      <component glyphName="uni0326" x="522" y="137" flags="0x4"/>
    </TTGlyph>
    <TTGlyph name="L" xMin="61" yMin="-8" xMax="1020" yMax="1481">
      <contour>
        <pt x="578" y="1481" on="1"/>
        <pt x="531" y="1450" on="0"/>
        <pt x="456" y="1407" on="0"/>
        <pt x="422" y="1393" on="1"/>
        <pt x="417" y="1212" on="0"/>
        <pt x="410" y="926" on="0"/>
        <pt x="405" y="705" on="0"/>
        <pt x="402" y="544" on="0"/>
        <pt x="401" y="487" on="1"/>
        <pt x="398" y="354" on="0"/>
        <pt x="399" y="305" on="1"/>
        <pt x="398" y="268" on="0"/>
        <pt x="391" y="234" on="1"/>
        <pt x="385" y="205" on="0"/>
        <pt x="359" y="140" on="0"/>
        <pt x="336" y="117" on="1"/>
        <pt x="396" y="115" on="0"/>
        <pt x="501" y="115" on="0"/>
        <pt x="549" y="115" on="1"/>
        <pt x="686" y="115" on="0"/>
        <pt x="864" y="123" on="0"/>
        <pt x="970" y="134" on="0"/>
        <pt x="1014" y="143" on="0"/>
        <pt x="1018" y="145" on="1"/>
        <pt x="965" y="109" on="0"/>
        <pt x="895" y="57" on="0"/>
        <pt x="840" y="24" on="0"/>
        <pt x="787" y="8" on="0"/>
        <pt x="752" y="8" on="1"/>
        <pt x="598" y="8" on="1"/>
        <pt x="533" y="8" on="0"/>
        <pt x="381" y="7" on="0"/>
        <pt x="243" y="4" on="0"/>
        <pt x="134" y="-3" on="0"/>
        <pt x="111" y="-8" on="1"/>
        <pt x="139" y="16" on="0"/>
        <pt x="185" y="72" on="0"/>
        <pt x="218" y="154" on="0"/>
        <pt x="236" y="269" on="0"/>
        <pt x="236" y="350" on="1"/>
        <pt x="236" y="1360" on="1"/>
        <pt x="205" y="1357" on="0"/>
        <pt x="117" y="1347" on="0"/>
        <pt x="61" y="1339" on="1"/>
        <pt x="115" y="1383" on="0"/>
        <pt x="202" y="1429" on="0"/>
        <pt x="233" y="1440" on="1"/>
        <pt x="269" y="1452" on="0"/>
        <pt x="297" y="1454" on="1"/>
        <pt x="332" y="1453" on="0"/>
        <pt x="417" y="1457" on="0"/>
        <pt x="496" y="1464" on="0"/>
        <pt x="562" y="1475" on="0"/>
      </contour>
      <contour>
        <pt x="1018" y="145" on="1"/>
        <pt x="1018" y="146" on="1"/>
        <pt x="1019" y="147" on="0"/>
        <pt x="1020" y="147" on="1"/>
      </contour>
    </TTGlyph>
    <TTGlyph name="Lacute" xMin="61" yMin="-8" xMax="1020" yMax="1960">
      <component glyphName="L" x="0" y="0" flags="0x204"/>
      <component glyphName="acute" x="334" y="279" flags="0x4"/>
    </TTGlyph>
    <TTGlyph name="Lcaron" xMin="61" yMin="-8" xMax="1020" yMax="1697">
      <component glyphName="L" x="0" y="0" flags="0x204"/>
      <component glyphName="uni0315" x="651" y="274" flags="0x4"/>
    </TTGlyph>
    <TTGlyph name="Lcommaaccent" xMin="61" yMin="-475" xMax="1020" yMax="1481">
      <component glyphName="L" x="0" y="0" flags="0x204"/>
      <component glyphName="uni0326" x="303" y="90" flags="0x4"/>
    </TTGlyph>
    <TTGlyph name="Ldot" xMin="61" yMin="-8" xMax="1257" yMax="1481">
      <component glyphName="L" x="0" y="0" flags="0x4"/>
      <component glyphName="periodcentered" x="813" y="0" flags="0x4"/>
    </TTGlyph>
    <TTGlyph name="Lslash" xMin="52" yMin="-8" xMax="1020" yMax="1481">
      <contour>
        <pt x="758" y="887" on="1"/>
        <pt x="723" y="859" on="0"/>
        <pt x="691" y="834" on="1"/>
        <pt x="664" y="812" on="0"/>
        <pt x="607" y="769" on="0"/>
        <pt x="590" y="758" on="1"/>
        <pt x="548" y="730" on="0"/>
        <pt x="454" y="679" on="0"/>
        <pt x="406" y="657" on="1"/>
        <pt x="403" y="549" on="0"/>
        <pt x="401" y="413" on="0"/>
        <pt x="400" y="374" on="1"/>
        <pt x="399" y="328" on="0"/>
        <pt x="399" y="305" on="1"/>
        <pt x="398" y="268" on="0"/>
        <pt x="391" y="234" on="1"/>
        <pt x="385" y="205" on="0"/>
        <pt x="359" y="140" on="0"/>
        <pt x="336" y="117" on="1"/>
        <pt x="396" y="115" on="0"/>
        <pt x="501" y="115" on="0"/>
        <pt x="549" y="115" on="1"/>
        <pt x="686" y="115" on="0"/>
        <pt x="864" y="123" on="0"/>
        <pt x="970" y="134" on="0"/>
        <pt x="1014" y="143" on="0"/>
        <pt x="1018" y="145" on="1"/>
        <pt x="965" y="109" on="0"/>
        <pt x="895" y="57" on="0"/>
        <pt x="840" y="24" on="0"/>
        <pt x="787" y="8" on="0"/>
        <pt x="752" y="8" on="1"/>
        <pt x="598" y="8" on="1"/>
        <pt x="533" y="8" on="0"/>
        <pt x="381" y="7" on="0"/>
        <pt x="243" y="4" on="0"/>
        <pt x="134" y="-3" on="0"/>
        <pt x="111" y="-8" on="1"/>
        <pt x="139" y="16" on="0"/>
        <pt x="185" y="72" on="0"/>
        <pt x="218" y="154" on="0"/>
        <pt x="236" y="269" on="0"/>
        <pt x="236" y="350" on="1"/>
        <pt x="236" y="590" on="1"/>
        <pt x="196" y="576" on="0"/>
        <pt x="130" y="555" on="0"/>
        <pt x="105" y="547" on="1"/>
        <pt x="76" y="538" on="0"/>
        <pt x="53" y="532" on="1"/>
        <pt x="52" y="534" on="0"/>
        <pt x="53" y="537" on="1"/>
        <pt x="53" y="543" on="0"/>
        <pt x="57" y="543" on="1"/>
        <pt x="104" y="564" on="0"/>
        <pt x="192" y="616" on="0"/>
        <pt x="236" y="645" on="1"/>
        <pt x="236" y="1360" on="1"/>
        <pt x="205" y="1357" on="0"/>
        <pt x="117" y="1347" on="0"/>
        <pt x="61" y="1339" on="1"/>
        <pt x="115" y="1383" on="0"/>
        <pt x="202" y="1429" on="0"/>
        <pt x="233" y="1440" on="1"/>
        <pt x="269" y="1452" on="0"/>
        <pt x="297" y="1454" on="1"/>
        <pt x="332" y="1453" on="0"/>
        <pt x="417" y="1457" on="0"/>
        <pt x="496" y="1464" on="0"/>
        <pt x="562" y="1475" on="0"/>
        <pt x="578" y="1481" on="1"/>
        <pt x="531" y="1450" on="0"/>
        <pt x="456" y="1407" on="0"/>
        <pt x="422" y="1393" on="1"/>
        <pt x="420" y="1290" on="0"/>
        <pt x="415" y="1114" on="0"/>
        <pt x="412" y="962" on="0"/>
        <pt x="409" y="832" on="0"/>
        <pt x="408" y="774" on="1"/>
        <pt x="467" y="821" on="1"/>
        <pt x="495" y="838" on="0"/>
        <pt x="562" y="852" on="0"/>
        <pt x="636" y="861" on="0"/>
        <pt x="716" y="872" on="0"/>
      </contour>
      <contour>
        <pt x="1018" y="145" on="1"/>
        <pt x="1018" y="146" on="1"/>
        <pt x="1019" y="147" on="0"/>
        <pt x="1020" y="147" on="1"/>
      </contour>
    </TTGlyph>
    <TTGlyph name="M" xMin="80" yMin="-25" xMax="2019" yMax="1530">
      <contour>
        <pt x="2019" y="119" on="1"/>
        <pt x="1995" y="99" on="0"/>
        <pt x="1909" y="49" on="0"/>
        <pt x="1794" y="5" on="0"/>
        <pt x="1656" y="-25" on="0"/>
        <pt x="1581" y="-25" on="1"/>
        <pt x="1594" y="-1" on="0"/>
        <pt x="1611" y="38" on="0"/>
        <pt x="1622" y="76" on="0"/>
        <pt x="1626" y="114" on="0"/>
        <pt x="1626" y="137" on="1"/>
        <pt x="1626" y="163" on="0"/>
        <pt x="1620" y="292" on="0"/>
        <pt x="1612" y="466" on="0"/>
        <pt x="1602" y="670" on="0"/>
        <pt x="1593" y="870" on="0"/>
        <pt x="1586" y="1050" on="0"/>
        <pt x="1585" y="1114" on="1"/>
        <pt x="1532" y="1021" on="0"/>
        <pt x="1429" y="864" on="0"/>
        <pt x="1330" y="720" on="0"/>
        <pt x="1237" y="582" on="0"/>
        <pt x="1150" y="434" on="0"/>
        <pt x="1072" y="269" on="0"/>
        <pt x="1038" y="170" on="1"/>
        <pt x="864" y="-25" on="1"/>
        <pt x="866" y="10" on="0"/>
        <pt x="836" y="109" on="0"/>
        <pt x="816" y="155" on="1"/>
        <pt x="793" y="209" on="0"/>
        <pt x="764" y="266" on="1"/>
        <pt x="730" y="328" on="0"/>
        <pt x="673" y="436" on="1"/>
        <pt x="623" y="527" on="0"/>
        <pt x="461" y="831" on="0"/>
        <pt x="340" y="1057" on="1"/>
        <pt x="333" y="935" on="0"/>
        <pt x="320" y="685" on="0"/>
        <pt x="298" y="440" on="0"/>
        <pt x="259" y="205" on="0"/>
        <pt x="227" y="100" on="1"/>
        <pt x="244" y="94" on="0"/>
        <pt x="286" y="88" on="0"/>
        <pt x="307" y="88" on="1"/>
        <pt x="329" y="88" on="0"/>
        <pt x="369" y="92" on="0"/>
        <pt x="385" y="94" on="1"/>
        <pt x="403" y="97" on="0"/>
        <pt x="420" y="100" on="1"/>
        <pt x="378" y="68" on="0"/>
        <pt x="307" y="22" on="0"/>
        <pt x="232" y="-10" on="0"/>
        <pt x="142" y="-25" on="0"/>
        <pt x="80" y="-25" on="1"/>
        <pt x="108" y="2" on="0"/>
        <pt x="149" y="127" on="0"/>
        <pt x="178" y="300" on="0"/>
        <pt x="198" y="510" on="0"/>
        <pt x="213" y="731" on="0"/>
        <pt x="222" y="953" on="0"/>
        <pt x="232" y="1152" on="0"/>
        <pt x="242" y="1317" on="0"/>
        <pt x="250" y="1370" on="1"/>
        <pt x="395" y="1530" on="1"/>
        <pt x="387" y="1514" on="0"/>
        <pt x="387" y="1474" on="0"/>
        <pt x="391" y="1456" on="1"/>
        <pt x="395" y="1435" on="0"/>
        <pt x="403" y="1413" on="1"/>
        <pt x="408" y="1400" on="0"/>
        <pt x="452" y="1312" on="0"/>
        <pt x="518" y="1183" on="0"/>
        <pt x="603" y="1020" on="0"/>
        <pt x="695" y="843" on="0"/>
        <pt x="789" y="662" on="0"/>
        <pt x="875" y="496" on="0"/>
        <pt x="947" y="353" on="0"/>
        <pt x="971" y="303" on="1"/>
        <pt x="1056" y="435" on="0"/>
        <pt x="1231" y="705" on="0"/>
        <pt x="1392" y="973" on="0"/>
        <pt x="1531" y="1238" on="0"/>
        <pt x="1581" y="1366" on="1"/>
        <pt x="1790" y="1530" on="1"/>
        <pt x="1784" y="1345" on="0"/>
        <pt x="1790" y="1006" on="0"/>
        <pt x="1803" y="684" on="0"/>
        <pt x="1815" y="374" on="0"/>
        <pt x="1815" y="219" on="1"/>
        <pt x="1815" y="174" on="0"/>
        <pt x="1804" y="117" on="0"/>
        <pt x="1790" y="106" on="1"/>
        <pt x="1836" y="100" on="0"/>
        <pt x="1884" y="100" on="1"/>
        <pt x="1924" y="100" on="0"/>
        <pt x="1995" y="109" on="0"/>
      </contour>
    </TTGlyph>
    <TTGlyph name="N" xMin="74" yMin="-35" xMax="1466" yMax="1522">
      <contour>
        <pt x="289" y="184" on="1"/>
        <pt x="287" y="175" on="0"/>
        <pt x="280" y="163" on="1"/>
        <pt x="274" y="152" on="0"/>
        <pt x="252" y="119" on="0"/>
        <pt x="233" y="96" on="1"/>
        <pt x="262" y="90" on="0"/>
        <pt x="321" y="86" on="0"/>
        <pt x="346" y="86" on="1"/>
        <pt x="396" y="86" on="0"/>
        <pt x="459" y="94" on="0"/>
        <pt x="465" y="96" on="1"/>
        <pt x="418" y="74" on="0"/>
        <pt x="356" y="36" on="0"/>
        <pt x="291" y="8" on="0"/>
        <pt x="208" y="-11" on="0"/>
        <pt x="139" y="-14" on="1"/>
        <pt x="143" y="-12" on="0"/>
        <pt x="152" y="2" on="1"/>
        <pt x="133" y="-14" on="1"/>
        <pt x="119" y="-16" on="0"/>
        <pt x="89" y="-16" on="0"/>
        <pt x="74" y="-16" on="1"/>
        <pt x="166" y="53" on="1"/>
        <pt x="170" y="77" on="0"/>
        <pt x="178" y="138" on="0"/>
        <pt x="184" y="204" on="0"/>
        <pt x="190" y="271" on="0"/>
        <pt x="192" y="303" on="1"/>
        <pt x="197" y="377" on="0"/>
        <pt x="201" y="455" on="1"/>
        <pt x="206" y="682" on="0"/>
        <pt x="211" y="1121" on="0"/>
        <pt x="211" y="1343" on="1"/>
        <pt x="322" y="1522" on="1"/>
        <pt x="328" y="1426" on="0"/>
        <pt x="390" y="1248" on="0"/>
        <pt x="490" y="1081" on="0"/>
        <pt x="618" y="926" on="0"/>
        <pt x="762" y="778" on="0"/>
        <pt x="912" y="636" on="0"/>
        <pt x="1054" y="497" on="0"/>
        <pt x="1181" y="360" on="0"/>
        <pt x="1229" y="291" on="1"/>
        <pt x="1244" y="508" on="0"/>
        <pt x="1253" y="921" on="0"/>
        <pt x="1253" y="1126" on="1"/>
        <pt x="1253" y="1218" on="0"/>
        <pt x="1243" y="1323" on="0"/>
        <pt x="1233" y="1358" on="1"/>
        <pt x="1221" y="1356" on="0"/>
        <pt x="1194" y="1356" on="0"/>
        <pt x="1180" y="1356" on="1"/>
        <pt x="1145" y="1356" on="0"/>
        <pt x="1080" y="1353" on="0"/>
        <pt x="1059" y="1343" on="1"/>
        <pt x="1096" y="1369" on="0"/>
        <pt x="1166" y="1413" on="0"/>
        <pt x="1237" y="1444" on="0"/>
        <pt x="1310" y="1462" on="0"/>
        <pt x="1352" y="1462" on="1"/>
        <pt x="1375" y="1462" on="0"/>
        <pt x="1432" y="1459" on="0"/>
        <pt x="1466" y="1454" on="1"/>
        <pt x="1439" y="1437" on="0"/>
        <pt x="1391" y="1410" on="0"/>
        <pt x="1368" y="1399" on="1"/>
        <pt x="1366" y="1093" on="0"/>
        <pt x="1335" y="502" on="0"/>
        <pt x="1321" y="207" on="1"/>
        <pt x="1261" y="109" on="0"/>
        <pt x="1208" y="-17" on="0"/>
        <pt x="1204" y="-31" on="1"/>
        <pt x="1204" y="-35" on="1"/>
        <pt x="1158" y="69" on="0"/>
        <pt x="1024" y="249" on="0"/>
        <pt x="865" y="413" on="0"/>
        <pt x="693" y="569" on="0"/>
        <pt x="527" y="732" on="0"/>
        <pt x="378" y="909" on="0"/>
        <pt x="322" y="1012" on="1"/>
        <pt x="321" y="925" on="0"/>
        <pt x="318" y="751" on="0"/>
        <pt x="314" y="585" on="0"/>
        <pt x="308" y="433" on="0"/>
        <pt x="301" y="307" on="0"/>
        <pt x="293" y="211" on="0"/>
      </contour>
      <contour>
        <pt x="139" y="-14" on="1"/>
        <pt x="137" y="-16" on="0"/>
        <pt x="133" y="-16" on="1"/>
        <pt x="133" y="-14" on="1"/>
      </contour>
    </TTGlyph>
    <TTGlyph name="Nacute" xMin="74" yMin="-35" xMax="1466" yMax="1859">
      <component glyphName="N" x="0" y="0" flags="0x204"/>
      <component glyphName="acute" x="737" y="178" flags="0x4"/>
    </TTGlyph>
    <TTGlyph name="Ncaron" xMin="74" yMin="-35" xMax="1466" yMax="1845">
      <component glyphName="N" x="0" y="0" flags="0x204"/>
      <component glyphName="caron" x="500" y="229" flags="0x4"/>
    </TTGlyph>
    <TTGlyph name="Ncommaaccent" xMin="74" yMin="-422" xMax="1466" yMax="1522">
      <component glyphName="N" x="0" y="0" flags="0x204"/>
      <component glyphName="uni0326" x="522" y="143" flags="0x4"/>
    </TTGlyph>
    <TTGlyph name="Ntilde" xMin="74" yMin="-35" xMax="1466" yMax="1742">
      <component glyphName="N" x="0" y="0" flags="0x204"/>
      <component glyphName="tilde" x="522" y="229" flags="0x4"/>
    </TTGlyph>
    <TTGlyph name="O" xMin="78" yMin="-23" xMax="1501" yMax="1452">
      <contour>
        <pt x="1501" y="776" on="1"/>
        <pt x="1501" y="649" on="0"/>
        <pt x="1417" y="433" on="0"/>
        <pt x="1279" y="255" on="0"/>
        <pt x="1102" y="118" on="0"/>
        <pt x="917" y="25" on="0"/>
        <pt x="739" y="-23" on="0"/>
        <pt x="668" y="-23" on="1"/>
        <pt x="608" y="-23" on="0"/>
        <pt x="474" y="14" on="0"/>
        <pt x="343" y="87" on="0"/>
        <pt x="223" y="196" on="0"/>
        <pt x="132" y="339" on="0"/>
        <pt x="78" y="516" on="0"/>
        <pt x="78" y="621" on="1"/>
        <pt x="78" y="761" on="0"/>
        <pt x="156" y="993" on="0"/>
        <pt x="285" y="1178" on="0"/>
        <pt x="450" y="1316" on="0"/>
        <pt x="623" y="1407" on="0"/>
        <pt x="791" y="1452" on="0"/>
        <pt x="858" y="1452" on="1"/>
        <pt x="929" y="1452" on="0"/>
        <pt x="1079" y="1422" on="0"/>
        <pt x="1222" y="1356" on="0"/>
        <pt x="1349" y="1251" on="0"/>
        <pt x="1445" y="1101" on="0"/>
        <pt x="1501" y="902" on="0"/>
      </contour>
      <contour>
        <pt x="1319" y="715" on="1"/>
        <pt x="1319" y="825" on="0"/>
        <pt x="1265" y="1004" on="0"/>
        <pt x="1174" y="1143" on="0"/>
        <pt x="1055" y="1244" on="0"/>
        <pt x="926" y="1310" on="0"/>
        <pt x="794" y="1341" on="0"/>
        <pt x="735" y="1341" on="1"/>
        <pt x="641" y="1341" on="0"/>
        <pt x="465" y="1270" on="0"/>
        <pt x="328" y="1119" on="0"/>
        <pt x="246" y="881" on="0"/>
        <pt x="246" y="715" on="1"/>
        <pt x="246" y="604" on="0"/>
        <pt x="310" y="427" on="0"/>
        <pt x="414" y="293" on="0"/>
        <pt x="545" y="197" on="0"/>
        <pt x="680" y="137" on="0"/>
        <pt x="807" y="109" on="0"/>
        <pt x="854" y="109" on="1"/>
        <pt x="901" y="109" on="0"/>
        <pt x="1006" y="137" on="0"/>
        <pt x="1110" y="198" on="0"/>
        <pt x="1204" y="294" on="0"/>
        <pt x="1276" y="428" on="0"/>
        <pt x="1319" y="604" on="0"/>
      </contour>
    </TTGlyph>
    <TTGlyph name="OE" xMin="78" yMin="-25" xMax="2127" yMax="1452">
      <contour>
        <pt x="2095" y="1405" on="1"/>
        <pt x="2087" y="1401" on="0"/>
        <pt x="2065" y="1388" on="1"/>
        <pt x="2046" y="1377" on="0"/>
        <pt x="1977" y="1330" on="0"/>
        <pt x="1917" y="1290" on="1"/>
        <pt x="1937" y="1312" on="0"/>
        <pt x="1931" y="1333" on="0"/>
        <pt x="1920" y="1338" on="1"/>
        <pt x="1907" y="1343" on="0"/>
        <pt x="1884" y="1343" on="1"/>
        <pt x="1865" y="1341" on="0"/>
        <pt x="1789" y="1338" on="0"/>
        <pt x="1688" y="1334" on="0"/>
        <pt x="1569" y="1330" on="0"/>
        <pt x="1507" y="1329" on="1"/>
        <pt x="1508" y="1169" on="0"/>
        <pt x="1509" y="915" on="0"/>
        <pt x="1509" y="809" on="1"/>
        <pt x="1611" y="810" on="0"/>
        <pt x="1775" y="815" on="0"/>
        <pt x="1833" y="818" on="1"/>
        <pt x="1901" y="822" on="0"/>
        <pt x="1954" y="825" on="1"/>
        <pt x="1987" y="826" on="0"/>
        <pt x="2009" y="816" on="0"/>
        <pt x="2005" y="802" on="0"/>
        <pt x="1986" y="787" on="0"/>
        <pt x="1978" y="784" on="1"/>
        <pt x="1970" y="780" on="0"/>
        <pt x="1952" y="769" on="1"/>
        <pt x="1936" y="759" on="0"/>
        <pt x="1877" y="720" on="0"/>
        <pt x="1829" y="686" on="1"/>
        <pt x="1837" y="701" on="0"/>
        <pt x="1819" y="717" on="0"/>
        <pt x="1805" y="720" on="1"/>
        <pt x="1788" y="724" on="0"/>
        <pt x="1765" y="723" on="1"/>
        <pt x="1730" y="721" on="0"/>
        <pt x="1594" y="712" on="0"/>
        <pt x="1509" y="709" on="1"/>
        <pt x="1509" y="549" on="0"/>
        <pt x="1506" y="348" on="0"/>
        <pt x="1505" y="292" on="1"/>
        <pt x="1503" y="226" on="0"/>
        <pt x="1501" y="195" on="1"/>
        <pt x="1499" y="175" on="0"/>
        <pt x="1489" y="156" on="1"/>
        <pt x="1481" y="139" on="0"/>
        <pt x="1446" y="101" on="0"/>
        <pt x="1415" y="86" on="1"/>
        <pt x="1868" y="86" on="1"/>
        <pt x="1899" y="86" on="0"/>
        <pt x="1932" y="90" on="1"/>
        <pt x="1960" y="93" on="0"/>
        <pt x="2025" y="107" on="0"/>
        <pt x="2054" y="121" on="1"/>
        <pt x="2004" y="74" on="0"/>
        <pt x="1906" y="24" on="0"/>
        <pt x="1865" y="13" on="1"/>
        <pt x="1817" y="0" on="0"/>
        <pt x="1774" y="-2" on="1"/>
        <pt x="1676" y="-2" on="0"/>
        <pt x="1501" y="-4" on="0"/>
        <pt x="1361" y="-10" on="0"/>
        <pt x="1262" y="-19" on="0"/>
        <pt x="1241" y="-25" on="1"/>
        <pt x="1272" y="6" on="0"/>
        <pt x="1307" y="66" on="0"/>
        <pt x="1325" y="140" on="0"/>
        <pt x="1330" y="233" on="0"/>
        <pt x="1329" y="297" on="1"/>
        <pt x="1329" y="319" on="1"/>
        <pt x="1259" y="236" on="0"/>
        <pt x="1086" y="109" on="0"/>
        <pt x="908" y="22" on="0"/>
        <pt x="736" y="-23" on="0"/>
        <pt x="668" y="-23" on="1"/>
        <pt x="608" y="-23" on="0"/>
        <pt x="474" y="14" on="0"/>
        <pt x="343" y="87" on="0"/>
        <pt x="223" y="196" on="0"/>
        <pt x="132" y="339" on="0"/>
        <pt x="78" y="516" on="0"/>
        <pt x="78" y="621" on="1"/>
        <pt x="78" y="761" on="0"/>
        <pt x="156" y="993" on="0"/>
        <pt x="285" y="1178" on="0"/>
        <pt x="450" y="1316" on="0"/>
        <pt x="623" y="1407" on="0"/>
        <pt x="791" y="1452" on="0"/>
        <pt x="858" y="1452" on="1"/>
        <pt x="945" y="1452" on="0"/>
        <pt x="1129" y="1407" on="0"/>
        <pt x="1212" y="1356" on="1"/>
        <pt x="1354" y="1430" on="1"/>
        <pt x="1544" y="1430" on="0"/>
        <pt x="1813" y="1435" on="0"/>
        <pt x="1901" y="1438" on="1"/>
        <pt x="2003" y="1442" on="0"/>
        <pt x="2071" y="1446" on="1"/>
        <pt x="2105" y="1446" on="0"/>
        <pt x="2127" y="1435" on="0"/>
        <pt x="2123" y="1422" on="0"/>
        <pt x="2103" y="1408" on="0"/>
      </contour>
      <contour>
        <pt x="1319" y="715" on="1"/>
        <pt x="1319" y="825" on="0"/>
        <pt x="1265" y="1004" on="0"/>
        <pt x="1174" y="1143" on="0"/>
        <pt x="1055" y="1244" on="0"/>
        <pt x="926" y="1310" on="0"/>
        <pt x="794" y="1341" on="0"/>
        <pt x="735" y="1341" on="1"/>
        <pt x="641" y="1341" on="0"/>
        <pt x="465" y="1270" on="0"/>
        <pt x="328" y="1119" on="0"/>
        <pt x="246" y="881" on="0"/>
        <pt x="246" y="715" on="1"/>
        <pt x="246" y="604" on="0"/>
        <pt x="310" y="427" on="0"/>
        <pt x="414" y="293" on="0"/>
        <pt x="545" y="197" on="0"/>
        <pt x="680" y="137" on="0"/>
        <pt x="807" y="109" on="0"/>
        <pt x="854" y="109" on="1"/>
        <pt x="901" y="109" on="0"/>
        <pt x="1006" y="137" on="0"/>
        <pt x="1110" y="198" on="0"/>
        <pt x="1204" y="294" on="0"/>
        <pt x="1276" y="428" on="0"/>
        <pt x="1319" y="604" on="0"/>
      </contour>
      <contour>
        <pt x="1327" y="1264" on="1"/>
        <pt x="1327" y="1327" on="1"/>
        <pt x="1253" y="1327" on="1"/>
        <pt x="1295" y="1299" on="0"/>
      </contour>
    </TTGlyph>
    <TTGlyph name="Oacute" xMin="78" yMin="-23" xMax="1501" yMax="1923">
      <component glyphName="O" x="0" y="0" flags="0x204"/>
      <component glyphName="acute" x="705" y="242" flags="0x4"/>
    </TTGlyph>
    <TTGlyph name="Obreve" xMin="78" yMin="-23" xMax="1501" yMax="1790">
      <component glyphName="O" x="0" y="0" flags="0x204"/>
      <component glyphName="breve" x="524" y="215" flags="0x4"/>
    </TTGlyph>
    <TTGlyph name="Ocircumflex" xMin="78" yMin="-23" xMax="1501" yMax="1884">
      <component glyphName="O" x="0" y="0" flags="0x204"/>
      <component glyphName="circumflex" x="518" y="268" flags="0x4"/>
    </TTGlyph>
    <TTGlyph name="Odieresis" xMin="78" yMin="-23" xMax="1501" yMax="1720">
      <component glyphName="O" x="0" y="0" flags="0x204"/>
      <component glyphName="dieresis" x="518" y="227" flags="0x4"/>
    </TTGlyph>
    <TTGlyph name="Ograve" xMin="78" yMin="-23" xMax="1501" yMax="1913">
      <component glyphName="O" x="0" y="0" flags="0x204"/>
      <component glyphName="grave" x="387" y="248" flags="0x4"/>
    </TTGlyph>
    <TTGlyph name="Ohungarumlaut" xMin="78" yMin="-23" xMax="1501" yMax="1937">
      <component glyphName="O" x="0" y="0" flags="0x204"/>
      <component glyphName="hungarumlaut" x="600" y="256" flags="0x4"/>
    </TTGlyph>
    <TTGlyph name="Omacron" xMin="78" yMin="-23" xMax="1501" yMax="1652">
      <component glyphName="O" x="0" y="0" flags="0x204"/>
      <component glyphName="macron" x="500" y="190" flags="0x4"/>
    </TTGlyph>
    <TTGlyph name="Oslash" xMin="78" yMin="-72" xMax="1501" yMax="1642">
      <contour>
        <pt x="1288" y="1642" on="1"/>
        <pt x="1277" y="1609" on="0"/>
        <pt x="1260" y="1569" on="1"/>
        <pt x="1246" y="1534" on="0"/>
        <pt x="1204" y="1436" on="0"/>
        <pt x="1178" y="1374" on="1"/>
        <pt x="1245" y="1339" on="0"/>
        <pt x="1362" y="1234" on="0"/>
        <pt x="1450" y="1087" on="0"/>
        <pt x="1501" y="896" on="0"/>
        <pt x="1501" y="776" on="1"/>
        <pt x="1501" y="649" on="0"/>
        <pt x="1417" y="433" on="0"/>
        <pt x="1279" y="255" on="0"/>
        <pt x="1102" y="118" on="0"/>
        <pt x="917" y="25" on="0"/>
        <pt x="739" y="-23" on="0"/>
        <pt x="668" y="-23" on="1"/>
        <pt x="600" y="-23" on="0"/>
        <pt x="449" y="23" on="0"/>
        <pt x="377" y="70" on="1"/>
        <pt x="343" y="32" on="0"/>
        <pt x="275" y="-37" on="0"/>
        <pt x="240" y="-72" on="1"/>
        <pt x="271" y="-31" on="0"/>
        <pt x="328" y="44" on="0"/>
        <pt x="356" y="82" on="1"/>
        <pt x="299" y="121" on="0"/>
        <pt x="198" y="228" on="0"/>
        <pt x="122" y="364" on="0"/>
        <pt x="78" y="526" on="0"/>
        <pt x="78" y="621" on="1"/>
        <pt x="78" y="761" on="0"/>
        <pt x="156" y="993" on="0"/>
        <pt x="285" y="1178" on="0"/>
        <pt x="450" y="1316" on="0"/>
        <pt x="623" y="1407" on="0"/>
        <pt x="791" y="1452" on="0"/>
        <pt x="858" y="1452" on="1"/>
        <pt x="895" y="1452" on="0"/>
        <pt x="974" y="1444" on="0"/>
        <pt x="1014" y="1436" on="1"/>
        <pt x="1014" y="1444" on="0"/>
        <pt x="1018" y="1452" on="1"/>
        <pt x="1027" y="1482" on="0"/>
        <pt x="1083" y="1516" on="0"/>
        <pt x="1160" y="1550" on="0"/>
        <pt x="1247" y="1598" on="0"/>
      </contour>
      <contour>
        <pt x="735" y="1341" on="1"/>
        <pt x="641" y="1341" on="0"/>
        <pt x="465" y="1270" on="0"/>
        <pt x="328" y="1119" on="0"/>
        <pt x="246" y="881" on="0"/>
        <pt x="246" y="715" on="1"/>
        <pt x="246" y="633" on="0"/>
        <pt x="282" y="493" on="0"/>
        <pt x="343" y="377" on="0"/>
        <pt x="426" y="284" on="0"/>
        <pt x="473" y="248" on="1"/>
        <pt x="585" y="416" on="0"/>
        <pt x="751" y="723" on="0"/>
        <pt x="871" y="988" on="0"/>
        <pt x="949" y="1206" on="0"/>
        <pt x="973" y="1284" on="1"/>
        <pt x="911" y="1313" on="0"/>
        <pt x="789" y="1341" on="0"/>
      </contour>
      <contour>
        <pt x="1319" y="715" on="1"/>
        <pt x="1319" y="801" on="0"/>
        <pt x="1286" y="947" on="0"/>
        <pt x="1227" y="1069" on="0"/>
        <pt x="1147" y="1166" on="0"/>
        <pt x="1100" y="1204" on="1"/>
        <pt x="1050" y="1099" on="0"/>
        <pt x="925" y="859" on="0"/>
        <pt x="776" y="606" on="0"/>
        <pt x="603" y="348" on="0"/>
        <pt x="506" y="225" on="1"/>
        <pt x="552" y="194" on="0"/>
        <pt x="648" y="150" on="0"/>
        <pt x="739" y="122" on="0"/>
        <pt x="821" y="109" on="0"/>
        <pt x="854" y="109" on="1"/>
        <pt x="901" y="109" on="0"/>
        <pt x="1006" y="137" on="0"/>
        <pt x="1110" y="198" on="0"/>
        <pt x="1204" y="294" on="0"/>
        <pt x="1276" y="428" on="0"/>
        <pt x="1319" y="604" on="0"/>
      </contour>
    </TTGlyph>
    <TTGlyph name="Oslashacute" xMin="78" yMin="-72" xMax="1501" yMax="1941">
      <component glyphName="Oslash" x="0" y="0" flags="0x204"/>
      <component glyphName="acute" x="776" y="260" flags="0x4"/>
    </TTGlyph>
    <TTGlyph name="Otilde" xMin="78" yMin="-23" xMax="1501" yMax="1781">
      <component glyphName="O" x="0" y="0" flags="0x204"/>
      <component glyphName="tilde" x="530" y="268" flags="0x4"/>
    </TTGlyph>
    <TTGlyph name="P" xMin="55" yMin="-2" xMax="1111" yMax="1466">
      <contour>
        <pt x="1102" y="1073" on="1"/>
        <pt x="1095" y="1006" on="0"/>
        <pt x="1048" y="893" on="0"/>
        <pt x="980" y="800" on="0"/>
        <pt x="901" y="727" on="0"/>
        <pt x="824" y="672" on="0"/>
        <pt x="756" y="635" on="0"/>
        <pt x="735" y="625" on="1"/>
        <pt x="706" y="612" on="0"/>
        <pt x="672" y="602" on="1"/>
        <pt x="643" y="594" on="0"/>
        <pt x="566" y="580" on="0"/>
        <pt x="522" y="582" on="1"/>
        <pt x="625" y="631" on="1"/>
        <pt x="682" y="627" on="0"/>
        <pt x="796" y="694" on="0"/>
        <pt x="884" y="815" on="0"/>
        <pt x="935" y="980" on="0"/>
        <pt x="928" y="1075" on="1"/>
        <pt x="922" y="1147" on="0"/>
        <pt x="855" y="1258" on="0"/>
        <pt x="761" y="1334" on="0"/>
        <pt x="651" y="1374" on="0"/>
        <pt x="600" y="1374" on="1"/>
        <pt x="565" y="1374" on="0"/>
        <pt x="467" y="1369" on="0"/>
        <pt x="412" y="1364" on="1"/>
        <pt x="409" y="1175" on="0"/>
        <pt x="402" y="878" on="0"/>
        <pt x="396" y="649" on="0"/>
        <pt x="391" y="482" on="0"/>
        <pt x="388" y="424" on="1"/>
        <pt x="382" y="287" on="0"/>
        <pt x="377" y="238" on="1"/>
        <pt x="374" y="218" on="0"/>
        <pt x="367" y="197" on="1"/>
        <pt x="361" y="179" on="0"/>
        <pt x="340" y="137" on="0"/>
        <pt x="324" y="117" on="1"/>
        <pt x="367" y="112" on="0"/>
        <pt x="436" y="111" on="0"/>
        <pt x="465" y="111" on="1"/>
        <pt x="534" y="111" on="0"/>
        <pt x="599" y="119" on="0"/>
        <pt x="604" y="121" on="1"/>
        <pt x="552" y="95" on="0"/>
        <pt x="460" y="51" on="0"/>
        <pt x="376" y="17" on="0"/>
        <pt x="299" y="-2" on="0"/>
        <pt x="262" y="-2" on="1"/>
        <pt x="88" y="-2" on="1"/>
        <pt x="176" y="57" on="1"/>
        <pt x="183" y="83" on="0"/>
        <pt x="196" y="155" on="0"/>
        <pt x="206" y="238" on="0"/>
        <pt x="213" y="327" on="0"/>
        <pt x="216" y="370" on="1"/>
        <pt x="222" y="469" on="0"/>
        <pt x="225" y="580" on="1"/>
        <pt x="227" y="734" on="0"/>
        <pt x="229" y="878" on="1"/>
        <pt x="230" y="939" on="0"/>
        <pt x="232" y="1069" on="0"/>
        <pt x="233" y="1194" on="0"/>
        <pt x="235" y="1305" on="0"/>
        <pt x="236" y="1348" on="1"/>
        <pt x="55" y="1329" on="1"/>
        <pt x="250" y="1446" on="1"/>
        <pt x="278" y="1443" on="0"/>
        <pt x="333" y="1442" on="0"/>
        <pt x="362" y="1442" on="1"/>
        <pt x="411" y="1442" on="0"/>
        <pt x="503" y="1449" on="0"/>
        <pt x="593" y="1458" on="0"/>
        <pt x="681" y="1466" on="0"/>
        <pt x="725" y="1466" on="1"/>
        <pt x="804" y="1466" on="0"/>
        <pt x="948" y="1412" on="0"/>
        <pt x="1055" y="1310" on="0"/>
        <pt x="1111" y="1164" on="0"/>
      </contour>
    </TTGlyph>
    <TTGlyph name="Q" xMin="78" yMin="-213" xMax="1864" yMax="1452">
      <contour>
        <pt x="1864" y="-94" on="1"/>
        <pt x="1786" y="-138" on="0"/>
        <pt x="1668" y="-186" on="0"/>
        <pt x="1627" y="-197" on="1"/>
        <pt x="1579" y="-210" on="0"/>
        <pt x="1546" y="-213" on="1"/>
        <pt x="1484" y="-213" on="0"/>
        <pt x="1328" y="-162" on="0"/>
        <pt x="1167" y="-89" on="0"/>
        <pt x="1014" y="-7" on="0"/>
        <pt x="954" y="25" on="1"/>
        <pt x="883" y="2" on="0"/>
        <pt x="746" y="-23" on="0"/>
        <pt x="686" y="-23" on="1"/>
        <pt x="625" y="-23" on="0"/>
        <pt x="488" y="14" on="0"/>
        <pt x="353" y="87" on="0"/>
        <pt x="229" y="196" on="0"/>
        <pt x="134" y="339" on="0"/>
        <pt x="78" y="516" on="0"/>
        <pt x="78" y="621" on="1"/>
        <pt x="78" y="748" on="0"/>
        <pt x="130" y="953" on="0"/>
        <pt x="219" y="1118" on="0"/>
        <pt x="336" y="1243" on="0"/>
        <pt x="467" y="1336" on="0"/>
        <pt x="603" y="1398" on="0"/>
        <pt x="729" y="1436" on="0"/>
        <pt x="837" y="1452" on="0"/>
        <pt x="874" y="1452" on="1"/>
        <pt x="945" y="1452" on="0"/>
        <pt x="1095" y="1422" on="0"/>
        <pt x="1238" y="1356" on="0"/>
        <pt x="1366" y="1251" on="0"/>
        <pt x="1462" y="1101" on="0"/>
        <pt x="1518" y="902" on="0"/>
        <pt x="1518" y="776" on="1"/>
        <pt x="1518" y="659" on="0"/>
        <pt x="1461" y="461" on="0"/>
        <pt x="1364" y="299" on="0"/>
        <pt x="1233" y="171" on="0"/>
        <pt x="1159" y="123" on="1"/>
        <pt x="1226" y="80" on="0"/>
        <pt x="1359" y="-5" on="0"/>
        <pt x="1494" y="-73" on="0"/>
        <pt x="1634" y="-115" on="0"/>
        <pt x="1708" y="-115" on="1"/>
        <pt x="1742" y="-115" on="0"/>
        <pt x="1820" y="-105" on="0"/>
      </contour>
      <contour>
        <pt x="1335" y="715" on="1"/>
        <pt x="1335" y="881" on="0"/>
        <pt x="1241" y="1118" on="0"/>
        <pt x="1082" y="1270" on="0"/>
        <pt x="870" y="1341" on="0"/>
        <pt x="752" y="1341" on="1"/>
        <pt x="684" y="1341" on="0"/>
        <pt x="556" y="1317" on="0"/>
        <pt x="443" y="1261" on="0"/>
        <pt x="350" y="1168" on="0"/>
        <pt x="283" y="1029" on="0"/>
        <pt x="246" y="839" on="0"/>
        <pt x="246" y="715" on="1"/>
        <pt x="246" y="604" on="0"/>
        <pt x="301" y="425" on="0"/>
        <pt x="394" y="286" on="0"/>
        <pt x="518" y="186" on="0"/>
        <pt x="657" y="121" on="0"/>
        <pt x="802" y="90" on="0"/>
        <pt x="870" y="90" on="1"/>
        <pt x="959" y="90" on="0"/>
        <pt x="1127" y="161" on="0"/>
        <pt x="1257" y="312" on="0"/>
        <pt x="1335" y="549" on="0"/>
      </contour>
    </TTGlyph>
    <TTGlyph name="R" xMin="53" yMin="-2" xMax="1516" yMax="1466">
      <contour>
        <pt x="1067" y="1073" on="1"/>
        <pt x="1059" y="998" on="0"/>
        <pt x="995" y="885" on="0"/>
        <pt x="905" y="799" on="0"/>
        <pt x="802" y="740" on="0"/>
        <pt x="756" y="719" on="1"/>
        <pt x="844" y="624" on="0"/>
        <pt x="985" y="476" on="0"/>
        <pt x="1095" y="362" on="0"/>
        <pt x="1176" y="279" on="0"/>
        <pt x="1205" y="251" on="1"/>
        <pt x="1273" y="184" on="0"/>
        <pt x="1300" y="162" on="1"/>
        <pt x="1328" y="140" on="0"/>
        <pt x="1394" y="123" on="0"/>
        <pt x="1425" y="123" on="1"/>
        <pt x="1451" y="123" on="0"/>
        <pt x="1499" y="133" on="0"/>
        <pt x="1513" y="139" on="1"/>
        <pt x="1465" y="107" on="0"/>
        <pt x="1392" y="55" on="0"/>
        <pt x="1331" y="18" on="0"/>
        <pt x="1276" y="-2" on="0"/>
        <pt x="1247" y="-2" on="1"/>
        <pt x="1227" y="-2" on="0"/>
        <pt x="1188" y="10" on="0"/>
        <pt x="1145" y="36" on="0"/>
        <pt x="1096" y="76" on="0"/>
        <pt x="1067" y="104" on="1"/>
        <pt x="1048" y="123" on="0"/>
        <pt x="972" y="208" on="0"/>
        <pt x="878" y="313" on="0"/>
        <pt x="776" y="427" on="0"/>
        <pt x="686" y="524" on="0"/>
        <pt x="617" y="594" on="0"/>
        <pt x="604" y="602" on="1"/>
        <pt x="589" y="611" on="0"/>
        <pt x="572" y="618" on="1"/>
        <pt x="558" y="624" on="0"/>
        <pt x="521" y="633" on="0"/>
        <pt x="504" y="631" on="1"/>
        <pt x="649" y="731" on="1"/>
        <pt x="699" y="731" on="0"/>
        <pt x="790" y="777" on="0"/>
        <pt x="857" y="866" on="0"/>
        <pt x="895" y="994" on="0"/>
        <pt x="891" y="1075" on="1"/>
        <pt x="889" y="1123" on="0"/>
        <pt x="850" y="1202" on="0"/>
        <pt x="789" y="1264" on="0"/>
        <pt x="711" y="1310" on="0"/>
        <pt x="629" y="1341" on="0"/>
        <pt x="548" y="1356" on="0"/>
        <pt x="514" y="1356" on="1"/>
        <pt x="491" y="1356" on="0"/>
        <pt x="437" y="1354" on="0"/>
        <pt x="410" y="1354" on="1"/>
        <pt x="407" y="1167" on="0"/>
        <pt x="400" y="873" on="0"/>
        <pt x="394" y="645" on="0"/>
        <pt x="389" y="480" on="0"/>
        <pt x="386" y="422" on="1"/>
        <pt x="380" y="286" on="0"/>
        <pt x="375" y="238" on="1"/>
        <pt x="372" y="218" on="0"/>
        <pt x="365" y="197" on="1"/>
        <pt x="359" y="179" on="0"/>
        <pt x="338" y="137" on="0"/>
        <pt x="322" y="117" on="1"/>
        <pt x="365" y="112" on="0"/>
        <pt x="434" y="111" on="0"/>
        <pt x="463" y="111" on="1"/>
        <pt x="532" y="111" on="0"/>
        <pt x="597" y="119" on="0"/>
        <pt x="602" y="121" on="1"/>
        <pt x="550" y="95" on="0"/>
        <pt x="458" y="51" on="0"/>
        <pt x="374" y="17" on="0"/>
        <pt x="297" y="-2" on="0"/>
        <pt x="260" y="-2" on="1"/>
        <pt x="86" y="-2" on="1"/>
        <pt x="174" y="57" on="1"/>
        <pt x="181" y="83" on="0"/>
        <pt x="194" y="155" on="0"/>
        <pt x="204" y="238" on="0"/>
        <pt x="211" y="327" on="0"/>
        <pt x="214" y="370" on="1"/>
        <pt x="220" y="469" on="0"/>
        <pt x="223" y="580" on="1"/>
        <pt x="225" y="733" on="0"/>
        <pt x="227" y="876" on="1"/>
        <pt x="228" y="937" on="0"/>
        <pt x="230" y="1066" on="0"/>
        <pt x="231" y="1189" on="0"/>
        <pt x="233" y="1300" on="0"/>
        <pt x="233" y="1343" on="1"/>
        <pt x="53" y="1329" on="1"/>
        <pt x="248" y="1446" on="1"/>
        <pt x="265" y="1443" on="0"/>
        <pt x="306" y="1442" on="0"/>
        <pt x="328" y="1442" on="1"/>
        <pt x="371" y="1442" on="0"/>
        <pt x="455" y="1449" on="0"/>
        <pt x="538" y="1458" on="0"/>
        <pt x="618" y="1466" on="0"/>
        <pt x="659" y="1466" on="1"/>
        <pt x="739" y="1466" on="0"/>
        <pt x="893" y="1412" on="0"/>
        <pt x="1010" y="1310" on="0"/>
        <pt x="1076" y="1164" on="0"/>
      </contour>
      <contour>
        <pt x="1516" y="141" on="1"/>
        <pt x="1514" y="140" on="0"/>
        <pt x="1514" y="140" on="1"/>
        <pt x="1513" y="140" on="1"/>
        <pt x="1513" y="139" on="1"/>
        <pt x="1513" y="140" on="1"/>
        <pt x="1514" y="140" on="1"/>
        <pt x="1515" y="141" on="0"/>
      </contour>
    </TTGlyph>
    <TTGlyph name="Racute" xMin="53" yMin="-2" xMax="1516" yMax="1966">
      <component glyphName="R" x="0" y="0" flags="0x204"/>
      <component glyphName="acute" x="582" y="285" flags="0x4"/>
    </TTGlyph>
    <TTGlyph name="Rcaron" xMin="53" yMin="-2" xMax="1516" yMax="1921">
      <component glyphName="R" x="0" y="0" flags="0x204"/>
      <component glyphName="caron" x="358" y="305" flags="0x4"/>
    </TTGlyph>
    <TTGlyph name="Rcommaaccent" xMin="53" yMin="-428" xMax="1516" yMax="1466">
      <component glyphName="R" x="0" y="0" flags="0x204"/>
      <component glyphName="uni0326" x="498" y="137" flags="0x4"/>
    </TTGlyph>
    <TTGlyph name="S" xMin="29" yMin="-41" xMax="970" yMax="1451">
      <contour>
        <pt x="952" y="422" on="1"/>
        <pt x="952" y="371" on="0"/>
        <pt x="886" y="263" on="0"/>
        <pt x="779" y="162" on="0"/>
        <pt x="646" y="72" on="0"/>
        <pt x="511" y="3" on="0"/>
        <pt x="387" y="-38" on="0"/>
        <pt x="344" y="-39" on="1"/>
        <pt x="303" y="-41" on="0"/>
        <pt x="209" y="-23" on="0"/>
        <pt x="124" y="4" on="0"/>
        <pt x="57" y="35" on="0"/>
        <pt x="45" y="47" on="1"/>
        <pt x="38" y="55" on="0"/>
        <pt x="29" y="74" on="0"/>
        <pt x="29" y="97" on="0"/>
        <pt x="42" y="122" on="0"/>
        <pt x="57" y="135" on="1"/>
        <pt x="71" y="146" on="0"/>
        <pt x="92" y="163" on="1"/>
        <pt x="110" y="177" on="0"/>
        <pt x="166" y="222" on="0"/>
        <pt x="207" y="254" on="1"/>
        <pt x="192" y="239" on="0"/>
        <pt x="184" y="213" on="0"/>
        <pt x="185" y="202" on="1"/>
        <pt x="186" y="190" on="0"/>
        <pt x="193" y="180" on="1"/>
        <pt x="203" y="167" on="0"/>
        <pt x="253" y="135" on="0"/>
        <pt x="324" y="108" on="0"/>
        <pt x="413" y="90" on="0"/>
        <pt x="461" y="90" on="1"/>
        <pt x="520" y="90" on="0"/>
        <pt x="636" y="113" on="0"/>
        <pt x="729" y="167" on="0"/>
        <pt x="786" y="256" on="0"/>
        <pt x="786" y="322" on="1"/>
        <pt x="786" y="383" on="0"/>
        <pt x="729" y="476" on="0"/>
        <pt x="637" y="550" on="0"/>
        <pt x="518" y="611" on="0"/>
        <pt x="395" y="671" on="0"/>
        <pt x="276" y="733" on="0"/>
        <pt x="184" y="810" on="0"/>
        <pt x="127" y="907" on="0"/>
        <pt x="127" y="971" on="1"/>
        <pt x="127" y="1033" on="0"/>
        <pt x="188" y="1152" on="0"/>
        <pt x="288" y="1257" on="0"/>
        <pt x="417" y="1347" on="0"/>
        <pt x="553" y="1412" on="0"/>
        <pt x="684" y="1449" on="0"/>
        <pt x="737" y="1450" on="1"/>
        <pt x="788" y="1451" on="0"/>
        <pt x="882" y="1440" on="0"/>
        <pt x="946" y="1418" on="0"/>
        <pt x="970" y="1385" on="0"/>
        <pt x="952" y="1364" on="1"/>
        <pt x="937" y="1347" on="0"/>
        <pt x="915" y="1328" on="1"/>
        <pt x="895" y="1311" on="0"/>
        <pt x="837" y="1269" on="0"/>
        <pt x="795" y="1245" on="1"/>
        <pt x="803" y="1257" on="0"/>
        <pt x="805" y="1276" on="0"/>
        <pt x="803" y="1282" on="1"/>
        <pt x="800" y="1289" on="0"/>
        <pt x="795" y="1294" on="1"/>
        <pt x="788" y="1300" on="0"/>
        <pt x="753" y="1314" on="0"/>
        <pt x="701" y="1328" on="0"/>
        <pt x="635" y="1337" on="0"/>
        <pt x="598" y="1337" on="1"/>
        <pt x="538" y="1337" on="0"/>
        <pt x="427" y="1308" on="0"/>
        <pt x="342" y="1248" on="0"/>
        <pt x="291" y="1156" on="0"/>
        <pt x="291" y="1094" on="1"/>
        <pt x="291" y="1026" on="0"/>
        <pt x="348" y="924" on="0"/>
        <pt x="441" y="845" on="0"/>
        <pt x="560" y="781" on="0"/>
        <pt x="683" y="722" on="0"/>
        <pt x="802" y="660" on="0"/>
        <pt x="895" y="584" on="0"/>
        <pt x="952" y="487" on="0"/>
      </contour>
    </TTGlyph>
    <TTGlyph name="Sacute" xMin="29" yMin="-41" xMax="1018" yMax="1906">
      <component glyphName="S" x="0" y="0" flags="0x204"/>
      <component glyphName="acute" x="500" y="225" flags="0x4"/>
    </TTGlyph>
    <TTGlyph name="Scaron" xMin="29" yMin="-41" xMax="970" yMax="1870">
      <component glyphName="S" x="0" y="0" flags="0x204"/>
      <component glyphName="caron" x="270" y="254" flags="0x4"/>
    </TTGlyph>
    <TTGlyph name="Scedilla" xMin="29" yMin="-434" xMax="970" yMax="1451">
      <contour>
        <pt x="952" y="422" on="1"/>
        <pt x="952" y="379" on="0"/>
        <pt x="905" y="289" on="0"/>
        <pt x="826" y="203" on="0"/>
        <pt x="723" y="122" on="0"/>
        <pt x="610" y="53" on="0"/>
        <pt x="496" y="0" on="0"/>
        <pt x="446" y="-16" on="1"/>
        <pt x="354" y="-129" on="1"/>
        <pt x="360" y="-123" on="0"/>
        <pt x="392" y="-117" on="0"/>
        <pt x="403" y="-115" on="1"/>
        <pt x="432" y="-111" on="0"/>
        <pt x="489" y="-117" on="0"/>
        <pt x="534" y="-137" on="0"/>
        <pt x="564" y="-171" on="0"/>
        <pt x="567" y="-195" on="1"/>
        <pt x="572" y="-232" on="0"/>
        <pt x="538" y="-299" on="0"/>
        <pt x="476" y="-355" on="0"/>
        <pt x="394" y="-397" on="0"/>
        <pt x="307" y="-424" on="0"/>
        <pt x="224" y="-434" on="0"/>
        <pt x="193" y="-428" on="1"/>
        <pt x="242" y="-338" on="1"/>
        <pt x="259" y="-350" on="0"/>
        <pt x="299" y="-363" on="0"/>
        <pt x="335" y="-367" on="0"/>
        <pt x="365" y="-365" on="0"/>
        <pt x="371" y="-362" on="1"/>
        <pt x="399" y="-351" on="0"/>
        <pt x="434" y="-324" on="0"/>
        <pt x="428" y="-293" on="1"/>
        <pt x="425" y="-265" on="0"/>
        <pt x="400" y="-231" on="0"/>
        <pt x="364" y="-213" on="0"/>
        <pt x="320" y="-207" on="0"/>
        <pt x="299" y="-207" on="1"/>
        <pt x="279" y="-207" on="0"/>
        <pt x="237" y="-211" on="0"/>
        <pt x="217" y="-217" on="1"/>
        <pt x="276" y="-145" on="0"/>
        <pt x="352" y="-60" on="0"/>
        <pt x="377" y="-35" on="1"/>
        <pt x="368" y="-37" on="0"/>
        <pt x="352" y="-39" on="0"/>
        <pt x="344" y="-39" on="1"/>
        <pt x="303" y="-41" on="0"/>
        <pt x="209" y="-23" on="0"/>
        <pt x="124" y="4" on="0"/>
        <pt x="57" y="35" on="0"/>
        <pt x="45" y="47" on="1"/>
        <pt x="38" y="55" on="0"/>
        <pt x="29" y="74" on="0"/>
        <pt x="29" y="97" on="0"/>
        <pt x="42" y="122" on="0"/>
        <pt x="57" y="135" on="1"/>
        <pt x="71" y="146" on="0"/>
        <pt x="92" y="163" on="1"/>
        <pt x="110" y="177" on="0"/>
        <pt x="166" y="222" on="0"/>
        <pt x="207" y="254" on="1"/>
        <pt x="192" y="239" on="0"/>
        <pt x="184" y="213" on="0"/>
        <pt x="185" y="202" on="1"/>
        <pt x="186" y="190" on="0"/>
        <pt x="193" y="180" on="1"/>
        <pt x="203" y="167" on="0"/>
        <pt x="253" y="135" on="0"/>
        <pt x="324" y="108" on="0"/>
        <pt x="413" y="90" on="0"/>
        <pt x="461" y="90" on="1"/>
        <pt x="520" y="90" on="0"/>
        <pt x="636" y="113" on="0"/>
        <pt x="729" y="167" on="0"/>
        <pt x="786" y="256" on="0"/>
        <pt x="786" y="322" on="1"/>
        <pt x="786" y="383" on="0"/>
        <pt x="729" y="476" on="0"/>
        <pt x="637" y="550" on="0"/>
        <pt x="518" y="611" on="0"/>
        <pt x="395" y="671" on="0"/>
        <pt x="276" y="733" on="0"/>
        <pt x="184" y="810" on="0"/>
        <pt x="127" y="907" on="0"/>
        <pt x="127" y="971" on="1"/>
        <pt x="127" y="1033" on="0"/>
        <pt x="188" y="1152" on="0"/>
        <pt x="288" y="1257" on="0"/>
        <pt x="417" y="1347" on="0"/>
        <pt x="553" y="1412" on="0"/>
        <pt x="684" y="1449" on="0"/>
        <pt x="737" y="1450" on="1"/>
        <pt x="788" y="1451" on="0"/>
        <pt x="882" y="1440" on="0"/>
        <pt x="946" y="1418" on="0"/>
        <pt x="970" y="1385" on="0"/>
        <pt x="952" y="1364" on="1"/>
        <pt x="937" y="1347" on="0"/>
        <pt x="915" y="1328" on="1"/>
        <pt x="895" y="1311" on="0"/>
        <pt x="837" y="1269" on="0"/>
        <pt x="795" y="1245" on="1"/>
        <pt x="803" y="1257" on="0"/>
        <pt x="805" y="1276" on="0"/>
        <pt x="803" y="1282" on="1"/>
        <pt x="800" y="1289" on="0"/>
        <pt x="795" y="1294" on="1"/>
        <pt x="788" y="1300" on="0"/>
        <pt x="753" y="1314" on="0"/>
        <pt x="701" y="1328" on="0"/>
        <pt x="635" y="1337" on="0"/>
        <pt x="598" y="1337" on="1"/>
        <pt x="538" y="1337" on="0"/>
        <pt x="427" y="1308" on="0"/>
        <pt x="342" y="1248" on="0"/>
        <pt x="291" y="1156" on="0"/>
        <pt x="291" y="1094" on="1"/>
        <pt x="291" y="1026" on="0"/>
        <pt x="348" y="924" on="0"/>
        <pt x="441" y="845" on="0"/>
        <pt x="560" y="781" on="0"/>
        <pt x="683" y="722" on="0"/>
        <pt x="802" y="660" on="0"/>
        <pt x="895" y="584" on="0"/>
        <pt x="952" y="487" on="0"/>
      </contour>
    </TTGlyph>
    <TTGlyph name="Scircumflex" xMin="29" yMin="-41" xMax="970" yMax="1917">
      <component glyphName="S" x="0" y="0" flags="0x204"/>
      <component glyphName="circumflex" x="270" y="301" flags="0x4"/>
    </TTGlyph>
    <TTGlyph name="T" xMin="-29" yMin="0" xMax="1299" yMax="1477">
      <contour>
        <pt x="1270" y="1397" on="1"/>
        <pt x="1259" y="1391" on="0"/>
        <pt x="1236" y="1378" on="1"/>
        <pt x="1216" y="1367" on="0"/>
        <pt x="1147" y="1326" on="0"/>
        <pt x="1092" y="1294" on="1"/>
        <pt x="1109" y="1316" on="0"/>
        <pt x="1106" y="1335" on="0"/>
        <pt x="1098" y="1338" on="1"/>
        <pt x="1088" y="1342" on="0"/>
        <pt x="1071" y="1339" on="1"/>
        <pt x="1061" y="1337" on="0"/>
        <pt x="995" y="1332" on="0"/>
        <pt x="896" y="1328" on="0"/>
        <pt x="770" y="1324" on="0"/>
        <pt x="700" y="1323" on="1"/>
        <pt x="696" y="1156" on="0"/>
        <pt x="690" y="892" on="0"/>
        <pt x="685" y="688" on="0"/>
        <pt x="682" y="538" on="0"/>
        <pt x="681" y="485" on="1"/>
        <pt x="678" y="361" on="0"/>
        <pt x="678" y="313" on="1"/>
        <pt x="677" y="276" on="0"/>
        <pt x="668" y="240" on="1"/>
        <pt x="660" y="209" on="0"/>
        <pt x="628" y="138" on="0"/>
        <pt x="598" y="109" on="1"/>
        <pt x="617" y="107" on="0"/>
        <pt x="651" y="106" on="0"/>
        <pt x="668" y="106" on="1"/>
        <pt x="715" y="106" on="0"/>
        <pt x="790" y="115" on="0"/>
        <pt x="844" y="125" on="0"/>
        <pt x="877" y="135" on="0"/>
        <pt x="881" y="137" on="1"/>
        <pt x="828" y="101" on="0"/>
        <pt x="758" y="49" on="0"/>
        <pt x="702" y="16" on="0"/>
        <pt x="648" y="0" on="0"/>
        <pt x="612" y="0" on="1"/>
        <pt x="564" y="0" on="0"/>
        <pt x="497" y="8" on="0"/>
        <pt x="463" y="8" on="1"/>
        <pt x="446" y="8" on="0"/>
        <pt x="411" y="5" on="0"/>
        <pt x="389" y="0" on="1"/>
        <pt x="417" y="24" on="0"/>
        <pt x="464" y="81" on="0"/>
        <pt x="496" y="163" on="0"/>
        <pt x="514" y="277" on="0"/>
        <pt x="514" y="358" on="1"/>
        <pt x="514" y="1317" on="1"/>
        <pt x="427" y="1315" on="0"/>
        <pt x="260" y="1311" on="0"/>
        <pt x="126" y="1308" on="0"/>
        <pt x="35" y="1304" on="0"/>
        <pt x="23" y="1303" on="1"/>
        <pt x="-5" y="1300" on="0"/>
        <pt x="-29" y="1310" on="0"/>
        <pt x="-27" y="1331" on="0"/>
        <pt x="0" y="1361" on="0"/>
        <pt x="23" y="1378" on="1"/>
        <pt x="160" y="1477" on="1"/>
        <pt x="145" y="1459" on="0"/>
        <pt x="156" y="1441" on="0"/>
        <pt x="168" y="1436" on="1"/>
        <pt x="182" y="1431" on="0"/>
        <pt x="205" y="1430" on="1"/>
        <pt x="221" y="1430" on="0"/>
        <pt x="319" y="1432" on="0"/>
        <pt x="460" y="1435" on="0"/>
        <pt x="632" y="1438" on="0"/>
        <pt x="810" y="1443" on="0"/>
        <pt x="982" y="1447" on="0"/>
        <pt x="1123" y="1450" on="0"/>
        <pt x="1221" y="1453" on="0"/>
        <pt x="1237" y="1454" on="1"/>
        <pt x="1268" y="1455" on="0"/>
        <pt x="1296" y="1443" on="0"/>
        <pt x="1299" y="1423" on="0"/>
        <pt x="1282" y="1403" on="0"/>
      </contour>
      <contour>
        <pt x="881" y="137" on="1"/>
        <pt x="881" y="138" on="1"/>
        <pt x="882" y="139" on="0"/>
        <pt x="883" y="139" on="1"/>
      </contour>
    </TTGlyph>
    <TTGlyph name="Tbar" xMin="-29" yMin="0" xMax="1299" yMax="1477">
      <contour>
        <pt x="1270" y="1397" on="1"/>
        <pt x="1259" y="1391" on="0"/>
        <pt x="1236" y="1378" on="1"/>
        <pt x="1216" y="1367" on="0"/>
        <pt x="1147" y="1326" on="0"/>
        <pt x="1092" y="1294" on="1"/>
        <pt x="1109" y="1316" on="0"/>
        <pt x="1106" y="1335" on="0"/>
        <pt x="1098" y="1338" on="1"/>
        <pt x="1088" y="1342" on="0"/>
        <pt x="1071" y="1339" on="1"/>
        <pt x="1061" y="1337" on="0"/>
        <pt x="995" y="1332" on="0"/>
        <pt x="896" y="1328" on="0"/>
        <pt x="770" y="1324" on="0"/>
        <pt x="700" y="1323" on="1"/>
        <pt x="695" y="1134" on="0"/>
        <pt x="687" y="857" on="0"/>
        <pt x="686" y="750" on="1"/>
        <pt x="1030" y="750" on="1"/>
        <pt x="1012" y="747" on="0"/>
        <pt x="963" y="701" on="0"/>
        <pt x="908" y="648" on="0"/>
        <pt x="846" y="606" on="0"/>
        <pt x="815" y="606" on="1"/>
        <pt x="682" y="606" on="1"/>
        <pt x="680" y="517" on="0"/>
        <pt x="678" y="404" on="0"/>
        <pt x="678" y="371" on="1"/>
        <pt x="677" y="332" on="0"/>
        <pt x="678" y="313" on="1"/>
        <pt x="677" y="276" on="0"/>
        <pt x="668" y="240" on="1"/>
        <pt x="660" y="209" on="0"/>
        <pt x="628" y="138" on="0"/>
        <pt x="598" y="109" on="1"/>
        <pt x="617" y="107" on="0"/>
        <pt x="651" y="106" on="0"/>
        <pt x="668" y="106" on="1"/>
        <pt x="715" y="106" on="0"/>
        <pt x="790" y="115" on="0"/>
        <pt x="844" y="125" on="0"/>
        <pt x="877" y="135" on="0"/>
        <pt x="881" y="137" on="1"/>
        <pt x="828" y="101" on="0"/>
        <pt x="758" y="49" on="0"/>
        <pt x="702" y="16" on="0"/>
        <pt x="648" y="0" on="0"/>
        <pt x="612" y="0" on="1"/>
        <pt x="564" y="0" on="0"/>
        <pt x="497" y="8" on="0"/>
        <pt x="463" y="8" on="1"/>
        <pt x="446" y="8" on="0"/>
        <pt x="411" y="5" on="0"/>
        <pt x="389" y="0" on="1"/>
        <pt x="417" y="24" on="0"/>
        <pt x="464" y="81" on="0"/>
        <pt x="496" y="163" on="0"/>
        <pt x="514" y="277" on="0"/>
        <pt x="514" y="358" on="1"/>
        <pt x="514" y="606" on="1"/>
        <pt x="217" y="606" on="1"/>
        <pt x="242" y="610" on="0"/>
        <pt x="296" y="657" on="0"/>
        <pt x="352" y="708" on="0"/>
        <pt x="408" y="750" on="0"/>
        <pt x="436" y="750" on="1"/>
        <pt x="514" y="750" on="1"/>
        <pt x="514" y="1317" on="1"/>
        <pt x="427" y="1315" on="0"/>
        <pt x="260" y="1311" on="0"/>
        <pt x="126" y="1308" on="0"/>
        <pt x="35" y="1304" on="0"/>
        <pt x="23" y="1303" on="1"/>
        <pt x="-5" y="1300" on="0"/>
        <pt x="-29" y="1310" on="0"/>
        <pt x="-27" y="1331" on="0"/>
        <pt x="0" y="1361" on="0"/>
        <pt x="23" y="1378" on="1"/>
        <pt x="160" y="1477" on="1"/>
        <pt x="145" y="1459" on="0"/>
        <pt x="156" y="1441" on="0"/>
        <pt x="168" y="1436" on="1"/>
        <pt x="182" y="1431" on="0"/>
        <pt x="205" y="1430" on="1"/>
        <pt x="221" y="1430" on="0"/>
        <pt x="319" y="1432" on="0"/>
        <pt x="460" y="1435" on="0"/>
        <pt x="632" y="1438" on="0"/>
        <pt x="810" y="1443" on="0"/>
        <pt x="982" y="1447" on="0"/>
        <pt x="1123" y="1450" on="0"/>
        <pt x="1221" y="1453" on="0"/>
        <pt x="1237" y="1454" on="1"/>
        <pt x="1268" y="1455" on="0"/>
        <pt x="1296" y="1443" on="0"/>
        <pt x="1299" y="1423" on="0"/>
        <pt x="1282" y="1403" on="0"/>
      </contour>
      <contour>
        <pt x="881" y="137" on="1"/>
        <pt x="881" y="138" on="1"/>
        <pt x="882" y="139" on="0"/>
        <pt x="883" y="139" on="1"/>
      </contour>
    </TTGlyph>
    <TTGlyph name="Tcaron" xMin="-29" yMin="0" xMax="1299" yMax="1899">
      <component glyphName="T" x="0" y="0" flags="0x204"/>
      <component glyphName="caron" x="303" y="283" flags="0x4"/>
    </TTGlyph>
    <TTGlyph name="Tcommaaccent" xMin="-29" yMin="-485" xMax="1299" yMax="1477">
      <component glyphName="T" x="0" y="0" flags="0x204"/>
      <component glyphName="uni0326" x="381" y="80" flags="0x4"/>
    </TTGlyph>
    <TTGlyph name="Thorn" xMin="53" yMin="-2" xMax="1109" yMax="1530">
      <contour>
        <pt x="412" y="1530" on="1"/>
        <pt x="406" y="1171" on="1"/>
        <pt x="489" y="1175" on="0"/>
        <pt x="644" y="1196" on="0"/>
        <pt x="723" y="1196" on="1"/>
        <pt x="802" y="1196" on="0"/>
        <pt x="946" y="1141" on="0"/>
        <pt x="1053" y="1039" on="0"/>
        <pt x="1109" y="893" on="0"/>
        <pt x="1100" y="803" on="1"/>
        <pt x="1093" y="736" on="0"/>
        <pt x="1046" y="623" on="0"/>
        <pt x="978" y="530" on="0"/>
        <pt x="899" y="456" on="0"/>
        <pt x="822" y="401" on="0"/>
        <pt x="754" y="363" on="0"/>
        <pt x="733" y="352" on="1"/>
        <pt x="704" y="339" on="0"/>
        <pt x="670" y="329" on="1"/>
        <pt x="641" y="321" on="0"/>
        <pt x="564" y="307" on="0"/>
        <pt x="520" y="309" on="1"/>
        <pt x="623" y="358" on="1"/>
        <pt x="680" y="355" on="0"/>
        <pt x="794" y="422" on="0"/>
        <pt x="882" y="544" on="0"/>
        <pt x="933" y="710" on="0"/>
        <pt x="926" y="805" on="1"/>
        <pt x="920" y="875" on="0"/>
        <pt x="853" y="986" on="0"/>
        <pt x="759" y="1062" on="0"/>
        <pt x="649" y="1102" on="0"/>
        <pt x="598" y="1102" on="1"/>
        <pt x="561" y="1102" on="0"/>
        <pt x="460" y="1097" on="0"/>
        <pt x="403" y="1092" on="1"/>
        <pt x="400" y="951" on="0"/>
        <pt x="395" y="728" on="0"/>
        <pt x="390" y="555" on="0"/>
        <pt x="386" y="428" on="0"/>
        <pt x="384" y="383" on="1"/>
        <pt x="380" y="277" on="0"/>
        <pt x="375" y="238" on="1"/>
        <pt x="372" y="218" on="0"/>
        <pt x="365" y="197" on="1"/>
        <pt x="359" y="179" on="0"/>
        <pt x="338" y="137" on="0"/>
        <pt x="322" y="117" on="1"/>
        <pt x="365" y="112" on="0"/>
        <pt x="434" y="111" on="0"/>
        <pt x="463" y="111" on="1"/>
        <pt x="532" y="111" on="0"/>
        <pt x="597" y="119" on="0"/>
        <pt x="602" y="121" on="1"/>
        <pt x="550" y="95" on="0"/>
        <pt x="458" y="51" on="0"/>
        <pt x="374" y="17" on="0"/>
        <pt x="297" y="-2" on="0"/>
        <pt x="260" y="-2" on="1"/>
        <pt x="86" y="-2" on="1"/>
        <pt x="174" y="57" on="1"/>
        <pt x="181" y="83" on="0"/>
        <pt x="194" y="155" on="0"/>
        <pt x="204" y="238" on="0"/>
        <pt x="211" y="327" on="0"/>
        <pt x="214" y="370" on="1"/>
        <pt x="220" y="469" on="0"/>
        <pt x="223" y="580" on="1"/>
        <pt x="223" y="657" on="0"/>
        <pt x="225" y="741" on="1"/>
        <pt x="226" y="813" on="0"/>
        <pt x="229" y="987" on="0"/>
        <pt x="231" y="1075" on="1"/>
        <pt x="177" y="1069" on="0"/>
        <pt x="84" y="1061" on="0"/>
        <pt x="53" y="1059" on="1"/>
        <pt x="231" y="1165" on="1"/>
        <pt x="233" y="1222" on="0"/>
        <pt x="233" y="1319" on="0"/>
        <pt x="233" y="1354" on="1"/>
      </contour>
    </TTGlyph>
    <TTGlyph name="U" xMin="57" yMin="-16" xMax="1602" yMax="1444">
      <contour>
        <pt x="569" y="1444" on="1"/>
        <pt x="529" y="1416" on="0"/>
        <pt x="432" y="1354" on="0"/>
        <pt x="387" y="1335" on="1"/>
        <pt x="383" y="1207" on="0"/>
        <pt x="378" y="997" on="0"/>
        <pt x="373" y="828" on="0"/>
        <pt x="371" y="698" on="0"/>
        <pt x="370" y="649" on="1"/>
        <pt x="368" y="535" on="0"/>
        <pt x="369" y="475" on="1"/>
        <pt x="367" y="404" on="0"/>
        <pt x="411" y="270" on="0"/>
        <pt x="510" y="164" on="0"/>
        <pt x="670" y="100" on="0"/>
        <pt x="784" y="100" on="1"/>
        <pt x="846" y="102" on="0"/>
        <pt x="913" y="118" on="1"/>
        <pt x="970" y="132" on="0"/>
        <pt x="1108" y="188" on="0"/>
        <pt x="1174" y="242" on="1"/>
        <pt x="1174" y="1323" on="1"/>
        <pt x="1160" y="1325" on="0"/>
        <pt x="1130" y="1325" on="0"/>
        <pt x="1116" y="1325" on="1"/>
        <pt x="1088" y="1325" on="0"/>
        <pt x="1033" y="1322" on="0"/>
        <pt x="1010" y="1319" on="1"/>
        <pt x="1057" y="1361" on="0"/>
        <pt x="1130" y="1405" on="0"/>
        <pt x="1156" y="1416" on="1"/>
        <pt x="1186" y="1428" on="0"/>
        <pt x="1208" y="1430" on="1"/>
        <pt x="1227" y="1430" on="0"/>
        <pt x="1285" y="1431" on="0"/>
        <pt x="1350" y="1433" on="0"/>
        <pt x="1417" y="1436" on="0"/>
        <pt x="1474" y="1439" on="0"/>
        <pt x="1515" y="1442" on="0"/>
        <pt x="1522" y="1444" on="1"/>
        <pt x="1487" y="1419" on="0"/>
        <pt x="1400" y="1364" on="0"/>
        <pt x="1360" y="1346" on="1"/>
        <pt x="1360" y="315" on="1"/>
        <pt x="1359" y="266" on="0"/>
        <pt x="1354" y="224" on="1"/>
        <pt x="1349" y="188" on="0"/>
        <pt x="1332" y="119" on="0"/>
        <pt x="1315" y="106" on="1"/>
        <pt x="1371" y="98" on="0"/>
        <pt x="1457" y="94" on="0"/>
        <pt x="1489" y="94" on="1"/>
        <pt x="1546" y="94" on="0"/>
        <pt x="1596" y="102" on="0"/>
        <pt x="1599" y="104" on="1"/>
        <pt x="1552" y="77" on="0"/>
        <pt x="1474" y="38" on="0"/>
        <pt x="1405" y="13" on="0"/>
        <pt x="1340" y="0" on="0"/>
        <pt x="1307" y="0" on="1"/>
        <pt x="1112" y="0" on="1"/>
        <pt x="1135" y="8" on="0"/>
        <pt x="1160" y="62" on="0"/>
        <pt x="1166" y="91" on="1"/>
        <pt x="1173" y="124" on="0"/>
        <pt x="1174" y="164" on="1"/>
        <pt x="1174" y="211" on="1"/>
        <pt x="1068" y="125" on="0"/>
        <pt x="876" y="33" on="0"/>
        <pt x="801" y="12" on="1"/>
        <pt x="714" y="-13" on="0"/>
        <pt x="637" y="-16" on="1"/>
        <pt x="511" y="-16" on="0"/>
        <pt x="340" y="51" on="0"/>
        <pt x="237" y="171" on="0"/>
        <pt x="194" y="339" on="0"/>
        <pt x="197" y="440" on="1"/>
        <pt x="196" y="523" on="0"/>
        <pt x="198" y="649" on="1"/>
        <pt x="199" y="757" on="0"/>
        <pt x="204" y="1090" on="0"/>
        <pt x="209" y="1325" on="1"/>
        <pt x="164" y="1325" on="1"/>
        <pt x="136" y="1325" on="0"/>
        <pt x="80" y="1322" on="0"/>
        <pt x="57" y="1319" on="1"/>
        <pt x="104" y="1361" on="0"/>
        <pt x="177" y="1405" on="0"/>
        <pt x="203" y="1416" on="1"/>
        <pt x="233" y="1428" on="0"/>
        <pt x="256" y="1430" on="1"/>
        <pt x="275" y="1430" on="0"/>
        <pt x="333" y="1431" on="0"/>
        <pt x="398" y="1433" on="0"/>
        <pt x="465" y="1436" on="0"/>
        <pt x="522" y="1439" on="0"/>
        <pt x="562" y="1442" on="0"/>
      </contour>
      <contour>
        <pt x="1599" y="104" on="1"/>
        <pt x="1599" y="105" on="1"/>
        <pt x="1600" y="105" on="1"/>
        <pt x="1601" y="106" on="0"/>
        <pt x="1602" y="106" on="1"/>
      </contour>
    </TTGlyph>
    <TTGlyph name="Uacute" xMin="57" yMin="-16" xMax="1602" yMax="1867">
      <component glyphName="U" x="0" y="0" flags="0x204"/>
      <component glyphName="acute" x="788" y="186" flags="0x4"/>
    </TTGlyph>
    <TTGlyph name="Ubreve" xMin="57" yMin="-16" xMax="1602" yMax="1784">
      <component glyphName="U" x="0" y="0" flags="0x204"/>
      <component glyphName="breve" x="543" y="209" flags="0x4"/>
    </TTGlyph>
    <TTGlyph name="Ucircumflex" xMin="57" yMin="-16" xMax="1602" yMax="1899">
      <component glyphName="U" x="0" y="0" flags="0x204"/>
      <component glyphName="circumflex" x="518" y="283" flags="0x4"/>
    </TTGlyph>
    <TTGlyph name="Udieresis" xMin="57" yMin="-16" xMax="1602" yMax="1702">
      <component glyphName="U" x="0" y="0" flags="0x204"/>
      <component glyphName="dieresis" x="512" y="209" flags="0x4"/>
    </TTGlyph>
    <TTGlyph name="Ugrave" xMin="57" yMin="-16" xMax="1602" yMax="1843">
      <component glyphName="U" x="0" y="0" flags="0x204"/>
      <component glyphName="grave" x="455" y="178" flags="0x4"/>
    </TTGlyph>
    <TTGlyph name="Uhungarumlaut" xMin="57" yMin="-16" xMax="1602" yMax="1937">
      <component glyphName="U" x="0" y="0" flags="0x204"/>
      <component glyphName="hungarumlaut" x="641" y="256" flags="0x4"/>
    </TTGlyph>
    <TTGlyph name="Umacron" xMin="57" yMin="-16" xMax="1602" yMax="1657">
      <component glyphName="U" x="0" y="0" flags="0x204"/>
      <component glyphName="macron" x="496" y="195" flags="0x4"/>
    </TTGlyph>
    <TTGlyph name="Uogonek" xMin="57" yMin="-403" xMax="1602" yMax="1444">
      <contour>
        <pt x="1540" y="-254" on="1"/>
        <pt x="1499" y="-296" on="0"/>
        <pt x="1429" y="-353" on="0"/>
        <pt x="1366" y="-388" on="0"/>
        <pt x="1306" y="-403" on="0"/>
        <pt x="1274" y="-403" on="1"/>
        <pt x="1239" y="-403" on="0"/>
        <pt x="1180" y="-377" on="0"/>
        <pt x="1138" y="-332" on="0"/>
        <pt x="1114" y="-272" on="0"/>
        <pt x="1114" y="-238" on="1"/>
        <pt x="1114" y="-195" on="0"/>
        <pt x="1136" y="-124" on="0"/>
        <pt x="1174" y="-66" on="0"/>
        <pt x="1225" y="-19" on="0"/>
        <pt x="1253" y="0" on="1"/>
        <pt x="1112" y="0" on="1"/>
        <pt x="1135" y="8" on="0"/>
        <pt x="1160" y="62" on="0"/>
        <pt x="1166" y="91" on="1"/>
        <pt x="1173" y="124" on="0"/>
        <pt x="1174" y="164" on="1"/>
        <pt x="1174" y="211" on="1"/>
        <pt x="1068" y="125" on="0"/>
        <pt x="876" y="33" on="0"/>
        <pt x="801" y="12" on="1"/>
        <pt x="714" y="-13" on="0"/>
        <pt x="637" y="-16" on="1"/>
        <pt x="511" y="-16" on="0"/>
        <pt x="340" y="51" on="0"/>
        <pt x="237" y="171" on="0"/>
        <pt x="194" y="339" on="0"/>
        <pt x="197" y="440" on="1"/>
        <pt x="196" y="523" on="0"/>
        <pt x="198" y="649" on="1"/>
        <pt x="199" y="757" on="0"/>
        <pt x="204" y="1090" on="0"/>
        <pt x="209" y="1325" on="1"/>
        <pt x="164" y="1325" on="1"/>
        <pt x="136" y="1325" on="0"/>
        <pt x="80" y="1322" on="0"/>
        <pt x="57" y="1319" on="1"/>
        <pt x="104" y="1361" on="0"/>
        <pt x="177" y="1405" on="0"/>
        <pt x="203" y="1416" on="1"/>
        <pt x="233" y="1428" on="0"/>
        <pt x="256" y="1430" on="1"/>
        <pt x="275" y="1430" on="0"/>
        <pt x="333" y="1431" on="0"/>
        <pt x="398" y="1433" on="0"/>
        <pt x="465" y="1436" on="0"/>
        <pt x="522" y="1439" on="0"/>
        <pt x="562" y="1442" on="0"/>
        <pt x="569" y="1444" on="1"/>
        <pt x="529" y="1416" on="0"/>
        <pt x="432" y="1354" on="0"/>
        <pt x="387" y="1335" on="1"/>
        <pt x="383" y="1207" on="0"/>
        <pt x="378" y="997" on="0"/>
        <pt x="373" y="828" on="0"/>
        <pt x="371" y="698" on="0"/>
        <pt x="370" y="649" on="1"/>
        <pt x="368" y="535" on="0"/>
        <pt x="369" y="475" on="1"/>
        <pt x="367" y="404" on="0"/>
        <pt x="411" y="270" on="0"/>
        <pt x="510" y="164" on="0"/>
        <pt x="670" y="100" on="0"/>
        <pt x="784" y="100" on="1"/>
        <pt x="846" y="102" on="0"/>
        <pt x="913" y="118" on="1"/>
        <pt x="970" y="132" on="0"/>
        <pt x="1108" y="188" on="0"/>
        <pt x="1174" y="242" on="1"/>
        <pt x="1174" y="1323" on="1"/>
        <pt x="1160" y="1325" on="0"/>
        <pt x="1130" y="1325" on="0"/>
        <pt x="1116" y="1325" on="1"/>
        <pt x="1088" y="1325" on="0"/>
        <pt x="1033" y="1322" on="0"/>
        <pt x="1010" y="1319" on="1"/>
        <pt x="1057" y="1361" on="0"/>
        <pt x="1130" y="1405" on="0"/>
        <pt x="1156" y="1416" on="1"/>
        <pt x="1186" y="1428" on="0"/>
        <pt x="1208" y="1430" on="1"/>
        <pt x="1227" y="1430" on="0"/>
        <pt x="1285" y="1431" on="0"/>
        <pt x="1350" y="1433" on="0"/>
        <pt x="1417" y="1436" on="0"/>
        <pt x="1474" y="1439" on="0"/>
        <pt x="1515" y="1442" on="0"/>
        <pt x="1522" y="1444" on="1"/>
        <pt x="1487" y="1419" on="0"/>
        <pt x="1400" y="1364" on="0"/>
        <pt x="1360" y="1346" on="1"/>
        <pt x="1360" y="315" on="1"/>
        <pt x="1359" y="266" on="0"/>
        <pt x="1354" y="224" on="1"/>
        <pt x="1349" y="188" on="0"/>
        <pt x="1332" y="119" on="0"/>
        <pt x="1315" y="106" on="1"/>
        <pt x="1371" y="98" on="0"/>
        <pt x="1457" y="94" on="0"/>
        <pt x="1489" y="94" on="1"/>
        <pt x="1542" y="94" on="0"/>
        <pt x="1591" y="100" on="0"/>
        <pt x="1597" y="102" on="1"/>
        <pt x="1550" y="76" on="0"/>
        <pt x="1473" y="38" on="0"/>
        <pt x="1404" y="12" on="0"/>
        <pt x="1340" y="0" on="0"/>
        <pt x="1307" y="0" on="1"/>
        <pt x="1300" y="0" on="1"/>
        <pt x="1274" y="-34" on="0"/>
        <pt x="1239" y="-112" on="0"/>
        <pt x="1239" y="-156" on="1"/>
        <pt x="1239" y="-227" on="0"/>
        <pt x="1313" y="-303" on="0"/>
        <pt x="1384" y="-303" on="1"/>
        <pt x="1408" y="-303" on="0"/>
        <pt x="1444" y="-300" on="0"/>
        <pt x="1479" y="-290" on="0"/>
        <pt x="1516" y="-271" on="0"/>
      </contour>
      <contour>
        <pt x="1599" y="104" on="1"/>
        <pt x="1599" y="105" on="1"/>
        <pt x="1600" y="105" on="1"/>
        <pt x="1601" y="106" on="0"/>
        <pt x="1602" y="106" on="1"/>
      </contour>
      <contour>
        <pt x="1597" y="102" on="1"/>
        <pt x="1597" y="103" on="1"/>
        <pt x="1598" y="104" on="0"/>
        <pt x="1599" y="104" on="1"/>
      </contour>
    </TTGlyph>
    <TTGlyph name="Uring" xMin="57" yMin="-16" xMax="1602" yMax="1839">
      <component glyphName="U" x="0" y="0" flags="0x204"/>
      <component glyphName="ring" x="657" y="256" flags="0x4"/>
    </TTGlyph>
    <TTGlyph name="Utilde" xMin="57" yMin="-16" xMax="1602" yMax="1787">
      <component glyphName="U" x="0" y="0" flags="0x204"/>
      <component glyphName="tilde" x="526" y="274" flags="0x4"/>
    </TTGlyph>
    <TTGlyph name="V" xMin="-31" yMin="-31" xMax="1483" yMax="1444">
      <contour>
        <pt x="481" y="1444" on="1"/>
        <pt x="447" y="1421" on="0"/>
        <pt x="366" y="1368" on="0"/>
        <pt x="326" y="1348" on="1"/>
        <pt x="390" y="1177" on="0"/>
        <pt x="503" y="875" on="0"/>
        <pt x="604" y="596" on="0"/>
        <pt x="690" y="333" on="0"/>
        <pt x="727" y="203" on="1"/>
        <pt x="772" y="280" on="0"/>
        <pt x="870" y="456" on="0"/>
        <pt x="962" y="642" on="0"/>
        <pt x="1045" y="835" on="0"/>
        <pt x="1107" y="1023" on="0"/>
        <pt x="1143" y="1202" on="0"/>
        <pt x="1143" y="1282" on="1"/>
        <pt x="1143" y="1293" on="0"/>
        <pt x="1141" y="1314" on="0"/>
        <pt x="1139" y="1323" on="1"/>
        <pt x="1125" y="1325" on="0"/>
        <pt x="1095" y="1325" on="0"/>
        <pt x="1079" y="1325" on="1"/>
        <pt x="1051" y="1325" on="0"/>
        <pt x="996" y="1322" on="0"/>
        <pt x="973" y="1319" on="1"/>
        <pt x="1019" y="1361" on="0"/>
        <pt x="1092" y="1405" on="0"/>
        <pt x="1118" y="1416" on="1"/>
        <pt x="1148" y="1428" on="0"/>
        <pt x="1171" y="1430" on="1"/>
        <pt x="1190" y="1430" on="0"/>
        <pt x="1248" y="1431" on="0"/>
        <pt x="1313" y="1433" on="0"/>
        <pt x="1380" y="1436" on="0"/>
        <pt x="1436" y="1439" on="0"/>
        <pt x="1477" y="1442" on="0"/>
        <pt x="1483" y="1444" on="1"/>
        <pt x="1462" y="1429" on="0"/>
        <pt x="1413" y="1396" on="0"/>
        <pt x="1362" y="1365" on="0"/>
        <pt x="1310" y="1338" on="0"/>
        <pt x="1286" y="1329" on="1"/>
        <pt x="1275" y="1232" on="0"/>
        <pt x="1207" y="1012" on="0"/>
        <pt x="1117" y="790" on="0"/>
        <pt x="1015" y="581" on="0"/>
        <pt x="923" y="411" on="0"/>
        <pt x="852" y="293" on="0"/>
        <pt x="838" y="274" on="1"/>
        <pt x="821" y="249" on="0"/>
        <pt x="803" y="221" on="1"/>
        <pt x="788" y="197" on="0"/>
        <pt x="753" y="135" on="0"/>
        <pt x="739" y="102" on="1"/>
        <pt x="606" y="-31" on="1"/>
        <pt x="586" y="31" on="0"/>
        <pt x="559" y="117" on="0"/>
        <pt x="537" y="182" on="0"/>
        <pt x="519" y="237" on="0"/>
        <pt x="497" y="299" on="0"/>
        <pt x="469" y="376" on="0"/>
        <pt x="428" y="488" on="0"/>
        <pt x="370" y="641" on="0"/>
        <pt x="290" y="856" on="0"/>
        <pt x="184" y="1139" on="0"/>
        <pt x="115" y="1325" on="1"/>
        <pt x="76" y="1325" on="1"/>
        <pt x="48" y="1325" on="0"/>
        <pt x="-8" y="1322" on="0"/>
        <pt x="-31" y="1319" on="1"/>
        <pt x="16" y="1361" on="0"/>
        <pt x="89" y="1405" on="0"/>
        <pt x="115" y="1416" on="1"/>
        <pt x="145" y="1428" on="0"/>
        <pt x="168" y="1430" on="1"/>
        <pt x="187" y="1430" on="0"/>
        <pt x="245" y="1431" on="0"/>
        <pt x="310" y="1433" on="0"/>
        <pt x="377" y="1436" on="0"/>
        <pt x="434" y="1439" on="0"/>
        <pt x="474" y="1442" on="0"/>
      </contour>
    </TTGlyph>
    <TTGlyph name="W" xMin="-16" yMin="-47" xMax="2404" yMax="1444">
      <contour>
        <pt x="1726" y="125" on="1"/>
        <pt x="1589" y="-37" on="1"/>
        <pt x="1464" y="274" on="0"/>
        <pt x="1249" y="890" on="0"/>
        <pt x="1167" y="1202" on="1"/>
        <pt x="1107" y="1035" on="0"/>
        <pt x="986" y="705" on="0"/>
        <pt x="848" y="388" on="0"/>
        <pt x="685" y="89" on="0"/>
        <pt x="584" y="-47" on="1"/>
        <pt x="525" y="127" on="0"/>
        <pt x="419" y="474" on="0"/>
        <pt x="315" y="818" on="0"/>
        <pt x="206" y="1156" on="0"/>
        <pt x="143" y="1323" on="1"/>
        <pt x="129" y="1325" on="0"/>
        <pt x="104" y="1325" on="0"/>
        <pt x="90" y="1325" on="1"/>
        <pt x="62" y="1325" on="0"/>
        <pt x="7" y="1322" on="0"/>
        <pt x="-16" y="1319" on="1"/>
        <pt x="31" y="1361" on="0"/>
        <pt x="104" y="1405" on="0"/>
        <pt x="130" y="1416" on="1"/>
        <pt x="160" y="1428" on="0"/>
        <pt x="182" y="1430" on="1"/>
        <pt x="201" y="1430" on="0"/>
        <pt x="259" y="1431" on="0"/>
        <pt x="324" y="1433" on="0"/>
        <pt x="391" y="1436" on="0"/>
        <pt x="448" y="1439" on="0"/>
        <pt x="489" y="1442" on="0"/>
        <pt x="496" y="1444" on="1"/>
        <pt x="458" y="1419" on="0"/>
        <pt x="371" y="1361" on="0"/>
        <pt x="328" y="1341" on="1"/>
        <pt x="676" y="207" on="1"/>
        <pt x="700" y="250" on="0"/>
        <pt x="748" y="348" on="0"/>
        <pt x="795" y="450" on="0"/>
        <pt x="839" y="550" on="0"/>
        <pt x="858" y="596" on="1"/>
        <pt x="903" y="703" on="0"/>
        <pt x="944" y="811" on="1"/>
        <pt x="983" y="918" on="0"/>
        <pt x="1013" y="1016" on="1"/>
        <pt x="1026" y="1058" on="0"/>
        <pt x="1050" y="1145" on="0"/>
        <pt x="1068" y="1226" on="0"/>
        <pt x="1078" y="1297" on="0"/>
        <pt x="1077" y="1323" on="1"/>
        <pt x="1065" y="1325" on="0"/>
        <pt x="1043" y="1325" on="0"/>
        <pt x="1030" y="1325" on="1"/>
        <pt x="1002" y="1325" on="0"/>
        <pt x="947" y="1322" on="0"/>
        <pt x="924" y="1319" on="1"/>
        <pt x="971" y="1361" on="0"/>
        <pt x="1045" y="1405" on="0"/>
        <pt x="1071" y="1416" on="1"/>
        <pt x="1101" y="1428" on="0"/>
        <pt x="1124" y="1430" on="1"/>
        <pt x="1142" y="1430" on="0"/>
        <pt x="1199" y="1431" on="0"/>
        <pt x="1264" y="1433" on="0"/>
        <pt x="1331" y="1436" on="0"/>
        <pt x="1388" y="1439" on="0"/>
        <pt x="1429" y="1442" on="0"/>
        <pt x="1436" y="1444" on="1"/>
        <pt x="1408" y="1424" on="0"/>
        <pt x="1341" y="1380" on="0"/>
        <pt x="1309" y="1362" on="1"/>
        <pt x="1356" y="1200" on="0"/>
        <pt x="1446" y="895" on="0"/>
        <pt x="1540" y="604" on="0"/>
        <pt x="1641" y="325" on="0"/>
        <pt x="1698" y="190" on="1"/>
        <pt x="1724" y="247" on="0"/>
        <pt x="1774" y="365" on="0"/>
        <pt x="1822" y="479" on="0"/>
        <pt x="1865" y="586" on="0"/>
        <pt x="1884" y="633" on="1"/>
        <pt x="1928" y="744" on="0"/>
        <pt x="1966" y="846" on="1"/>
        <pt x="1996" y="932" on="0"/>
        <pt x="2021" y="1014" on="1"/>
        <pt x="2031" y="1049" on="0"/>
        <pt x="2052" y="1123" on="0"/>
        <pt x="2067" y="1196" on="0"/>
        <pt x="2077" y="1263" on="0"/>
        <pt x="2077" y="1290" on="1"/>
        <pt x="2077" y="1300" on="0"/>
        <pt x="2077" y="1315" on="0"/>
        <pt x="2075" y="1323" on="1"/>
        <pt x="2056" y="1323" on="0"/>
        <pt x="2017" y="1325" on="0"/>
        <pt x="1999" y="1325" on="1"/>
        <pt x="1971" y="1325" on="0"/>
        <pt x="1915" y="1322" on="0"/>
        <pt x="1892" y="1319" on="1"/>
        <pt x="1938" y="1361" on="0"/>
        <pt x="2012" y="1405" on="0"/>
        <pt x="2038" y="1416" on="1"/>
        <pt x="2068" y="1428" on="0"/>
        <pt x="2091" y="1430" on="1"/>
        <pt x="2110" y="1430" on="0"/>
        <pt x="2168" y="1431" on="0"/>
        <pt x="2233" y="1433" on="0"/>
        <pt x="2300" y="1436" on="0"/>
        <pt x="2357" y="1439" on="0"/>
        <pt x="2397" y="1442" on="0"/>
        <pt x="2404" y="1444" on="1"/>
        <pt x="2382" y="1429" on="0"/>
        <pt x="2330" y="1395" on="0"/>
        <pt x="2277" y="1363" on="0"/>
        <pt x="2225" y="1336" on="0"/>
        <pt x="2202" y="1327" on="1"/>
        <pt x="2110" y="1009" on="0"/>
        <pt x="1867" y="420" on="0"/>
        <pt x="1722" y="133" on="1"/>
        <pt x="1722" y="129" on="0"/>
      </contour>
    </TTGlyph>
    <TTGlyph name="Wacute" xMin="-16" yMin="-47" xMax="2404" yMax="1925">
      <component glyphName="W" x="0" y="0" flags="0x204"/>
      <component glyphName="acute" x="1171" y="244" flags="0x4"/>
    </TTGlyph>
    <TTGlyph name="Wcircumflex" xMin="-16" yMin="-47" xMax="2404" yMax="1890">
      <component glyphName="W" x="0" y="0" flags="0x204"/>
      <component glyphName="circumflex" x="899" y="274" flags="0x4"/>
    </TTGlyph>
    <TTGlyph name="Wdieresis" xMin="-16" yMin="-47" xMax="2404" yMax="1737">
      <component glyphName="W" x="0" y="0" flags="0x204"/>
      <component glyphName="dieresis" x="895" y="244" flags="0x4"/>
    </TTGlyph>
    <TTGlyph name="Wgrave" xMin="-16" yMin="-47" xMax="2404" yMax="1898">
      <component glyphName="W" x="0" y="0" flags="0x204"/>
      <component glyphName="grave" x="848" y="233" flags="0x4"/>
    </TTGlyph>
    <TTGlyph name="X" xMin="-39" yMin="-10" xMax="1438" yMax="1464">
      <contour>
        <pt x="1438" y="94" on="1"/>
        <pt x="1411" y="77" on="0"/>
        <pt x="1351" y="42" on="0"/>
        <pt x="1288" y="13" on="0"/>
        <pt x="1220" y="-6" on="0"/>
        <pt x="1186" y="-6" on="1"/>
        <pt x="1183" y="-6" on="0"/>
        <pt x="1142" y="-7" on="0"/>
        <pt x="1092" y="-8" on="0"/>
        <pt x="1044" y="-8" on="0"/>
        <pt x="1034" y="-6" on="1"/>
        <pt x="1055" y="16" on="1"/>
        <pt x="637" y="627" on="1"/>
        <pt x="601" y="582" on="0"/>
        <pt x="523" y="490" on="0"/>
        <pt x="418" y="369" on="0"/>
        <pt x="274" y="205" on="0"/>
        <pt x="172" y="88" on="1"/>
        <pt x="212" y="83" on="0"/>
        <pt x="279" y="80" on="0"/>
        <pt x="305" y="80" on="1"/>
        <pt x="332" y="80" on="0"/>
        <pt x="371" y="82" on="0"/>
        <pt x="385" y="84" on="1"/>
        <pt x="401" y="86" on="0"/>
        <pt x="412" y="88" on="1"/>
        <pt x="361" y="61" on="0"/>
        <pt x="281" y="24" on="0"/>
        <pt x="212" y="2" on="0"/>
        <pt x="147" y="-8" on="0"/>
        <pt x="111" y="-8" on="1"/>
        <pt x="109" y="-8" on="0"/>
        <pt x="69" y="-9" on="0"/>
        <pt x="18" y="-10" on="0"/>
        <pt x="-30" y="-10" on="0"/>
        <pt x="-39" y="-8" on="1"/>
        <pt x="121" y="100" on="1"/>
        <pt x="246" y="250" on="0"/>
        <pt x="481" y="542" on="0"/>
        <pt x="594" y="690" on="1"/>
        <pt x="160" y="1325" on="1"/>
        <pt x="129" y="1322" on="0"/>
        <pt x="53" y="1313" on="0"/>
        <pt x="6" y="1305" on="1"/>
        <pt x="59" y="1355" on="0"/>
        <pt x="146" y="1407" on="0"/>
        <pt x="177" y="1419" on="1"/>
        <pt x="213" y="1433" on="0"/>
        <pt x="242" y="1434" on="1"/>
        <pt x="277" y="1433" on="0"/>
        <pt x="361" y="1437" on="0"/>
        <pt x="440" y="1446" on="0"/>
        <pt x="505" y="1457" on="0"/>
        <pt x="522" y="1464" on="1"/>
        <pt x="476" y="1429" on="0"/>
        <pt x="400" y="1381" on="0"/>
        <pt x="365" y="1366" on="1"/>
        <pt x="715" y="852" on="1"/>
        <pt x="801" y="971" on="0"/>
        <pt x="964" y="1207" on="0"/>
        <pt x="1044" y="1329" on="1"/>
        <pt x="1015" y="1326" on="0"/>
        <pt x="940" y="1319" on="0"/>
        <pt x="897" y="1313" on="1"/>
        <pt x="951" y="1361" on="0"/>
        <pt x="1039" y="1411" on="0"/>
        <pt x="1071" y="1422" on="1"/>
        <pt x="1108" y="1435" on="0"/>
        <pt x="1137" y="1436" on="1"/>
        <pt x="1151" y="1434" on="0"/>
        <pt x="1181" y="1434" on="0"/>
        <pt x="1196" y="1434" on="1"/>
        <pt x="1228" y="1434" on="0"/>
        <pt x="1295" y="1437" on="0"/>
        <pt x="1355" y="1443" on="0"/>
        <pt x="1403" y="1451" on="0"/>
        <pt x="1417" y="1456" on="1"/>
        <pt x="1374" y="1424" on="0"/>
        <pt x="1303" y="1381" on="0"/>
        <pt x="1238" y="1352" on="0"/>
        <pt x="1177" y="1337" on="0"/>
        <pt x="1145" y="1333" on="1"/>
        <pt x="1072" y="1230" on="0"/>
        <pt x="956" y="1066" on="0"/>
        <pt x="863" y="934" on="0"/>
        <pt x="789" y="830" on="0"/>
        <pt x="758" y="788" on="1"/>
        <pt x="1233" y="94" on="1"/>
        <pt x="1306" y="88" on="0"/>
        <pt x="1350" y="88" on="1"/>
        <pt x="1396" y="88" on="0"/>
        <pt x="1417" y="91" on="1"/>
        <pt x="1429" y="92" on="0"/>
      </contour>
    </TTGlyph>
    <TTGlyph name="Y" xMin="-45" yMin="-8" xMax="1317" yMax="1464">
      <contour>
        <pt x="969" y="113" on="1"/>
        <pt x="913" y="77" on="0"/>
        <pt x="811" y="30" on="0"/>
        <pt x="697" y="3" on="0"/>
        <pt x="563" y="-8" on="0"/>
        <pt x="477" y="-8" on="1"/>
        <pt x="494" y="6" on="0"/>
        <pt x="515" y="33" on="0"/>
        <pt x="527" y="68" on="0"/>
        <pt x="533" y="116" on="0"/>
        <pt x="535" y="150" on="1"/>
        <pt x="535" y="179" on="0"/>
        <pt x="537" y="238" on="1"/>
        <pt x="539" y="288" on="0"/>
        <pt x="545" y="460" on="0"/>
        <pt x="551" y="594" on="1"/>
        <pt x="442" y="784" on="0"/>
        <pt x="288" y="1046" on="0"/>
        <pt x="185" y="1216" on="0"/>
        <pt x="127" y="1307" on="0"/>
        <pt x="113" y="1327" on="1"/>
        <pt x="84" y="1324" on="0"/>
        <pt x="3" y="1313" on="0"/>
        <pt x="-45" y="1305" on="1"/>
        <pt x="9" y="1355" on="0"/>
        <pt x="95" y="1407" on="0"/>
        <pt x="126" y="1419" on="1"/>
        <pt x="162" y="1433" on="0"/>
        <pt x="190" y="1434" on="1"/>
        <pt x="226" y="1433" on="0"/>
        <pt x="310" y="1437" on="0"/>
        <pt x="390" y="1446" on="0"/>
        <pt x="455" y="1457" on="0"/>
        <pt x="471" y="1464" on="1"/>
        <pt x="428" y="1430" on="0"/>
        <pt x="356" y="1386" on="0"/>
        <pt x="322" y="1370" on="1"/>
        <pt x="698" y="745" on="1"/>
        <pt x="776" y="872" on="0"/>
        <pt x="884" y="1069" on="0"/>
        <pt x="953" y="1214" on="0"/>
        <pt x="988" y="1308" on="0"/>
        <pt x="995" y="1331" on="1"/>
        <pt x="966" y="1329" on="0"/>
        <pt x="863" y="1322" on="0"/>
        <pt x="795" y="1313" on="1"/>
        <pt x="837" y="1347" on="0"/>
        <pt x="906" y="1393" on="0"/>
        <pt x="975" y="1421" on="0"/>
        <pt x="1049" y="1434" on="0"/>
        <pt x="1096" y="1434" on="1"/>
        <pt x="1128" y="1434" on="0"/>
        <pt x="1195" y="1437" on="0"/>
        <pt x="1255" y="1443" on="0"/>
        <pt x="1303" y="1451" on="0"/>
        <pt x="1317" y="1456" on="1"/>
        <pt x="1254" y="1410" on="0"/>
        <pt x="1157" y="1360" on="0"/>
        <pt x="1112" y="1348" on="1"/>
        <pt x="1054" y="1218" on="0"/>
        <pt x="935" y="1002" on="0"/>
        <pt x="829" y="834" on="0"/>
        <pt x="742" y="716" on="0"/>
        <pt x="717" y="684" on="1"/>
        <pt x="715" y="594" on="0"/>
        <pt x="711" y="453" on="0"/>
        <pt x="708" y="345" on="0"/>
        <pt x="706" y="268" on="0"/>
        <pt x="706" y="241" on="1"/>
        <pt x="704" y="179" on="0"/>
        <pt x="705" y="158" on="1"/>
        <pt x="705" y="146" on="0"/>
        <pt x="702" y="134" on="1"/>
        <pt x="700" y="123" on="0"/>
        <pt x="688" y="100" on="0"/>
        <pt x="678" y="92" on="1"/>
        <pt x="698" y="90" on="0"/>
        <pt x="735" y="90" on="0"/>
        <pt x="752" y="90" on="1"/>
        <pt x="810" y="90" on="0"/>
        <pt x="893" y="96" on="0"/>
        <pt x="919" y="101" on="1"/>
        <pt x="950" y="106" on="0"/>
      </contour>
    </TTGlyph>
    <TTGlyph name="Yacute" xMin="-45" yMin="-8" xMax="1317" yMax="1859">
      <component glyphName="Y" x="0" y="0" flags="0x204"/>
      <component glyphName="acute" x="637" y="178" flags="0x4"/>
    </TTGlyph>
    <TTGlyph name="Ycircumflex" xMin="-45" yMin="-8" xMax="1317" yMax="1892">
      <component glyphName="Y" x="0" y="0" flags="0x204"/>
      <component glyphName="circumflex" x="393" y="276" flags="0x4"/>
    </TTGlyph>
    <TTGlyph name="Ydieresis" xMin="-45" yMin="-8" xMax="1317" yMax="1710">
      <component glyphName="Y" x="0" y="0" flags="0x204"/>
      <component glyphName="dieresis" x="373" y="217" flags="0x4"/>
    </TTGlyph>
    <TTGlyph name="Ygrave" xMin="-45" yMin="-8" xMax="1317" yMax="1890">
      <component glyphName="Y" x="0" y="0" flags="0x204"/>
      <component glyphName="grave" x="338" y="225" flags="0x4"/>
    </TTGlyph>
    <TTGlyph name="Z" xMin="35" yMin="-20" xMax="1036" yMax="1438">
      <contour>
        <pt x="944" y="817" on="1"/>
        <pt x="899" y="792" on="0"/>
        <pt x="828" y="751" on="0"/>
        <pt x="766" y="720" on="0"/>
        <pt x="712" y="699" on="0"/>
        <pt x="684" y="694" on="1"/>
        <pt x="669" y="691" on="0"/>
        <pt x="621" y="690" on="0"/>
        <pt x="590" y="690" on="1"/>
        <pt x="565" y="641" on="0"/>
        <pt x="528" y="570" on="0"/>
        <pt x="515" y="547" on="1"/>
        <pt x="500" y="520" on="0"/>
        <pt x="489" y="500" on="1"/>
        <pt x="402" y="324" on="0"/>
        <pt x="281" y="128" on="0"/>
        <pt x="240" y="96" on="1"/>
        <pt x="266" y="101" on="0"/>
        <pt x="318" y="104" on="0"/>
        <pt x="346" y="104" on="1"/>
        <pt x="391" y="104" on="0"/>
        <pt x="479" y="98" on="0"/>
        <pt x="565" y="93" on="0"/>
        <pt x="647" y="91" on="0"/>
        <pt x="688" y="96" on="1"/>
        <pt x="743" y="99" on="0"/>
        <pt x="802" y="105" on="1"/>
        <pt x="853" y="110" on="0"/>
        <pt x="976" y="129" on="0"/>
        <pt x="1036" y="145" on="1"/>
        <pt x="985" y="94" on="0"/>
        <pt x="876" y="30" on="0"/>
        <pt x="759" y="-6" on="0"/>
        <pt x="635" y="-20" on="0"/>
        <pt x="571" y="-20" on="1"/>
        <pt x="511" y="-20" on="0"/>
        <pt x="386" y="-15" on="0"/>
        <pt x="276" y="-9" on="0"/>
        <pt x="190" y="-4" on="0"/>
        <pt x="168" y="-4" on="1"/>
        <pt x="143" y="-4" on="0"/>
        <pt x="118" y="-6" on="1"/>
        <pt x="97" y="-8" on="0"/>
        <pt x="51" y="-14" on="0"/>
        <pt x="35" y="-20" on="1"/>
        <pt x="62" y="12" on="0"/>
        <pt x="123" y="101" on="0"/>
        <pt x="186" y="203" on="0"/>
        <pt x="248" y="312" on="0"/>
        <pt x="276" y="364" on="1"/>
        <pt x="342" y="486" on="0"/>
        <pt x="408" y="621" on="1"/>
        <pt x="411" y="628" on="0"/>
        <pt x="416" y="639" on="1"/>
        <pt x="420" y="648" on="0"/>
        <pt x="432" y="673" on="0"/>
        <pt x="440" y="690" on="1"/>
        <pt x="383" y="688" on="0"/>
        <pt x="263" y="679" on="0"/>
        <pt x="207" y="668" on="1"/>
        <pt x="381" y="784" on="1"/>
        <pt x="410" y="784" on="0"/>
        <pt x="461" y="784" on="0"/>
        <pt x="487" y="786" on="1"/>
        <pt x="513" y="841" on="0"/>
        <pt x="576" y="976" on="0"/>
        <pt x="642" y="1118" on="0"/>
        <pt x="706" y="1263" on="0"/>
        <pt x="735" y="1329" on="1"/>
        <pt x="703" y="1326" on="0"/>
        <pt x="617" y="1321" on="0"/>
        <pt x="521" y="1316" on="0"/>
        <pt x="421" y="1313" on="0"/>
        <pt x="332" y="1311" on="0"/>
        <pt x="259" y="1310" on="0"/>
        <pt x="238" y="1311" on="1"/>
        <pt x="213" y="1312" on="0"/>
        <pt x="183" y="1309" on="1"/>
        <pt x="157" y="1307" on="0"/>
        <pt x="91" y="1293" on="0"/>
        <pt x="53" y="1280" on="1"/>
        <pt x="100" y="1340" on="0"/>
        <pt x="186" y="1403" on="0"/>
        <pt x="219" y="1418" on="1"/>
        <pt x="258" y="1436" on="0"/>
        <pt x="291" y="1438" on="1"/>
        <pt x="319" y="1438" on="0"/>
        <pt x="438" y="1435" on="0"/>
        <pt x="586" y="1432" on="0"/>
        <pt x="748" y="1430" on="0"/>
        <pt x="821" y="1430" on="1"/>
        <pt x="896" y="1430" on="0"/>
        <pt x="1010" y="1433" on="0"/>
        <pt x="1036" y="1438" on="1"/>
        <pt x="1012" y="1422" on="0"/>
        <pt x="962" y="1395" on="0"/>
        <pt x="936" y="1382" on="1"/>
        <pt x="838" y="1181" on="0"/>
        <pt x="695" y="896" on="0"/>
        <pt x="643" y="793" on="1"/>
        <pt x="721" y="797" on="0"/>
        <pt x="835" y="805" on="0"/>
        <pt x="872" y="809" on="1"/>
        <pt x="915" y="813" on="0"/>
      </contour>
    </TTGlyph>
    <TTGlyph name="Zacute" xMin="35" yMin="-20" xMax="1059" yMax="1945">
      <component glyphName="Z" x="0" y="0" flags="0x204"/>
      <component glyphName="acute" x="541" y="264" flags="0x4"/>
    </TTGlyph>
    <TTGlyph name="Zcaron" xMin="35" yMin="-20" xMax="1036" yMax="1901">
      <component glyphName="Z" x="0" y="0" flags="0x204"/>
      <component glyphName="caron" x="309" y="285" flags="0x4"/>
    </TTGlyph>
    <TTGlyph name="Zdotaccent" xMin="35" yMin="-20" xMax="1036" yMax="1722">
      <component glyphName="Z" x="0" y="0" flags="0x204"/>
      <component glyphName="dotaccent" x="477" y="229" flags="0x4"/>
    </TTGlyph>
    <TTGlyph name="a" xMin="71" yMin="-25" xMax="1030" yMax="1053">
      <contour>
        <pt x="1030" y="260" on="1"/>
        <pt x="1021" y="246" on="0"/>
        <pt x="989" y="207" on="0"/>
        <pt x="973" y="188" on="1"/>
        <pt x="955" y="166" on="0"/>
        <pt x="934" y="143" on="1"/>
        <pt x="908" y="111" on="0"/>
        <pt x="848" y="51" on="0"/>
        <pt x="789" y="4" on="0"/>
        <pt x="733" y="-24" on="0"/>
        <pt x="711" y="-23" on="1"/>
        <pt x="669" y="-21" on="0"/>
        <pt x="637" y="78" on="0"/>
        <pt x="637" y="172" on="1"/>
        <pt x="637" y="222" on="0"/>
        <pt x="643" y="338" on="0"/>
        <pt x="649" y="410" on="1"/>
        <pt x="627" y="375" on="0"/>
        <pt x="587" y="317" on="0"/>
        <pt x="571" y="295" on="1"/>
        <pt x="553" y="269" on="0"/>
        <pt x="535" y="248" on="1"/>
        <pt x="482" y="183" on="0"/>
        <pt x="383" y="83" on="0"/>
        <pt x="300" y="15" on="0"/>
        <pt x="237" y="-21" on="0"/>
        <pt x="219" y="-23" on="1"/>
        <pt x="201" y="-25" on="0"/>
        <pt x="150" y="3" on="0"/>
        <pt x="104" y="83" on="0"/>
        <pt x="71" y="227" on="0"/>
        <pt x="72" y="342" on="1"/>
        <pt x="73" y="457" on="0"/>
        <pt x="120" y="632" on="0"/>
        <pt x="195" y="763" on="0"/>
        <pt x="287" y="858" on="0"/>
        <pt x="332" y="893" on="1"/>
        <pt x="425" y="964" on="0"/>
        <pt x="596" y="1049" on="0"/>
        <pt x="678" y="1051" on="1"/>
        <pt x="705" y="1052" on="0"/>
        <pt x="731" y="1050" on="1"/>
        <pt x="754" y="1048" on="0"/>
        <pt x="807" y="1039" on="0"/>
        <pt x="831" y="1030" on="1"/>
        <pt x="860" y="1053" on="1"/>
        <pt x="854" y="1025" on="0"/>
        <pt x="841" y="929" on="0"/>
        <pt x="829" y="809" on="0"/>
        <pt x="817" y="673" on="0"/>
        <pt x="808" y="536" on="0"/>
        <pt x="800" y="407" on="0"/>
        <pt x="795" y="301" on="0"/>
        <pt x="794" y="227" on="0"/>
        <pt x="795" y="213" on="1"/>
        <pt x="800" y="156" on="0"/>
        <pt x="843" y="114" on="0"/>
        <pt x="881" y="139" on="1"/>
        <pt x="896" y="151" on="0"/>
        <pt x="918" y="177" on="1"/>
        <pt x="937" y="199" on="0"/>
        <pt x="992" y="276" on="0"/>
        <pt x="1030" y="338" on="1"/>
      </contour>
      <contour>
        <pt x="688" y="897" on="1"/>
        <pt x="593" y="909" on="0"/>
        <pt x="532" y="909" on="1"/>
        <pt x="467" y="909" on="0"/>
        <pt x="371" y="867" on="0"/>
        <pt x="303" y="796" on="0"/>
        <pt x="259" y="703" on="0"/>
        <pt x="234" y="599" on="0"/>
        <pt x="225" y="491" on="0"/>
        <pt x="225" y="442" on="1"/>
        <pt x="225" y="425" on="0"/>
        <pt x="229" y="367" on="0"/>
        <pt x="240" y="301" on="0"/>
        <pt x="257" y="233" on="0"/>
        <pt x="284" y="178" on="0"/>
        <pt x="320" y="143" on="0"/>
        <pt x="344" y="143" on="1"/>
        <pt x="370" y="143" on="0"/>
        <pt x="445" y="200" on="0"/>
        <pt x="498" y="268" on="1"/>
        <pt x="529" y="310" on="0"/>
        <pt x="560" y="369" on="1"/>
        <pt x="586" y="419" on="0"/>
        <pt x="645" y="565" on="0"/>
        <pt x="668" y="662" on="1"/>
      </contour>
    </TTGlyph>
    <TTGlyph name="aacute" xMin="71" yMin="-25" xMax="1030" yMax="1520">
      <component glyphName="a" x="0" y="0" flags="0x204"/>
      <component glyphName="acute" x="485" y="-161" flags="0x4"/>
    </TTGlyph>
    <TTGlyph name="abreve" xMin="71" yMin="-25" xMax="1030" yMax="1394">
      <component glyphName="a" x="0" y="0" flags="0x204"/>
      <component glyphName="breve" x="262" y="-181" flags="0x4"/>
    </TTGlyph>
    <TTGlyph name="acircumflex" xMin="71" yMin="-25" xMax="1030" yMax="1511">
      <component glyphName="a" x="0" y="0" flags="0x204"/>
      <component glyphName="circumflex" x="244" y="-105" flags="0x4"/>
    </TTGlyph>
    <TTGlyph name="acute" xMin="3" yMin="1253" xMax="518" yMax="1681">
      <contour>
        <pt x="518" y="1681" on="1"/>
        <pt x="491" y="1645" on="0"/>
        <pt x="466" y="1612" on="1"/>
        <pt x="445" y="1584" on="0"/>
        <pt x="401" y="1528" on="0"/>
        <pt x="387" y="1513" on="1"/>
        <pt x="324" y="1444" on="0"/>
        <pt x="190" y="1346" on="0"/>
        <pt x="133" y="1314" on="1"/>
        <pt x="67" y="1277" on="0"/>
        <pt x="4" y="1253" on="1"/>
        <pt x="3" y="1256" on="0"/>
        <pt x="3" y="1259" on="1"/>
        <pt x="3" y="1265" on="0"/>
        <pt x="4" y="1266" on="1"/>
        <pt x="55" y="1307" on="0"/>
        <pt x="121" y="1373" on="0"/>
        <pt x="173" y="1436" on="0"/>
        <pt x="220" y="1502" on="0"/>
        <pt x="252" y="1544" on="1"/>
        <pt x="276" y="1568" on="0"/>
        <pt x="337" y="1599" on="0"/>
        <pt x="407" y="1626" on="0"/>
        <pt x="481" y="1657" on="0"/>
      </contour>
    </TTGlyph>
    <TTGlyph name="adieresis" xMin="71" yMin="-25" xMax="1030" yMax="1377">
      <component glyphName="a" x="0" y="0" flags="0x204"/>
      <component glyphName="dieresis" x="211" y="-116" flags="0x4"/>
    </TTGlyph>
    <TTGlyph name="ae" xMin="45" yMin="-37" xMax="1040" yMax="1030">
      <contour>
        <pt x="119" y="756" on="1"/>
        <pt x="149" y="790" on="0"/>
        <pt x="230" y="879" on="0"/>
        <pt x="322" y="959" on="0"/>
        <pt x="419" y="1014" on="0"/>
        <pt x="465" y="1014" on="1"/>
        <pt x="499" y="1014" on="0"/>
        <pt x="552" y="978" on="0"/>
        <pt x="590" y="920" on="0"/>
        <pt x="615" y="846" on="0"/>
        <pt x="623" y="809" on="1"/>
        <pt x="656" y="854" on="0"/>
        <pt x="733" y="935" on="0"/>
        <pt x="820" y="995" on="0"/>
        <pt x="916" y="1030" on="0"/>
        <pt x="967" y="1030" on="1"/>
        <pt x="988" y="1030" on="0"/>
        <pt x="1016" y="1015" on="0"/>
        <pt x="1033" y="989" on="0"/>
        <pt x="1040" y="957" on="0"/>
        <pt x="1040" y="940" on="1"/>
        <pt x="1040" y="896" on="0"/>
        <pt x="1000" y="808" on="0"/>
        <pt x="933" y="723" on="0"/>
        <pt x="847" y="642" on="0"/>
        <pt x="754" y="569" on="0"/>
        <pt x="663" y="505" on="0"/>
        <pt x="625" y="479" on="1"/>
        <pt x="625" y="457" on="1"/>
        <pt x="625" y="432" on="0"/>
        <pt x="630" y="361" on="0"/>
        <pt x="643" y="284" on="0"/>
        <pt x="665" y="208" on="0"/>
        <pt x="698" y="148" on="0"/>
        <pt x="745" y="111" on="0"/>
        <pt x="776" y="111" on="1"/>
        <pt x="803" y="111" on="0"/>
        <pt x="857" y="144" on="0"/>
        <pt x="909" y="197" on="0"/>
        <pt x="957" y="262" on="0"/>
        <pt x="998" y="326" on="0"/>
        <pt x="1030" y="383" on="0"/>
        <pt x="1040" y="401" on="1"/>
        <pt x="1040" y="291" on="1"/>
        <pt x="987" y="231" on="0"/>
        <pt x="897" y="140" on="0"/>
        <pt x="864" y="109" on="1"/>
        <pt x="825" y="73" on="0"/>
        <pt x="793" y="47" on="1"/>
        <pt x="704" y="-23" on="0"/>
        <pt x="639" y="-23" on="1"/>
        <pt x="586" y="-23" on="0"/>
        <pt x="547" y="23" on="1"/>
        <pt x="528" y="43" on="0"/>
        <pt x="494" y="127" on="0"/>
        <pt x="481" y="184" on="1"/>
        <pt x="443" y="132" on="0"/>
        <pt x="367" y="58" on="0"/>
        <pt x="299" y="9" on="0"/>
        <pt x="248" y="-18" on="0"/>
        <pt x="236" y="-23" on="1"/>
        <pt x="214" y="-31" on="0"/>
        <pt x="174" y="-37" on="0"/>
        <pt x="156" y="-37" on="1"/>
        <pt x="126" y="-37" on="0"/>
        <pt x="84" y="-15" on="0"/>
        <pt x="57" y="22" on="0"/>
        <pt x="45" y="69" on="0"/>
        <pt x="45" y="94" on="1"/>
        <pt x="45" y="122" on="0"/>
        <pt x="59" y="184" on="0"/>
        <pt x="86" y="245" on="0"/>
        <pt x="126" y="303" on="0"/>
        <pt x="152" y="328" on="1"/>
        <pt x="200" y="373" on="0"/>
        <pt x="283" y="432" on="0"/>
        <pt x="360" y="489" on="0"/>
        <pt x="435" y="559" on="0"/>
        <pt x="475" y="616" on="1"/>
        <pt x="473" y="621" on="0"/>
        <pt x="473" y="628" on="0"/>
        <pt x="473" y="633" on="1"/>
        <pt x="459" y="757" on="0"/>
        <pt x="379" y="881" on="0"/>
        <pt x="328" y="881" on="1"/>
        <pt x="295" y="881" on="0"/>
        <pt x="231" y="833" on="0"/>
        <pt x="176" y="766" on="0"/>
        <pt x="134" y="694" on="0"/>
        <pt x="123" y="670" on="1"/>
      </contour>
      <contour>
        <pt x="274" y="362" on="1"/>
        <pt x="232" y="327" on="0"/>
        <pt x="197" y="241" on="0"/>
        <pt x="197" y="201" on="1"/>
        <pt x="197" y="169" on="0"/>
        <pt x="217" y="119" on="0"/>
        <pt x="236" y="106" on="1"/>
        <pt x="247" y="92" on="0"/>
        <pt x="290" y="85" on="0"/>
        <pt x="338" y="99" on="0"/>
        <pt x="383" y="133" on="0"/>
        <pt x="397" y="162" on="1"/>
        <pt x="409" y="186" on="0"/>
        <pt x="438" y="261" on="0"/>
        <pt x="463" y="357" on="0"/>
        <pt x="479" y="472" on="0"/>
        <pt x="479" y="535" on="1"/>
        <pt x="479" y="559" on="1"/>
        <pt x="447" y="520" on="0"/>
        <pt x="404" y="473" on="0"/>
        <pt x="362" y="435" on="0"/>
        <pt x="312" y="395" on="0"/>
      </contour>
      <contour>
        <pt x="854" y="881" on="1"/>
        <pt x="806" y="887" on="0"/>
        <pt x="738" y="859" on="0"/>
        <pt x="690" y="805" on="0"/>
        <pt x="661" y="732" on="0"/>
        <pt x="643" y="653" on="0"/>
        <pt x="633" y="575" on="0"/>
        <pt x="629" y="543" on="1"/>
        <pt x="661" y="562" on="0"/>
        <pt x="729" y="612" on="0"/>
        <pt x="792" y="668" on="0"/>
        <pt x="843" y="729" on="0"/>
        <pt x="872" y="792" on="0"/>
        <pt x="873" y="853" on="0"/>
      </contour>
    </TTGlyph>
    <TTGlyph name="aeacute" xMin="45" yMin="-37" xMax="1165" yMax="1483">
      <component glyphName="ae" x="0" y="0" flags="0x204"/>
      <component glyphName="acute" x="647" y="-198" flags="0x4"/>
    </TTGlyph>
    <TTGlyph name="agrave" xMin="71" yMin="-25" xMax="1030" yMax="1508">
      <component glyphName="a" x="0" y="0" flags="0x204"/>
      <component glyphName="grave" x="176" y="-157" flags="0x4"/>
    </TTGlyph>
    <TTGlyph name="amacron" xMin="71" yMin="-25" xMax="1030" yMax="1277">
      <component glyphName="a" x="0" y="0" flags="0x204"/>
      <component glyphName="macron" x="184" y="-185" flags="0x4"/>
    </TTGlyph>
    <TTGlyph name="ampersand" xMin="58" yMin="-39" xMax="2032" yMax="1571">
      <contour>
        <pt x="1892" y="113" on="1"/>
        <pt x="1806" y="45" on="0"/>
        <pt x="1659" y="-32" on="0"/>
        <pt x="1604" y="-35" on="1"/>
        <pt x="1552" y="-39" on="0"/>
        <pt x="1438" y="8" on="0"/>
        <pt x="1317" y="92" on="0"/>
        <pt x="1192" y="206" on="0"/>
        <pt x="1130" y="270" on="1"/>
        <pt x="1060" y="202" on="0"/>
        <pt x="902" y="89" on="0"/>
        <pt x="739" y="6" on="0"/>
        <pt x="579" y="-39" on="0"/>
        <pt x="508" y="-37" on="1"/>
        <pt x="459" y="-36" on="0"/>
        <pt x="353" y="-11" on="0"/>
        <pt x="252" y="37" on="0"/>
        <pt x="162" y="109" on="0"/>
        <pt x="95" y="206" on="0"/>
        <pt x="58" y="327" on="0"/>
        <pt x="61" y="401" on="1"/>
        <pt x="65" y="489" on="0"/>
        <pt x="138" y="625" on="0"/>
        <pt x="245" y="728" on="0"/>
        <pt x="371" y="801" on="0"/>
        <pt x="430" y="827" on="1"/>
        <pt x="386" y="846" on="0"/>
        <pt x="309" y="893" on="0"/>
        <pt x="251" y="960" on="0"/>
        <pt x="217" y="1049" on="0"/>
        <pt x="217" y="1110" on="1"/>
        <pt x="217" y="1188" on="0"/>
        <pt x="295" y="1334" on="0"/>
        <pt x="373" y="1386" on="1"/>
        <pt x="437" y="1431" on="0"/>
        <pt x="555" y="1495" on="0"/>
        <pt x="658" y="1538" on="0"/>
        <pt x="746" y="1562" on="0"/>
        <pt x="780" y="1565" on="1"/>
        <pt x="845" y="1571" on="0"/>
        <pt x="991" y="1562" on="0"/>
        <pt x="1053" y="1540" on="1"/>
        <pt x="1143" y="1509" on="0"/>
        <pt x="1085" y="1466" on="1"/>
        <pt x="1073" y="1457" on="0"/>
        <pt x="1051" y="1441" on="1"/>
        <pt x="1032" y="1427" on="0"/>
        <pt x="970" y="1383" on="0"/>
        <pt x="922" y="1350" on="1"/>
        <pt x="938" y="1369" on="0"/>
        <pt x="942" y="1396" on="0"/>
        <pt x="938" y="1404" on="1"/>
        <pt x="934" y="1414" on="0"/>
        <pt x="922" y="1419" on="1"/>
        <pt x="906" y="1426" on="0"/>
        <pt x="833" y="1446" on="0"/>
        <pt x="742" y="1462" on="0"/>
        <pt x="641" y="1470" on="0"/>
        <pt x="596" y="1466" on="1"/>
        <pt x="551" y="1463" on="0"/>
        <pt x="476" y="1412" on="0"/>
        <pt x="420" y="1337" on="0"/>
        <pt x="389" y="1249" on="0"/>
        <pt x="389" y="1208" on="1"/>
        <pt x="389" y="1167" on="0"/>
        <pt x="412" y="1082" on="0"/>
        <pt x="468" y="1007" on="0"/>
        <pt x="563" y="946" on="0"/>
        <pt x="635" y="928" on="1"/>
        <pt x="707" y="910" on="0"/>
        <pt x="844" y="829" on="0"/>
        <pt x="971" y="727" on="0"/>
        <pt x="1087" y="613" on="0"/>
        <pt x="1139" y="561" on="1"/>
        <pt x="1212" y="483" on="1"/>
        <pt x="1247" y="571" on="0"/>
        <pt x="1247" y="666" on="1"/>
        <pt x="1247" y="717" on="0"/>
        <pt x="1217" y="823" on="0"/>
        <pt x="1158" y="905" on="0"/>
        <pt x="1070" y="951" on="0"/>
        <pt x="1012" y="942" on="1"/>
        <pt x="1204" y="1092" on="1"/>
        <pt x="1328" y="1075" on="0"/>
        <pt x="1523" y="1063" on="0"/>
        <pt x="1591" y="1063" on="1"/>
        <pt x="1649" y="1063" on="0"/>
        <pt x="1764" y="1071" on="0"/>
        <pt x="1873" y="1093" on="0"/>
        <pt x="1972" y="1132" on="0"/>
        <pt x="2013" y="1163" on="1"/>
        <pt x="1940" y="1102" on="0"/>
        <pt x="1800" y="1017" on="0"/>
        <pt x="1654" y="963" on="0"/>
        <pt x="1497" y="938" on="0"/>
        <pt x="1409" y="938" on="1"/>
        <pt x="1393" y="938" on="1"/>
        <pt x="1407" y="906" on="0"/>
        <pt x="1417" y="840" on="0"/>
        <pt x="1417" y="811" on="1"/>
        <pt x="1417" y="715" on="0"/>
        <pt x="1335" y="518" on="0"/>
        <pt x="1266" y="424" on="1"/>
        <pt x="1321" y="365" on="0"/>
        <pt x="1444" y="245" on="0"/>
        <pt x="1574" y="146" on="0"/>
        <pt x="1708" y="84" on="0"/>
        <pt x="1774" y="84" on="1"/>
        <pt x="1812" y="84" on="0"/>
        <pt x="1871" y="102" on="0"/>
      </contour>
      <contour>
        <pt x="616" y="758" on="1"/>
        <pt x="512" y="795" on="1"/>
        <pt x="458" y="785" on="0"/>
        <pt x="386" y="765" on="0"/>
        <pt x="363" y="757" on="1"/>
        <pt x="336" y="747" on="0"/>
        <pt x="319" y="737" on="1"/>
        <pt x="299" y="723" on="0"/>
        <pt x="259" y="678" on="0"/>
        <pt x="226" y="619" on="0"/>
        <pt x="205" y="547" on="0"/>
        <pt x="205" y="506" on="1"/>
        <pt x="205" y="417" on="0"/>
        <pt x="286" y="268" on="0"/>
        <pt x="416" y="161" on="0"/>
        <pt x="578" y="102" on="0"/>
        <pt x="659" y="102" on="1"/>
        <pt x="789" y="102" on="0"/>
        <pt x="1018" y="210" on="0"/>
        <pt x="1102" y="301" on="1"/>
        <pt x="1031" y="375" on="0"/>
        <pt x="895" y="524" on="0"/>
        <pt x="770" y="650" on="0"/>
        <pt x="661" y="742" on="0"/>
      </contour>
      <contour>
        <pt x="2032" y="1178" on="1"/>
        <pt x="2027" y="1173" on="0"/>
        <pt x="2018" y="1166" on="0"/>
        <pt x="2013" y="1163" on="1"/>
        <pt x="2018" y="1166" on="0"/>
        <pt x="2027" y="1173" on="0"/>
      </contour>
    </TTGlyph>
    <TTGlyph name="aogonek" xMin="71" yMin="-379" xMax="1030" yMax="1053">
      <contour>
        <pt x="989" y="-229" on="1"/>
        <pt x="948" y="-271" on="0"/>
        <pt x="878" y="-328" on="0"/>
        <pt x="815" y="-363" on="0"/>
        <pt x="755" y="-379" on="0"/>
        <pt x="723" y="-379" on="1"/>
        <pt x="688" y="-379" on="0"/>
        <pt x="629" y="-352" on="0"/>
        <pt x="587" y="-307" on="0"/>
        <pt x="563" y="-247" on="0"/>
        <pt x="563" y="-213" on="1"/>
        <pt x="563" y="-141" on="0"/>
        <pt x="623" y="-39" on="0"/>
        <pt x="668" y="-2" on="1"/>
        <pt x="651" y="20" on="0"/>
        <pt x="637" y="107" on="0"/>
        <pt x="637" y="172" on="1"/>
        <pt x="637" y="222" on="0"/>
        <pt x="643" y="338" on="0"/>
        <pt x="649" y="410" on="1"/>
        <pt x="627" y="375" on="0"/>
        <pt x="587" y="317" on="0"/>
        <pt x="571" y="295" on="1"/>
        <pt x="553" y="269" on="0"/>
        <pt x="535" y="248" on="1"/>
        <pt x="482" y="183" on="0"/>
        <pt x="383" y="83" on="0"/>
        <pt x="300" y="15" on="0"/>
        <pt x="237" y="-21" on="0"/>
        <pt x="219" y="-23" on="1"/>
        <pt x="201" y="-25" on="0"/>
        <pt x="150" y="3" on="0"/>
        <pt x="104" y="83" on="0"/>
        <pt x="71" y="227" on="0"/>
        <pt x="72" y="342" on="1"/>
        <pt x="73" y="457" on="0"/>
        <pt x="120" y="632" on="0"/>
        <pt x="195" y="763" on="0"/>
        <pt x="287" y="858" on="0"/>
        <pt x="332" y="893" on="1"/>
        <pt x="425" y="964" on="0"/>
        <pt x="596" y="1049" on="0"/>
        <pt x="678" y="1051" on="1"/>
        <pt x="705" y="1052" on="0"/>
        <pt x="731" y="1050" on="1"/>
        <pt x="754" y="1048" on="0"/>
        <pt x="807" y="1039" on="0"/>
        <pt x="831" y="1030" on="1"/>
        <pt x="860" y="1053" on="1"/>
        <pt x="854" y="1025" on="0"/>
        <pt x="841" y="929" on="0"/>
        <pt x="829" y="809" on="0"/>
        <pt x="817" y="673" on="0"/>
        <pt x="808" y="536" on="0"/>
        <pt x="800" y="407" on="0"/>
        <pt x="795" y="301" on="0"/>
        <pt x="794" y="227" on="0"/>
        <pt x="795" y="213" on="1"/>
        <pt x="800" y="156" on="0"/>
        <pt x="843" y="114" on="0"/>
        <pt x="881" y="139" on="1"/>
        <pt x="896" y="151" on="0"/>
        <pt x="918" y="177" on="1"/>
        <pt x="937" y="199" on="0"/>
        <pt x="992" y="276" on="0"/>
        <pt x="1030" y="338" on="1"/>
        <pt x="1030" y="260" on="1"/>
        <pt x="1021" y="246" on="0"/>
        <pt x="989" y="207" on="0"/>
        <pt x="973" y="188" on="1"/>
        <pt x="955" y="166" on="0"/>
        <pt x="934" y="143" on="1"/>
        <pt x="908" y="113" on="0"/>
        <pt x="852" y="56" on="0"/>
        <pt x="795" y="10" on="0"/>
        <pt x="741" y="-20" on="0"/>
        <pt x="719" y="-23" on="1"/>
        <pt x="705" y="-47" on="0"/>
        <pt x="688" y="-102" on="0"/>
        <pt x="688" y="-131" on="1"/>
        <pt x="688" y="-202" on="0"/>
        <pt x="762" y="-279" on="0"/>
        <pt x="834" y="-279" on="1"/>
        <pt x="858" y="-279" on="0"/>
        <pt x="894" y="-276" on="0"/>
        <pt x="928" y="-266" on="0"/>
        <pt x="965" y="-246" on="0"/>
      </contour>
      <contour>
        <pt x="688" y="897" on="1"/>
        <pt x="593" y="909" on="0"/>
        <pt x="532" y="909" on="1"/>
        <pt x="467" y="909" on="0"/>
        <pt x="371" y="867" on="0"/>
        <pt x="303" y="796" on="0"/>
        <pt x="259" y="703" on="0"/>
        <pt x="234" y="599" on="0"/>
        <pt x="225" y="491" on="0"/>
        <pt x="225" y="442" on="1"/>
        <pt x="225" y="425" on="0"/>
        <pt x="229" y="367" on="0"/>
        <pt x="240" y="301" on="0"/>
        <pt x="257" y="233" on="0"/>
        <pt x="284" y="178" on="0"/>
        <pt x="320" y="143" on="0"/>
        <pt x="344" y="143" on="1"/>
        <pt x="370" y="143" on="0"/>
        <pt x="445" y="200" on="0"/>
        <pt x="498" y="268" on="1"/>
        <pt x="529" y="310" on="0"/>
        <pt x="560" y="369" on="1"/>
        <pt x="586" y="419" on="0"/>
        <pt x="645" y="565" on="0"/>
        <pt x="668" y="662" on="1"/>
      </contour>
    </TTGlyph>
    <TTGlyph name="approxequal" xMin="104" yMin="414" xMax="842" yMax="1032">
      <contour>
        <pt x="842" y="1032" on="1"/>
        <pt x="826" y="974" on="0"/>
        <pt x="782" y="867" on="0"/>
        <pt x="720" y="786" on="0"/>
        <pt x="638" y="737" on="0"/>
        <pt x="584" y="737" on="1"/>
        <pt x="548" y="737" on="0"/>
        <pt x="477" y="772" on="0"/>
        <pt x="412" y="815" on="0"/>
        <pt x="356" y="853" on="0"/>
        <pt x="334" y="856" on="1"/>
        <pt x="314" y="860" on="0"/>
        <pt x="292" y="849" on="1"/>
        <pt x="273" y="840" on="0"/>
        <pt x="224" y="790" on="0"/>
        <pt x="199" y="737" on="1"/>
        <pt x="145" y="700" on="1"/>
        <pt x="160" y="738" on="0"/>
        <pt x="209" y="835" on="0"/>
        <pt x="283" y="922" on="0"/>
        <pt x="387" y="981" on="0"/>
        <pt x="457" y="981" on="1"/>
        <pt x="490" y="981" on="0"/>
        <pt x="556" y="950" on="0"/>
        <pt x="617" y="912" on="0"/>
        <pt x="673" y="881" on="0"/>
        <pt x="696" y="881" on="1"/>
        <pt x="705" y="881" on="0"/>
        <pt x="734" y="898" on="0"/>
        <pt x="762" y="925" on="0"/>
        <pt x="784" y="959" on="0"/>
        <pt x="788" y="977" on="1"/>
      </contour>
      <contour>
        <pt x="801" y="745" on="1"/>
        <pt x="785" y="687" on="0"/>
        <pt x="741" y="580" on="0"/>
        <pt x="679" y="499" on="0"/>
        <pt x="597" y="451" on="0"/>
        <pt x="543" y="451" on="1"/>
        <pt x="507" y="451" on="0"/>
        <pt x="436" y="486" on="0"/>
        <pt x="371" y="528" on="0"/>
        <pt x="315" y="566" on="0"/>
        <pt x="293" y="569" on="1"/>
        <pt x="273" y="573" on="0"/>
        <pt x="251" y="562" on="1"/>
        <pt x="232" y="553" on="0"/>
        <pt x="183" y="503" on="0"/>
        <pt x="158" y="451" on="1"/>
        <pt x="104" y="414" on="1"/>
        <pt x="114" y="439" on="0"/>
        <pt x="142" y="500" on="0"/>
        <pt x="181" y="562" on="0"/>
        <pt x="230" y="621" on="0"/>
        <pt x="292" y="666" on="0"/>
        <pt x="369" y="694" on="0"/>
        <pt x="416" y="694" on="1"/>
        <pt x="449" y="694" on="0"/>
        <pt x="515" y="663" on="0"/>
        <pt x="576" y="625" on="0"/>
        <pt x="632" y="594" on="0"/>
        <pt x="655" y="594" on="1"/>
        <pt x="664" y="594" on="0"/>
        <pt x="693" y="611" on="0"/>
        <pt x="721" y="638" on="0"/>
        <pt x="744" y="672" on="0"/>
        <pt x="748" y="690" on="1"/>
      </contour>
    </TTGlyph>
</ttFont>
